<?xml version="1.0" standalone="no"?>
<!DOCTYPE svg PUBLIC "-//W3C//DTD SVG 1.1//EN" "http://www.w3.org/Graphics/SVG/1.1/DTD/svg11.dtd" >
<svg>
<metadata>
Created by FontForge 20090914 at Fri Dec  2 08:29:05 2016
 By www-data
http://members.aol.com/vroomfonde/ttf/ Copyright (c) 1997 Tom Murphy. Freeware, but not to be resold.  imightbetm@aol.com - Tom Murphy/339 Still Hill Rd/Hamden, CT 06518.1830
</metadata>
<defs>
<font id="Tom's-NewRoman" horiz-adv-x="364" >
  <font-face 
    font-family="Tom's New Roman"
    font-weight="400"
    font-stretch="normal"
    units-per-em="1000"
    panose-1="0 0 0 0 0 0 0 0 0 0"
    ascent="800"
    descent="-200"
    x-height="409"
    cap-height="628.001"
    bbox="-59 -227.998 1100 1056"
    underline-thickness="20"
    underline-position="-123"
    unicode-range="U+0015-U+2122"
  />
<missing-glyph horiz-adv-x="800" 
d="M50 0v800h700v-800h-700zM700 50v700h-600v-700h600z" />
    <glyph glyph-name=".notdef" horiz-adv-x="800" 
d="M50 0v800h700v-800h-700zM700 50v700h-600v-700h600z" />
    <glyph glyph-name="NAK" 
d="M280 624l-116 -156l-36 4l48 152h104z" />
    <glyph glyph-name="SYN" 
d="M274 546c6.66699 -8.66699 10 -18.667 10 -30c0 -16.667 -6.66699 -30 -20 -40c-8.66699 -6.66699 -18.667 -10 -30 -10c-16.667 0 -30 6.66699 -40 20c-6.66699 8.66699 -10 18.667 -10 30c0 16.667 6.66699 30 20 40c8.66699 6.66699 18.667 10 30 10
c16.667 0 30 -6.66699 40 -20zM120 484c-9.33301 -14 -23 -21 -41 -21c-10 0 -19 3 -27 9c-14 9.33301 -21 23 -21 41c0 10 3 19 9 27c9.33301 14 23 21 41 21c10 0 19 -3 27 -9c14 -9.33301 21 -23 21 -41c0 -10 -3 -19 -9 -27z" />
    <glyph glyph-name="ETB" horiz-adv-x="245" 
d="M221 15l-195.999 2.99805v14l22 9c15.333 8 25 16.667 29 26c1.33301 3.33301 2.33301 10.166 3 20.499s1 16.5 1 18.5c0 6 -0.333008 17.167 -1 33.5s-1 28.833 -1 37.5c0 10.667 0.333008 20.667 1 30l2 28c0 9.33301 -0.666992 18.333 -2 27s-2 17 -2 25v19
c0 12.667 -0.166992 25.167 -0.5 37.5s-2.16602 22 -5.49902 29s-8 10.5 -14 10.5c-4.66699 0 -8.33398 -0.333008 -11.001 -1s-5.33398 -2 -8.00098 -4l-6 19l68 30l57 27c0.666992 -6 1.16699 -12.667 1.5 -20s0.5 -14.666 0.5 -21.999c0 -10 -0.166992 -19.5 -0.5 -28.5
s-0.5 -17.833 -0.5 -26.5v-117v-50.5c0 -18.333 0.333008 -38.166 1 -59.499c0 -20 0.5 -35.5 1.5 -46.5s3.66699 -19.833 8 -26.5s11.333 -11.667 21 -15s20.167 -6.66602 31.5 -9.99902c2.66699 -1.33301 3 -4 1 -8s-2.33301 -7 -1 -9z" />
    <glyph glyph-name="CAN" horiz-adv-x="445" 
d="M356 516l-24 -8l-144 92l-104 -84l-24 4l94 142l78 -2z" />
    <glyph glyph-name="EM" horiz-adv-x="445" 
d="M356 620l-124 -144l-78 -2l-94 142l24 4l104 -84l144 92z" />
    <glyph glyph-name="space" unicode=" " horiz-adv-x="500" 
 />
    <glyph glyph-name="exclam" unicode="!" horiz-adv-x="239" 
d="M175 580c0 -30 -2.33301 -61.166 -7 -93.499s-9 -63.833 -13 -94.5c-2.66699 -30.667 -7.33398 -73.667 -14.001 -129c-2 -18.667 -5.33301 -44.334 -10 -77.001h-12c-3.33301 23.333 -7 53 -11 89l-13 113c-7.33301 42.667 -12 73.334 -14 92.001
c-4 29.333 -6 62.666 -6 99.999c0 74.667 18.333 112 55 112c18.667 0 30.834 -8.16699 36.501 -24.5s8.5 -45.5 8.5 -87.5zM159 85.001c5.33301 -8.66699 8 -17.334 8 -26.001c0 -14.667 -6.33301 -26.334 -19 -35.001c-8.66699 -5.33301 -17.334 -8 -26.001 -8
c-14.667 0 -26.334 6.33301 -35.001 19c-5.33301 8.66699 -8 17.334 -8 26.001c0 14.667 6.33301 26.334 19 35.001c8.66699 5.33301 17.334 8 26.001 8c14.667 0 26.334 -6.33301 35.001 -19z" />
    <glyph glyph-name="quotedbl" unicode="&#x22;" horiz-adv-x="236" 
d="M210 628l-21 -135h-33l-24 138l6 99l72 -3v-99zM86 624l-21 -135h-33l-24 138l6 99l72 -3v-99z" />
    <glyph glyph-name="numbersign" unicode="#" horiz-adv-x="430" 
d="M414 405h-81l-24 -110h97l1 -36h-106l-9 -51l-36 -200h-36l45 251h-162l-7 -43l-36 -200h-36l44 243h-56l-1 36h63l14 73l6 37h-83v40h91c8.66699 48.667 14 78.167 16 88.5s6.66699 29.833 14 58.5l20 76l40 8l-44 -192l-5 -39h156c8.66699 46 14.167 74.5 16.5 85.5
s6.5 28.833 12.5 53.5l20 76l40 8l-44 -192l-4 -31h74v-40zM292 405h-157l-24 -110h161l12 65z" />
    <glyph glyph-name="dollar" unicode="$" horiz-adv-x="440" 
d="M435 171c0 -42 -21.833 -82.6689 -65.5 -122.002s-88.5 -59 -134.5 -59v-55h-40l2 56c-12.667 0 -25.167 1.33301 -37.5 4s-23.5 6 -33.5 10s-23.667 12 -41 24c-8.66699 6 -14.667 9.5 -18 10.5s-11.166 8.33301 -23.499 22s-19 22.167 -20 25.5
s-1.83301 9.33301 -2.5 18s-1 21.667 -1 39v18c0 10.667 0.5 20.834 1.5 30.501s2.5 19.167 4.5 28.5c0.666992 -1.33301 3.83398 -1.16602 9.50098 0.500977s8.83398 -0.5 9.50098 -6.5s1.5 -14 2.5 -24s2.66699 -19.833 5 -29.5s4.16602 -16.167 5.49902 -19.5l12 -26
c8 -20.667 21 -38.334 39 -53.001c8.66699 -7.33301 25.667 -15.666 51 -24.999l35 -12v284l-20 10c-17.333 9.33301 -37.833 21.666 -61.5 36.999s-39.834 27.666 -48.501 36.999c-12.667 13.333 -23.334 29.833 -32.001 49.5s-13 40.5 -13 62.5
c0 14.667 2.83301 32 8.5 52s12.167 36 19.5 48c5.33301 9.33301 12.333 18.333 21 27s18.667 17 30 25c28 21.333 60 35 96 41v46l40 5v-47h6c10.667 0 24.5 -2.5 41.5 -7.5l55.5 -16.5c10 -1.33301 22 -6.66602 36 -15.999c9.33301 -6 14 -10.333 14 -13v-54l1 -35l-2 -73
h-15l-16 90c-2 8 -4.83301 16 -8.5 24s-7.5 15.333 -11.5 22c-8 11.333 -22.333 20.166 -43 26.499s-40 9.5 -58 9.5v-247l70 -34c26.667 -14 45.834 -25.667 57.501 -35s23.667 -21.166 36 -35.499s20.666 -27.666 24.999 -39.999s7.33301 -25.5 9 -39.5
s2.5 -33.333 2.5 -58zM195 429.998l0.000976562 219c-22.667 -11.333 -43.834 -27.333 -63.501 -48s-29.5 -38.667 -29.5 -54c0 -24 9 -46.333 27 -67c15.333 -18 37.333 -34.667 66 -50zM343.001 194.998c-6.66699 18 -21.667 34.667 -45 50l-33 22
c-10.667 7.33301 -20.667 14.666 -30 21.999v-267c18 0 36.167 5.5 54.5 16.5s32.833 25.833 43.5 44.5c6.66699 12 11.667 23 15 33s5 20.667 5 32c0 12.667 -3.33301 28.334 -10 47.001z" />
    <glyph glyph-name="percent" unicode="%" horiz-adv-x="728" 
d="M358 548c0 -5.33301 0.332031 -11.168 0.999023 -17.501s1 -11.166 1 -14.499c0 -44 -8 -81.333 -24 -112c-18 -34.667 -42.333 -52 -73 -52c-6 0 -10.667 0.333008 -14 1c-31.333 6 -55.166 24.5 -71.499 55.5s-24.5 67.5 -24.5 109.5c0 50 6.33301 91.333 19 124
c16 42 41 63 75 63c32.667 0 59 -16.333 79 -49c16 -26.667 26.667 -62.667 32 -108zM649.999 207.998c0 -5.33301 0.332031 -11.168 0.999023 -17.501s1 -11.166 1 -14.499c0 -44 -8 -81.333 -24 -112c-18 -34.667 -42.333 -52 -73 -52c-6 0 -10.667 0.333008 -14 1
c-31.333 6 -55.166 24.5 -71.499 55.5s-24.5 67.5 -24.5 109.5c0 50 6.33301 91.333 19 124c16 42 41 63 75 63c32.667 0 59 -16.333 79 -49c16 -26.667 26.667 -62.667 32 -108zM691.998 595.996l-588 -588h-52l588 588h52zM308.998 536.996
c0 48.667 -1.66699 80.667 -5 96c-7.33301 34 -23.333 51 -48 51c-28 0 -45 -25 -51 -75c-2.66699 -22 -4 -47.667 -4 -77v-32c0 -38.667 2.66699 -66.334 8 -83.001c8 -26 24 -39 48 -39c21.333 0 36 9.33301 44 28c6 14.667 9 38.334 9 71.001
c0 9.33301 -0.166992 19 -0.5 29s-0.5 20.333 -0.5 31zM600.998 196.996c0 48.667 -1.66699 80.667 -5 96c-7.33301 34 -23.333 51 -48 51c-28 0 -45 -25 -51 -75c-2.66699 -22 -4 -47.667 -4 -77v-32c0 -38.667 2.66699 -66.334 8 -83.001c8 -26 24 -39 48 -39
c21.333 0 36 9.33301 44 28c6 14.667 9 38.334 9 71.001c0 9.33301 -0.166992 19 -0.5 29s-0.5 20.333 -0.5 31z" />
    <glyph glyph-name="ampersand" unicode="&#x26;" horiz-adv-x="628" 
d="M621 99c-8 -20 -15.666 -35.001 -22.999 -45.001c-22.667 -30 -51.667 -45 -87 -45c-58 0 -104.333 15 -139 45c-11.333 10 -23 25 -35 45c-13.333 -13.333 -24 -23.666 -32 -30.999c-26 -23.333 -47.333 -38 -64 -44s-31.667 -10.5 -45 -13.5s-25.666 -4.5 -36.999 -4.5
c-10.667 0 -21.5 1.33301 -32.5 4s-21.833 7 -32.5 13c-52 28.667 -78 76 -78 142c0 22 7.33301 49.333 22 82c12.667 27.333 27 52 43 74c10 13.333 26.333 26.333 49 39c16.667 9.33301 30 15.333 40 18c-2.66699 7.33301 -4.66699 13 -6 17
c-4.66699 13.333 -7 21.666 -7 24.999c0 8.66699 -3.66699 22.667 -11 42s-11 35.333 -11 48c0 30.667 9.66699 57.334 29 80.001s44.666 34 75.999 34c45.333 0 78.666 -7 99.999 -21c27.333 -18 41 -48 41 -90c0 -26.667 -3 -46.334 -9 -59.001
c-3.33301 -8 -13.666 -21 -30.999 -39c-14 -15.333 -28.167 -26.833 -42.5 -34.5s-31.5 -12.5 -51.5 -14.5c2.66699 -28.667 16.667 -61.667 42 -99c20.667 -30 44.334 -57.667 71.001 -83c32 32.667 53 56 63 70c20.667 28.667 31 56.334 31 83.001
c0 20.667 -4.33301 36 -13 46c-12 13.333 -31.667 20 -59 20v6h126h64l2 -11c-36 0 -60.333 -16.333 -73 -49l-24 -84c-8.66699 -17.333 -23.667 -36.666 -45 -57.999l-54 -54l58 -60c30 -26 58.667 -39 86 -39c29.333 0 52.333 11 69 33
c5.33301 7.33301 10.666 18.666 15.999 33.999c2 -4.66699 3.33301 -8 4 -10c3.33301 -6.66699 6.66602 -10.667 9.99902 -12zM335.001 504.999c0 16.667 -4.99902 34.001 -14.999 52.001c-14.667 26.667 -35 40 -61 40c-20 0 -34.5 -3.16699 -43.5 -9.5
s-16.167 -19.5 -21.5 -39.5c-2.66699 -10.667 -4 -20.334 -4 -29.001c0 -7.33301 0.666992 -13.333 2 -18c5.33301 -14 9.66602 -26.833 12.999 -38.5s9 -26.167 17 -43.5c2.66699 -6.66699 7 -16 13 -28c9.33301 3.33301 16.333 6 21 8c15.333 6 26.333 11.667 33 17
c14.667 10.667 26 23 34 37s12 31.333 12 52zM292.002 127c0 6 -6.99902 17.333 -20.999 34c-6 6.66699 -11.667 13.334 -17 20.001c-7.33301 9.33301 -18.5 26 -33.5 50s-24.5 41.333 -28.5 52c-7.33301 19.333 -12.666 35.666 -15.999 48.999
c-0.666992 4.66699 -1.66699 10 -3 16c-14.667 -8 -25.334 -15.333 -32.001 -22c-22 -20.667 -33 -44 -33 -70c0 -52.667 4.66699 -91.667 14 -117c15.333 -40.667 44 -61 86 -61c11.333 0 28.166 5.66699 50.499 17s33.5 22 33.5 32z" />
    <glyph glyph-name="quotesingle" unicode="'" horiz-adv-x="96" 
d="M86 624l-21 -135h-33l-24 138l6 99l72 -3v-99z" />
    <glyph glyph-name="parenleft" unicode="(" horiz-adv-x="280" 
d="M232 -132c-19.333 12.667 -34.001 22.6689 -44.001 30.002c-32 22.667 -53.333 40.667 -64 54c-29.333 36 -53.333 82.333 -72 139s-28 111.667 -28 165c0 92.667 17.333 174 52 244c25.333 51.333 58 94.666 98 129.999c28.667 25.333 46.667 38 54 38v-40
c-40 -26.667 -70 -57.334 -90 -92.001c-16 -27.333 -30 -67.333 -42 -120c-5.33301 -23.333 -8.66602 -40.833 -9.99902 -52.5s-2 -28.167 -2 -49.5v-46c0 -82 12.667 -154.667 38 -218c18 -46 41.667 -84.667 71 -116c20.667 -22.667 33.667 -34 39 -34v-16v-16z" />
    <glyph glyph-name="parenright" unicode=")" horiz-adv-x="260" 
d="M232 256c0 -54.667 -9.16699 -109.666 -27.5 -164.999s-42.5 -101.666 -72.5 -138.999c-10.667 -12.667 -31.667 -30.334 -63 -53.001c-10 -7.33301 -25 -17.666 -45 -30.999c-0.666992 3.33301 -1 7.66602 -1 12.999s0.333008 11.666 1 18.999
c4.66699 0 17.334 11.333 38.001 34c29.333 32 53 70.333 71 115c26 64.667 39 137.667 39 219v46c0 25.333 -0.333008 42.166 -1 50.499s-4.33398 25.5 -11.001 51.5c-12 52.667 -26 92.667 -42 120c-20 34.667 -50 65.334 -90 92.001v40c6.66699 0 24 -12.333 52 -37
c40 -35.333 72.667 -78.333 98 -129c36 -72.667 54 -154.667 54 -246z" />
    <glyph glyph-name="asterisk" unicode="*" horiz-adv-x="498" 
d="M452 567c4 -6 5.99902 -11.9961 5.99902 -17.9961c0 -9.33301 -2.66699 -18 -8 -26s-11.666 -14.333 -18.999 -19c-17.333 -10 -41.166 -15.333 -71.499 -16s-51.5 -6.33398 -63.5 -17.001c12.667 -12.667 36.167 -22.167 70.5 -28.5s55.166 -11.833 62.499 -16.5
c15.333 -9.33301 23 -21 23 -35c0 -6.66699 -1.33301 -12.667 -4 -18c-7.33301 -14.667 -18.666 -22 -33.999 -22c-8.66699 0 -17.667 2.5 -27 7.5s-30.666 24.833 -63.999 59.5c-13.333 14 -27.333 23.333 -42 28c-2 -6 -3 -12.667 -3 -20c0 -12.667 2.33301 -26 7 -40
c14.667 -44 22 -66.667 22 -68c2 -12.667 -3.33301 -22.334 -16 -29.001c-8.66699 -4.66699 -16.667 -7 -24 -7c-13.333 0 -22.333 3.33301 -27 10c-1.33301 2 -3.16602 8.5 -5.49902 19.5s-3.5 18.167 -3.5 21.5c0 12 3.66699 29.333 11 52s11 39.667 11 51
c0 5.33301 -0.333008 9.33301 -1 12c-12 -6 -25.333 -17.333 -40 -34c-36.667 -43.333 -55.667 -65.333 -57 -66c-6 -4 -12.667 -6 -20 -6c-8 0 -15.667 3 -23 9c-7.33301 7.33301 -11 15 -11 23c0 4 1.83301 11.167 5.5 21.5s16.167 20.166 37.5 29.499
c62.667 28 94.667 42.667 96 44c-12.667 12 -33.834 19.667 -63.501 23s-52.167 12.666 -67.5 27.999c-6 6 -9 17 -9 33c0 11.333 3 19.833 9 25.5s14.333 8.5 25 8.5c7.33301 0 13.666 -1 18.999 -3s9.66602 -4.33301 12.999 -7s11.666 -12.667 24.999 -30
c20 -25.333 41 -44.333 63 -57c0.666992 4 1 9.33301 1 16c0 14 -5.66699 36.667 -17 68c-6 16.667 -9 30.667 -9 42c0 16 2.33301 28.333 7 37s14.334 13 29.001 13c16 0 26.333 -3.83301 31 -11.5s7 -18.5 7 -32.5c0 -10 -2.33301 -22 -7 -36c-12 -36.667 -18 -63 -18 -79
c0 -6.66699 0.333008 -11.667 1 -15c22 6.66699 40.667 17.167 56 31.5l45 42.5c14.667 11.333 28.667 17 42 17c12 0 22 -5.33301 30 -16z" />
    <glyph glyph-name="plus" unicode="+" horiz-adv-x="540" 
d="M512 332h-220l1 -73v-25v-20v-17v-14v-12c0 -12.667 -0.166992 -25.5 -0.5 -38.5s-0.5 -26.167 -0.5 -39.5v-13h-36l-2 252h-54h-176l4 36h88h138l-2 236h40v-144v-92l103 -2l117 2v-36z" />
    <glyph glyph-name="comma" unicode="," horiz-adv-x="198" 
d="M179 4c-2.66699 -16 -3.99902 -24.3311 -3.99902 -24.998c-3.33301 -12.667 -10.5 -24.5 -21.5 -35.5s-30.5 -18.167 -58.5 -21.5c-4.66699 0 -11 -0.666992 -19 -2v10c9.33301 0.666992 16.666 1.66699 21.999 3c16.667 4.66699 28.667 13.334 36 26.001
c11.333 17.333 17 34 17 50c0 5.33301 -1 11 -3 17l-3 11l-7 -3c-5.33301 -3.33301 -13.666 -5 -24.999 -5c-14.667 0 -27 3.66699 -37 11c-16.667 12 -25 26.667 -25 44c0 10.667 2.66699 20.667 8 30s12.666 16.333 21.999 21s19 7 29 7c14 0 26.167 -3.16699 36.5 -9.5
s18.333 -16.833 24 -31.5s8.5 -27.334 8.5 -38.001c0 -4 -0.666992 -7.33301 -2 -10c-2 -2.66699 -1.83301 -9.83398 0.5 -21.501s2.83301 -20.834 1.5 -27.501z" />
    <glyph glyph-name="hyphen" unicode="-" horiz-adv-x="312" 
d="M271 237h-38c-4.66699 -0.666992 -9 -1 -13 -1h-111h-60v67h56h68h14h32c11.333 0 23.333 0.333008 36 1h16v-67z" />
    <glyph glyph-name="period" unicode="." horiz-adv-x="210" 
d="M150 25c-9.33301 -14 -23 -21 -41 -21c-10.667 0 -19.667 2.66699 -27 8c-14 9.33301 -21 23 -21 41c0 10 3 19 9 27c9.33301 14 23 21 41 21c10 0 19 -3 27 -9c14 -10 21 -23.333 21 -40c0 -10 -3 -19 -9 -27z" />
    <glyph glyph-name="slash" unicode="/" horiz-adv-x="208" 
d="M192 676l-43.999 -192c-4.66699 -38 -12.667 -82.667 -24 -134c-16 -73.333 -25.333 -118 -28 -134l-36 -200h-36l64 352c6 34 10.333 59.333 13 76c9.33301 54 19.666 103.333 30.999 148l20 76z" />
    <glyph glyph-name="zero" unicode="0" horiz-adv-x="425" 
d="M400 340c2 -18 3 -36.667 3 -56c0 -78.667 -14.667 -146.667 -44 -204c-32.667 -64 -76.667 -96 -132 -96h-12c-6 1.33301 -10.333 2 -13 2c-56.667 10 -100.667 45 -132 105c-28 54 -42 118.667 -42 194c0 93.333 11.333 169.333 34 228c29.333 75.333 75 113 137 113
c58.667 0 106 -29.667 142 -89c30 -50 49.667 -115.667 59 -197zM312 320c0 83.333 -3.66699 141.669 -11 175.002c-13.333 62 -42 93 -86 93c-51.333 0 -82.333 -45.333 -93 -136c-4 -33.333 -6 -80 -6 -140v-63c0 -70.667 4.66699 -120.334 14 -149.001
c14.667 -46 44 -69 88 -69c39.333 0 66 17.667 80 53c10 25.333 15 69.666 15 132.999v12c0 12.667 -0.166992 25.5 -0.5 38.5s-0.5 26.5 -0.5 40.5v12z" />
    <glyph glyph-name="one" unicode="1" horiz-adv-x="306" 
d="M255 27l-125 -3h-65v7c24.667 0 41.334 8 50.001 24c6 11.333 9 30.333 9 57c0 48.667 -0.666992 90 -2 124c-4.66699 118.667 -7 186 -7 202c0 -1.33301 0.166992 2.83398 0.5 12.501s0.5 17.5 0.5 23.5c0 10.667 -0.333008 18 -1 22v14c0 9.33301 -0.833008 16 -2.5 20
s-5.16699 6 -10.5 6c-6.66699 0 -16.334 -2.66699 -29.001 -8c-4 -1.33301 -10 -4.33301 -18 -9l-5 10l65 43c44 29.333 66.333 43.666 67 42.999s0.666992 -14 0 -40s-1 -39.333 -1 -40l4 -423c0 -27.333 3 -46 9 -56c10 -16 30.333 -24 61 -24v-5z" />
    <glyph glyph-name="two" unicode="2" horiz-adv-x="442" 
d="M418 132c-14 -23.333 -24.3359 -41.001 -31.0029 -53.001c-22 -36.667 -35.333 -57.334 -40 -62.001l-159 -1l-150 3c-2.66699 4 18.333 26 63 66c28 24.667 46 42 54 52l100 105c26 42 39 87.333 39 136c0 46.667 -9.5 82.834 -28.5 108.501s-44.5 38.5 -76.5 38.5
c-51.333 0 -89.666 -15.333 -114.999 -46c-8 -10 -15.667 -25.667 -23 -47l-25 6c2.66699 14.667 5.33398 26.334 8.00098 35.001c8 26 17.833 46.167 29.5 60.5s31.167 28.5 58.5 42.5c33.333 17.333 64 26 92 26c16.667 0 31.667 -3.33301 45 -10
c32.667 -16 58.334 -36 77.001 -60c21.333 -27.333 32 -58.666 32 -93.999c0 -33.333 -5.83301 -66.166 -17.5 -98.499s-27.167 -62.833 -46.5 -91.5c-29.333 -44.667 -67 -86.334 -113 -125.001c-15.333 -12.667 -35.666 -27.667 -60.999 -45l185 4c20 0 47 11.333 81 34
c5.33301 3.33301 12.666 8.66602 21.999 15.999z" />
    <glyph glyph-name="three" unicode="3" horiz-adv-x="416" 
d="M352 528c0 -40.667 -18.001 -80.333 -54.001 -119c-12 -12.667 -30 -28 -54 -46c22.667 -20 39.334 -35.667 50.001 -47c34 -35.333 51 -62 51 -80c0 -95.333 -21 -162.666 -63 -201.999c-34 -32 -84 -48 -150 -48h-14c-17.333 0 -29.833 0.833008 -37.5 2.5
s-18.834 5.83398 -33.501 12.501s-22 19 -22 37c0 8 2.83301 15.833 8.5 23.5s13.834 11.5 24.501 11.5c15.333 0 29.333 -6.33301 42 -19c16.667 -16 25.667 -24.333 27 -25c11.333 -7.33301 27.333 -11 48 -11c16 0 35.333 10 58 30c29.333 26 44 58 44 96
c0 68 -29.333 119.333 -88 154c-19.333 11.333 -49 22 -89 32c36 14.667 62.667 27.667 80 39c54 35.333 81 74.666 81 117.999c0 29.333 -4 49.666 -12 60.999c-13.333 19.333 -40.666 29 -81.999 29c-15.333 0 -39 -10.667 -71 -32
c-10.667 -6.66699 -25.334 -17.334 -44.001 -32.001l-5 7c12 25.333 23.667 44 35 56c35.333 37.333 81.333 56 138 56c31.333 0 60.333 -9.33301 87 -28c30 -21.333 45 -46.666 45 -75.999z" />
    <glyph glyph-name="four" unicode="4" horiz-adv-x="416" 
d="M404 164l-64.001 -0.00195312v-64v-88l-32 2c-7.33301 0 -14.166 -1.16699 -20.499 -3.5s-12.166 -3.83301 -17.499 -4.5c0.666992 8.66699 1 16.667 1 24c0 24.667 -0.333008 48.334 -1 71.001s-1.33398 43.667 -2.00098 63l-164 -2h-98
c0.666992 5.33301 1.16699 12.333 1.5 21s0.833008 16 1.5 22c0 4.66699 -0.333008 9.66699 -1 15c12.667 15.333 42 60.333 88 135l117 194l59 99l60 4l-2 -92l4 -324h66c-0.666992 -6 -0.5 -15.667 0.5 -29s2.16699 -27.666 3.5 -42.999zM271.999 571.998l-212 -340l208 4
z" />
    <glyph glyph-name="five" unicode="5" horiz-adv-x="543" 
d="M438 214c0 -60 -21.002 -109.333 -63.002 -148s-99 -58 -171 -58c-46 0 -80.333 2.33301 -103 7c-43.333 8.66699 -65 26.334 -65 53.001c0 8 5.83301 18.833 17.5 32.5s23.167 18.834 34.5 15.501c14.667 -4.66699 29.667 -19.334 45 -44.001
c13.333 -21.333 30.333 -32 51 -32c3.33301 0 10 -0.333008 20 -1s17 -1 21 -1c36 0 64.333 7 85 21c30.667 20.667 46 55.667 46 105c0 44 -17 85.667 -51 125c-50 58 -126.333 87 -229 87c4 9.33301 10.667 31 20 65c4.66699 16 8.66699 29 12 39
c4.66699 0 15.334 25.333 32.001 76s26 76 28 76h264l-32 -84h-224c-6 -4.66699 -14.333 -23.334 -25 -56.001l-15 -48c16.667 0 42.667 -4.33301 78 -13c60.667 -14.667 109.334 -36 146.001 -64c52 -39.333 78 -90.333 78 -153z" />
    <glyph glyph-name="six" unicode="6" horiz-adv-x="405" 
d="M352 622c-23.333 -8 -42.333 -15.667 -57 -23c-44.667 -22 -81.334 -49.167 -110.001 -81.5s-52 -74.5 -70 -126.5c-14.667 -42.667 -21 -67.334 -19 -74.001c16 13.333 29.333 23 40 29c32.667 19.333 63.667 29 93 29c20 0 39 -4.66699 57 -14
s34.667 -24.666 50 -45.999c7.33301 -10 13.833 -26.833 19.5 -50.5s8.5 -49.5 8.5 -77.5c0 -28.667 -3.66699 -54.5 -11 -77.5s-19.666 -42.167 -36.999 -57.5c-38 -34.667 -81 -52 -129 -52c-36.667 0 -70.334 11.667 -101.001 35s-49.334 45 -56.001 65s-10 60 -10 120
c0 45.333 4 88.333 12 129s20 83 36 127c6.66699 18 25.834 42.333 57.501 73s58.834 51.667 81.501 63s53.667 20 93 26c12.667 2 30 4 52 6v-22zM276 260c-6.66699 14.667 -18.833 26.6689 -36.5 36.002s-37.167 14 -58.5 14c-14.667 0 -28 -2.33301 -40 -7
c-20 -8.66699 -35.167 -22.5 -45.5 -41.5s-15.5 -40.5 -15.5 -64.5c0 -20 3 -39.667 9 -59c10.667 -32.667 27.167 -58.334 49.5 -77.001s49.833 -28 82.5 -28c26 0 45.667 12 59 36c11.333 20.667 17 48 17 82c0 41.333 -7 77.666 -21 108.999z" />
    <glyph glyph-name="seven" unicode="7" horiz-adv-x="510" 
d="M468 630c1.33301 -2.66699 -10.335 -27.665 -35.002 -74.998c-15.333 -29.333 -24.666 -48.333 -27.999 -57c-8.66699 -22.667 -15.334 -38.667 -20.001 -48c-7.33301 -13.333 -12.666 -23.333 -15.999 -30l-48 -101l-74 -151l-73 -143h-44l50 102l40 80l54 112l30 64
l27.5 57.5l28 60.5c9.66699 20.667 20.5 41.667 32.5 63c-8 0.666992 -14.667 1 -20 1c-40 2 -70.667 3 -92 3c-12.667 0 -31 -0.666992 -55 -2s-40.333 -2 -49 -2c-27.333 0 -54 -7.33301 -80 -22l-61 -49c-3.33301 -1.33301 -5.66602 -0.333008 -6.99902 3
c-0.666992 1.33301 10.333 24.166 33 68.499s35 67.166 37 68.499s11 2 27 2c10 0 20 -0.166992 30 -0.5s20.333 -0.5 31 -0.5l118 2l113 -4h36.5c9 0 13.833 -0.666992 14.5 -2z" />
    <glyph glyph-name="eight" unicode="8" horiz-adv-x="446" 
d="M413 137c0 -36.667 -17.667 -68.333 -53 -95c-31.333 -23.333 -64 -35 -98 -35c-84.667 0 -145.667 13.333 -183 40c-32 22.667 -48 55 -48 97c0 38.667 21 81 63 127c14 14.667 35 33.667 63 57c-25.333 23.333 -44.333 42.333 -57 57c-38.667 45.333 -58 85 -58 119
c0 40.667 18.667 75.5 56 104.5s77 43.5 119 43.5c54 0 96 -7.33301 126 -22c42 -20.667 63 -54.334 63 -101.001c0 -42 -22 -83.333 -66 -124c-14.667 -13.333 -37 -29.666 -67 -48.999l45 -40c30 -27.333 49.667 -47.333 59 -60c16 -22 26 -39.5 30 -52.5
s6 -35.167 6 -66.5zM348 529.001c0 23.333 -8 44.334 -24 63.001c-18 20.667 -41 31 -69 31c-32 0 -59.667 -8 -83 -24c-31.333 -22 -47 -55 -47 -99c2 -18.667 21 -45.667 57 -81c12 -11.333 30.333 -27.333 55 -48c24.667 15.333 43 28.666 55 39.999
c37.333 36 56 75.333 56 118zM319 162.002c0 31.333 -21.333 65.333 -64 102c-14 12 -35.667 27.333 -65 46c-17.333 -23.333 -30.333 -41.333 -39 -54c-26.667 -39.333 -40 -66 -40 -80c0 -50 10.667 -84.667 32 -104c16 -14.667 41.333 -22 76 -22
c36 0 61.667 9.33301 77 28s23 46.667 23 84z" />
    <glyph glyph-name="nine" unicode="9" horiz-adv-x="405" 
d="M370 428c0 -45.333 -4 -88.333 -12 -129s-20 -83 -36 -127c-6.66699 -18 -25.834 -42.333 -57.501 -73s-58.834 -51.667 -81.501 -63s-53.667 -20 -93 -26c-12.667 -2 -30 -4 -52 -6v22c23.333 8 42.333 15.667 57 23c44.667 22 81.334 49.167 110.001 81.5
s52 74.5 70 126.5c14.667 42.667 21 67.334 19 74.001c-16 -13.333 -29.333 -23 -40 -29c-32.667 -19.333 -63.667 -29 -93 -29c-20 0 -39 4.66699 -57 14s-34.667 24.666 -50 45.999c-7.33301 10 -13.833 26.833 -19.5 50.5s-8.5 49.5 -8.5 77.5
c0 28.667 3.66699 54.5 11 77.5s19.666 42.167 36.999 57.5c38 34.667 81 52 129 52c36.667 0 70.334 -11.667 101.001 -35s49.334 -45 56.001 -65s10 -60 10 -120zM301 510c-10.667 32.667 -27.168 58.332 -49.501 76.999s-49.833 28 -82.5 28
c-26 0 -45.167 -11.167 -57.5 -33.5s-18.5 -50.5 -18.5 -84.5c0 -41.333 7 -77.666 21 -108.999c6.66699 -14.667 18.834 -26.667 36.501 -36s37.167 -14 58.5 -14c14.667 0 28 2.33301 40 7c20 8.66699 35.167 22.5 45.5 41.5s15.5 40.5 15.5 64.5c0 20 -3 39.667 -9 59z
" />
    <glyph glyph-name="colon" unicode=":" horiz-adv-x="210" 
d="M155 405c-9.33301 -14 -23 -21 -41 -21c-10.667 0 -19.667 2.66699 -27 8c-14 9.33301 -21 23 -21 41c0 10 3 19 9 27c9.33301 14 23 21 41 21c10 0 19 -3 27 -9c14 -10 21 -23.333 21 -40c0 -10 -3 -19 -9 -27zM150 25c-9.33301 -14 -23 -21 -41 -21
c-10.667 0 -19.667 2.66699 -27 8c-14 9.33301 -21 23 -21 41c0 10 3 19 9 27c9.33301 14 23 21 41 21c10 0 19 -3 27 -9c14 -10 21 -23.333 21 -40c0 -10 -3 -19 -9 -27z" />
    <glyph glyph-name="semicolon" unicode=";" horiz-adv-x="198" 
d="M153 315c-12 -14 -27.333 -20.999 -46 -20.999c-15.333 0 -29 5 -41 15c-14 12 -21 27 -21 45c0 15.333 5.5 29.5 16.5 42.5s25.5 19.5 43.5 19.5c15.333 0 29 -5 41 -15c14.667 -12.667 22 -28.334 22 -47.001c0 -14 -5 -27 -15 -39zM179 4.00098
c-2.66699 -16 -3.99902 -24.3311 -3.99902 -24.998c-3.33301 -12.667 -10.5 -24.5 -21.5 -35.5s-30.5 -18.167 -58.5 -21.5c-4.66699 0 -11 -0.666992 -19 -2v10c9.33301 0.666992 16.666 1.66699 21.999 3c16.667 4.66699 28.667 13.334 36 26.001
c11.333 17.333 17 34 17 50c0 5.33301 -1 11 -3 17l-3 11l-7 -3c-5.33301 -3.33301 -13.666 -5 -24.999 -5c-14.667 0 -27 3.66699 -37 11c-16.667 12 -25 26.667 -25 44c0 10.667 2.66699 20.667 8 30s12.666 16.333 21.999 21s19 7 29 7c14 0 26.167 -3.16699 36.5 -9.5
s18.333 -16.833 24 -31.5s8.5 -27.334 8.5 -38.001c0 -4 -0.666992 -7.33301 -2 -10c-2 -2.66699 -1.83301 -9.83398 0.5 -21.501s2.83301 -20.834 1.5 -27.501z" />
    <glyph glyph-name="less" unicode="&#x3c;" horiz-adv-x="340" 
d="M280 572l-200 -240l192 -256v-64l-252 320l260 316v-76z" />
    <glyph glyph-name="equal" unicode="=" horiz-adv-x="440" 
d="M410 405h-375v45h375v-45zM410 250h-375v45h375v-45z" />
    <glyph glyph-name="greater" unicode="&#x3e;" horiz-adv-x="340" 
d="M308 344l-252 -320v64l192 256l-200 240v76z" />
    <glyph glyph-name="question" unicode="?" horiz-adv-x="437" 
d="M414 491c0 -27.333 -4.16699 -54.167 -12.5 -80.5s-20.166 -48.166 -35.499 -65.499l-76 -88c-19.333 -18.667 -35.666 -38.667 -48.999 -60c-17.333 -27.333 -26 -51.666 -26 -72.999h-28c0 7.33301 0.166992 15.833 0.5 25.5s1.83301 17.667 4.5 24s29 45.833 79 118.5
c31.333 45.333 47 105.666 47 180.999c0 50 -5.33301 86 -16 108c-14 28.667 -40.333 43 -79 43c-33.333 0 -65.333 -10 -96 -30c-35.333 -22.667 -53 -50 -53 -82c0 -9.33301 7 -17.333 21 -24c34.667 -16.667 54.334 -38 59.001 -64
c1.33301 -6.66699 -2.33398 -15.834 -11.001 -27.501s-18.334 -19.834 -29.001 -24.501c-6 -2.66699 -14 -4 -24 -4h-16c-14 0 -28.167 17.833 -42.5 53.5s-21.5 61.834 -21.5 78.501c0 42 17 77.333 51 106c28.667 24 67.667 42 117 54c12 2.66699 22.167 4.66699 30.5 6
s17.166 2 26.499 2c14.667 0 30.334 -2.33301 47.001 -7c41.333 -12 73.666 -32.167 96.999 -60.5s35 -64.833 35 -109.5zM239 3.99902c-9.33301 -12 -21.666 -18 -36.999 -18c-10.667 0 -19.667 3.33301 -27 10c-12 9.33301 -18 21.666 -18 36.999
c0 10.667 3.33301 19.667 10 27c9.33301 12 21.666 18 36.999 18c10.667 0 19.667 -3.33301 27 -10c12 -9.33301 18 -21.666 18 -36.999c0 -10.667 -3.33301 -19.667 -10 -27z" />
    <glyph glyph-name="at" unicode="@" horiz-adv-x="915" 
d="M887 56l-33.998 -49.0039c-26.667 -36 -52.667 -67.667 -78 -95c-34.667 -37.333 -63.667 -59.666 -87 -66.999c-40.667 -13.333 -96.167 -26.666 -166.5 -39.999s-118.166 -20 -143.499 -20c-94.667 0 -171.334 31.333 -230.001 94
c-44 47.333 -76.667 112.666 -98 195.999c-14.667 58 -22 113 -22 165c0 49.333 5.33301 95.333 16 138c8.66699 34 22.5 71.333 41.5 112l59 123.5c20.333 41.667 60.333 77.334 120 107.001s117.5 44.5 173.5 44.5c52 0 81.333 -1.33301 88 -4l72 -36
c48 -19.333 91.333 -57 130 -113c36 -52 64.333 -114.333 85 -187c6.66699 -24.667 11.667 -47.167 15 -67.5s5 -42.833 5 -67.5c0 -68.667 -16.333 -131.667 -49 -189c-35.333 -62 -77.666 -93 -126.999 -93l-9 -2c-3.33301 0 -9 -0.333008 -17 -1s-14.333 -1 -19 -1
s-11.667 0.666992 -21 2c-36.667 6 -66.667 18.333 -90 37c-25.333 20.667 -41 47.667 -47 81c-12 -16.667 -29.333 -35.334 -52 -56.001c-27.333 -24.667 -47.5 -38.167 -60.5 -40.5s-24.5 -3.5 -34.5 -3.5c-18 0 -33.333 4.33301 -46 13s-24.167 25 -34.5 49
s-17.666 45.167 -21.999 63.5s-6.5 36.833 -6.5 55.5c0 13.333 1.33301 31 4 53c5.33301 40.667 8 62.667 8 66c3.33301 32 18.666 68.333 45.999 109c30.667 46.667 62 73 94 79c14 2.66699 23 4.16699 27 4.5s11.333 0.5 22 0.5c43.333 0 75.333 -12 96 -36
c6.66699 -8 13 -20.333 19 -37l47 79l15 -3c22 -5.33301 38.333 -10.666 49 -15.999c-33.333 -98 -54 -160.333 -62 -187c-31.333 -103.333 -47 -175 -47 -215c0 -8.66699 0.333008 -14.667 1 -18c3.33301 -19.333 13.666 -33 30.999 -41c13.333 -6 30 -9 50 -9
c5.33301 0 10.666 0.166992 15.999 0.5s10 0.833008 14 1.5c46 0 84.333 29.667 115 89c26.667 51.333 40 105.666 40 162.999c0 42.667 -13.667 97.334 -41 164.001c-31.333 76.667 -71.333 140.334 -120 191.001c-58.667 61.333 -121.667 92 -189 92
c-108 0 -196 -59.333 -264 -178c-57.333 -100 -86 -207.333 -86 -322c0 -87.333 13 -160.666 39 -219.999c29.333 -67.333 78 -122.333 146 -165c18.667 -12 39.667 -20.833 63 -26.5s49 -8.5 77 -8.5c34.667 0 71.667 4.5 111 13.5s76.5 20.667 111.5 35
s73.167 39.833 114.5 76.5c29.333 26 59.666 57.333 90.999 94l37 46zM481.002 285.996l15.999 97.999c0 13.333 -1.83301 25.333 -5.5 36s-10.167 21.334 -19.5 32.001c-13.333 14.667 -23.666 24.667 -30.999 30c-12 8.66699 -24.333 13 -37 13
c-4 0 -7.33301 -0.333008 -10 -1c-41.333 -7.33301 -72 -36.666 -92 -87.999c-16 -40.667 -24 -92.334 -24 -155.001c0 -36 3.16699 -72.667 9.5 -110s25.5 -56 57.5 -56c10.667 0 23.667 2 39 6c24.667 6.66699 45.667 29.667 63 69c14.667 33.333 26 75.333 34 126z" />
    <glyph glyph-name="A" unicode="A" horiz-adv-x="610" 
d="M585 5l-190 -0.000976562v11c6.66699 1.33301 11.667 2.66602 15 3.99902c10 5.33301 15 15.333 15 30l-23 88c-7.33301 26.667 -18 60 -32 100c-2 6.66699 -5.33301 15.667 -10 27c-15.333 0 -30.666 -0.166992 -45.999 -0.5s-34 -0.5 -56 -0.5l-43 1l-9 -20
c-7.33301 -16.667 -12 -28.334 -14 -35.001c-5.33301 -20.667 -10.333 -37.667 -15 -51c-6.66699 -18.667 -13.5 -35.167 -20.5 -49.5s-13.5 -28.5 -19.5 -42.5l-7 -17c0 -14 5.66699 -24 17 -30c3.33301 -1.33301 9.33301 -2.66602 18 -3.99902v-11h-140v11
c10 -0.666992 17.667 -0.666992 23 0c17.333 4 29.666 15.333 36.999 34l23 61l45 126c4 12 11 29 21 51l36 84l33 93l24 96c9.33301 27.333 18 48.333 26 63c1.33301 2.66699 3.66602 6.33398 6.99902 11.001h46l20 -50l28 -72c6.66699 -18 12.334 -34 17.001 -48
c2 -5.33301 7.33301 -25.666 16 -60.999c1.33301 -6.66699 5 -19.334 11 -38.001l45 -151l27 -89l20 -76c2 -14 11.667 -24 29 -30c5.33301 -1.33301 14 -2.66602 26 -3.99902v-11zM355 294.999l-22.001 83l-33 112c-4.66699 -14 -8 -25 -10 -33l-20 -61
c-5.33301 -16 -13.666 -37.667 -24.999 -65c-3.33301 -8.66699 -8.33301 -20.667 -15 -36c13.333 0 26.833 -0.166992 40.5 -0.5s30.5 -0.5 50.5 -0.5z" />
    <glyph glyph-name="B" unicode="B" horiz-adv-x="600" 
d="M551 163c0 -30 -9.33203 -58.668 -27.999 -86.001c-4 -6 -9 -11.667 -15 -17c-2 -1.33301 -8.33301 -6.33301 -19 -15l-21 -14.5c-7.33301 -5 -15 -8.83301 -23 -11.5c-31.333 -12.667 -81 -19 -149 -19h-281v16h23c23.333 0 41 8 53 24c6.66699 11.333 10 33 10 65
l1 111c0 18 1 47.667 3 89s3 71.666 3 90.999c0 24.667 -0.666992 43.834 -2 57.501s-3 25.834 -5 36.501c0 38 -4.33301 61.667 -13 71c-12.667 12.667 -29.334 19 -50.001 19h-29v16c24 1.33301 50.667 2.33301 80 3s57.666 1 84.999 1l99 -4c22 0 42.833 -1 62.5 -3
s37.5 -4.83301 53.5 -8.5s27.333 -6.5 34 -8.5s14.667 -6 24 -12c8 -4 15.667 -9.33301 23 -16c5.33301 -4.66699 11.666 -11 18.999 -19c23.333 -27.333 35 -58.333 35 -93c0 -30 -9 -56.5 -27 -79.5s-45 -40.5 -81 -52.5c42.667 -9.33301 73.334 -23.333 92.001 -42
c10 -10 17.333 -18 22 -24c7.33301 -9.33301 12.333 -17.666 15 -24.999s4.33398 -15.333 5.00098 -24s1 -17.334 1 -26.001zM431.001 439.999c0 10.667 -1.66797 21.998 -5.00098 33.998c-6 20.667 -18.333 39 -37 55c-27.333 24.667 -68.666 37 -123.999 37
c-29.333 0 -56 -3 -80 -9l7 -56c0 -19.333 -0.333008 -39.666 -1 -60.999l-2 -62l-4 -50l37 -5l46 -2c10.667 0 21.167 1 31.5 3l29.5 5.5c9.33301 1.66699 16.5 2.66699 21.5 3s9.5 1.5 13.5 3.5c22 8.66699 38.667 22.334 50 41.001s17 39.667 17 63zM449 155.997
c0 23.333 -6.33301 45.334 -19 66.001c-11.333 20.667 -31.666 37.667 -60.999 51c-2.66699 1.33301 -7.5 2.33301 -14.5 3s-12.167 1.66699 -15.5 3c-22 6 -33.667 9 -35 9c-13.333 2.66699 -27 4 -41 4l-46 -1c-14 0 -23.833 -0.333008 -29.5 -1s-11.5 -1.66699 -17.5 -3
c1.33301 -4.66699 2 -8.33398 2 -11.001c3.33301 -19.333 5 -38.333 5 -57c0 -14 -0.666992 -27 -2 -39c-4.66699 -42.667 -7 -64.667 -7 -66c0 -22 0.166992 -36.167 0.5 -42.5s1.16602 -12.166 2.49902 -17.499c14.667 -3.33301 34 -7 58 -11s43 -6 57 -6
c28.667 0 52.667 2.16699 72 6.5s36 12.166 50 23.499c27.333 24 41 53.667 41 89z" />
    <glyph glyph-name="C" unicode="C" horiz-adv-x="590" 
d="M563 148c-28 -42.667 -60.666 -74.9971 -97.999 -96.9971s-81.333 -33 -132 -33c-11.333 0 -22 0.833008 -32 2.5s-31.167 6.83398 -63.5 15.501s-63.5 23 -93.5 43s-54.667 45.333 -74 76c-28 45.333 -42 95.666 -42 150.999c0 42 2.83301 78.167 8.5 108.5
s16.834 57.166 33.501 80.499c6.66699 9.33301 17.167 18.666 31.5 27.999l33.5 22l44 27.5c15.333 9.66699 31 17.334 47 23.001s31 10 45 13s29.667 4.5 47 4.5c11.333 0 23.833 -0.166992 37.5 -0.5s27.167 -1.5 40.5 -3.5c3.33301 0 15.166 -4.33301 35.499 -13
s33.5 -13 39.5 -13h14c1.33301 0.666992 3 4 5 10c2.66699 4.66699 6 12.334 10 23.001c0 1.33301 0.666992 3.33301 2 6h15l10 -140h-13c-8 12 -15 21.333 -21 28c-38.667 42 -86 63 -142 63c-14.667 0 -27.834 -0.833008 -39.501 -2.5s-25.167 -5.83398 -40.5 -12.501
c-8.66699 -4 -23 -12.167 -43 -24.5s-37.5 -27 -52.5 -44s-26.833 -36.833 -35.5 -59.5c-5.33301 -14.667 -8.83301 -32 -10.5 -52s-2.5 -42.667 -2.5 -68c0 -28 2.5 -55 7.5 -81s13.5 -49 25.5 -69c18 -30 41.833 -54.5 71.5 -73.5s62.167 -28.5 97.5 -28.5
c5.33301 -0.666992 10 -1 14 -1h13c22.667 0 41 2.16699 55 6.5s29.333 11.166 46 20.499s33.667 21 51 35c12 9.33301 27.333 22.666 46 39.999z" />
    <glyph glyph-name="D" unicode="D" horiz-adv-x="648" 
d="M621 299c0 -19.333 -2.3291 -36.334 -6.99609 -51.001s-12.667 -32.334 -24 -53.001c-16.667 -30 -34.334 -54.333 -53.001 -73c-22.667 -22.667 -50 -41.667 -82 -57c-54.667 -25.333 -83.667 -38.666 -87 -39.999c-21.333 -7.33301 -41.666 -11 -60.999 -11h-192h-111
l2 18c11.333 0 23.666 0.333008 36.999 1s24.166 3.66699 32.499 9l23.5 15c5.33301 4.66699 10.666 12.667 15.999 24c2.66699 22 4.33398 40.667 5.00098 56c3.33301 46 5 90.333 5 133c0 22 -2.5 54 -7.5 96s-7.5 70 -7.5 84l5 121c-18.667 14 -37.334 24.333 -56.001 31
c-6.66699 2 -20.334 4.66699 -41.001 8c-3.33301 0 -8 0.666992 -14 2v17h111c13.333 -1.33301 28 -2.33301 44 -3s31.333 -1 46 -1c16.667 0 34 0.333008 52 1s34.667 1.66699 50 3c37.333 0 70.5 -5.16699 99.5 -15.5s58.5 -26.5 88.5 -48.5
c21.333 -16 40.5 -35.667 57.5 -59s31.167 -48.666 42.5 -75.999c17.333 -42 26 -85.667 26 -131zM534.004 298.999c0 18 -3.16699 37.334 -9.5 58.001s-14.666 42 -24.999 64l-31.5 67c-13.333 24 -29.333 43 -48 57c-14 10.667 -27.333 19.5 -40 26.5
s-26.834 13 -42.501 18s-31.5 7.5 -47.5 7.5c-9.33301 0 -23.833 -1.16699 -43.5 -3.5s-33.167 -3.5 -40.5 -3.5l-6 -70c0 -54.667 -0.333008 -100.667 -1 -138c-2.66699 -148 -4 -223.667 -4 -227c0 -26 1.66699 -49.667 5 -71c0.666992 -7.33301 2.66699 -16.333 6 -27
c18 0 35.167 1.16699 51.5 3.5s35.5 7.16602 57.5 14.499c38 12.667 68.333 25.334 91 38.001c28 15.333 51.167 34.666 69.5 57.999s31.833 43.333 40.5 60c12 23.333 18 46 18 68z" />
    <glyph glyph-name="E" unicode="E" horiz-adv-x="565" 
d="M551 166l-41.9912 -152.001c-4 1.33301 -7.33301 2.33301 -10 3c-20 5.33301 -43 8 -69 8c-13.333 0 -31.333 -1 -54 -3c-53.333 -4.66699 -87 -7 -101 -7c-9.33301 0 -24.833 0.833008 -46.5 2.5s-32.834 2.5 -33.501 2.5l-94 -6h-80v18
c5.33301 0 13.666 0.333008 24.999 1s22 5 32 13c5.33301 4 10.666 11.667 15.999 23c1.33301 3.33301 3.66602 8.33301 6.99902 15c-0.666992 6.66699 -1 12.667 -1 18c-3.33301 42 -5 81.333 -5 118c0 10 0.833008 27.667 2.5 53s2.5 39.333 2.5 42
c0 24.667 -0.833008 54 -2.5 88s-2.5 53 -2.5 57l6 125c-2.66699 6 -4.66699 10.333 -6 13c-5.33301 9.33301 -11.333 16.5 -18 21.5s-18 8.5 -34 10.5c-5.33301 0 -12.666 0.333008 -21.999 1v20h80c14.667 0.666992 26.667 1.33398 36 2.00098c66.667 4.66699 111 7 133 7
c39.333 0 86 -1.33301 140 -4c19.333 -0.666992 45 -2.33398 77 -5.00098l6 -112h-6c-3.33301 12 -6.33301 21 -9 27c-8 18.667 -17.333 31.667 -28 39c-6.66699 4 -16 7.66699 -28 11c-4 0.666992 -9.66699 1.66699 -17 3l-65 1l-137 -1
c-2.66699 -22.667 -4.66699 -40.667 -6 -54c-4.66699 -46 -7 -79.333 -7 -100c0 -15.333 2 -34 6 -56c1.33301 -7.33301 3.66602 -17.666 6.99902 -30.999c7.33301 1.33301 13.333 2 18 2c29.333 3.33301 52.333 5 69 5c12.667 0 24.667 -0.666992 36 -2s22 -3 32 -5
c7.33301 -1.33301 13.166 -1.16602 17.499 0.500977s9.16602 6.83398 14.499 15.501c2 2.66699 5.66699 16.667 11 42c0.666992 4 2 9.66699 4 17h12v-75v-48v-79h-12l-3 29c-3.33301 20 -7.33301 32.667 -12 38s-10.167 8.5 -16.5 9.5l-15.5 2.5h-155
c1.33301 -19.333 2.83301 -42.333 4.5 -69s2.5 -47 2.5 -61c0 -20.667 -0.666992 -40.334 -2 -59.001s-3 -36.334 -5 -53.001c1.33301 -3.33301 3.16602 -6.5 5.49902 -9.5s5.16602 -6.16699 8.49902 -9.5c5.33301 -8 14.666 -12 27.999 -12l100 -2l72 2l29.5 2
c9.66699 0.666992 17.5 2 23.5 4s19.667 19.667 41 53l30 50h10z" />
    <glyph glyph-name="F" unicode="F" horiz-adv-x="511" 
d="M493 539l-5.99414 -0.00292969c-3.33301 12 -6.33301 21 -9 27c-8 18.667 -17.333 31.667 -28 39c-6.66699 4 -16 7.66699 -28 11c-4 0.666992 -9.66699 1.66699 -17 3l-110 1l-92 -1l2 -54v-90v-60l-2 -43h24c59.333 2 90.333 3 93 3l38 -3
c7.33301 -1.33301 13.166 -1.16602 17.499 0.500977s9.16602 6.83398 14.499 15.501c2 2.66699 5.66699 16.667 11 42c0.666992 4 2 9.66699 4 17h12v-75v-48v-79h-12l-3 29c-3.33301 20 -7.33301 32.667 -12 38s-10.167 8.5 -16.5 9.5s-14 2 -23 3s-21.667 2.16699 -38 3.5
s-32.166 2 -47.499 2c-16 0 -32 -1 -48 -3c-3.33301 0 -8 -1 -14 -3l2 -64c0 -5.33301 -0.833008 -13.333 -2.5 -24s-2.5 -17.667 -2.5 -21v-75l3 -52c1.33301 -3.33301 3.16602 -6.5 5.49902 -9.5s4.66602 -5.83301 6.99902 -8.5s7.33301 -6.5 15 -11.5
s15.667 -9.33301 24 -13s21.833 -7.5 40.5 -11.5c2.66699 -0.666992 7 -1.33398 13 -2.00098v-18c-22.667 2.66699 -41.334 4.33398 -56.001 5.00098s-32.667 1 -54 1h-18c-20 0 -40.333 -1 -61 -3c-4 0 -10 -1 -18 -3h-80v18c5.33301 0 13.666 0.333008 24.999 1
s22 5 32 13c5.33301 4 10.666 11.667 15.999 23c1.33301 3.33301 3.66602 8.33301 6.99902 15l-1 111c0 14.667 -0.833008 35.834 -2.5 63.501s-2.5 44.834 -2.5 51.501c0 24 0.833008 54.5 2.5 91.5s2.5 56.5 2.5 58.5v73.5c0 19.667 0.333008 36.834 1 51.501
c-2.66699 6 -4.66699 10.333 -6 13c-5.33301 9.33301 -11.333 16.5 -18 21.5s-18 8.5 -34 10.5c-5.33301 0 -12.666 0.333008 -21.999 1v20h80c11.333 3.33301 21 5.66602 29 6.99902c24 4.66699 47.333 7 70 7c15.333 0 35.833 -0.833008 61.5 -2.5s40.167 -2.5 43.5 -2.5
c32.667 0 71.667 -1.33301 117 -4c16 -0.666992 37.667 -2.33398 65 -5.00098z" />
    <glyph glyph-name="G" unicode="G" horiz-adv-x="590" 
d="M592 330c-15.333 -2 -27.501 -4.16602 -36.501 -6.49902s-13.5 -9.5 -13.5 -21.5l6 -210c-34 -32.667 -66 -53.667 -96 -63c-24 -7.33301 -63.667 -11 -119 -11c-11.333 0 -22 0.833008 -32 2.5s-31.167 6.83398 -63.5 15.501s-63.5 23 -93.5 43s-54.667 45.333 -74 76
c-28 45.333 -42 95.666 -42 150.999c0 42 2.83301 78.167 8.5 108.5s16.834 57.166 33.501 80.499c8 10.667 18 22.334 30 35.001s24 22.834 36 30.501s25.833 14 41.5 19l48 16c16.333 5.66699 31.5 10 45.5 13s29.667 4.5 47 4.5c11.333 0 23.833 -0.166992 37.5 -0.5
s27.167 -1.5 40.5 -3.5c3.33301 0 15.166 -4.33301 35.499 -13s33.5 -13 39.5 -13h14c1.33301 0.666992 3 4 5 10c2.66699 4.66699 6 12.334 10 23.001c0 1.33301 0.666992 3.33301 2 6h15c2 -6 3.33301 -11 4 -15c6 -24.667 9 -43.667 9 -57
c0 -23.333 -0.166992 -38.833 -0.5 -46.5s-1.16602 -14.834 -2.49902 -21.501h-13c-8 12 -15 21.333 -21 28c-38.667 42 -86 63 -142 63c-14.667 0 -27.834 -0.833008 -39.501 -2.5s-25.167 -5.83398 -40.5 -12.501c-8.66699 -4 -22.334 -11.667 -41.001 -23
c-37.333 -23.333 -64 -56.666 -80 -99.999c-5.33301 -14.667 -8.83301 -32 -10.5 -52s-2.5 -42.667 -2.5 -68c0 -28 2.5 -55 7.5 -81s13.5 -49 25.5 -69c16.667 -28 37 -47.833 61 -59.5s55 -17.5 93 -17.5c5.33301 -0.666992 10 -1 14 -1h13c22.667 0 41 2.16699 55 6.5
s30.333 11.5 49 21.5c2.66699 1.33301 4.33398 13.166 5.00098 35.499s1 50.833 1 85.5v14v11v26.5c0 7 -0.666992 15.167 -2 24.5s-7.66602 15.333 -18.999 18c-16 1.33301 -28 2.66602 -36 3.99902l2 12l86 2l100 -2v-16z" />
    <glyph glyph-name="H" unicode="H" horiz-adv-x="518" 
d="M508 643l-1.00098 -18.9941c-19.333 -0.666992 -35.166 -1.5 -47.499 -2.5s-19.166 -6.5 -20.499 -16.5l-1 -90c0 -12.667 -0.166992 -25.834 -0.5 -39.501s-0.5 -27.834 -0.5 -42.501v-11v-67c0 -22 0.333008 -43.667 1 -65l-1 -130l2 -99
c0 -12.667 3.16699 -21.334 9.5 -26.001s14.833 -7 25.5 -7c5.33301 0 9.16602 0.166992 11.499 0.5s4.83301 1.16602 7.5 2.49902l2 -20l-96 -3l-69 2l-3 21c6 -2 10.333 -3 13 -3c10 0 17.167 3.83301 21.5 11.5s6.5 17.5 6.5 29.5v96c0 10 0.833008 23 2.5 39
s2.5 26.333 2.5 31c0 22 -0.5 38.167 -1.5 48.5s-2.5 18.5 -4.5 24.5h-158h-58l-2 -106l2 -133c0 -18.667 11 -31.334 33 -38.001c7.33301 -2 18.333 -3.66699 33 -5v-20c-20.667 0 -47 -0.333008 -79 -1s-58.333 -1 -79 -1l-56 1l-2 18c1.33301 0 4 -0.333008 8 -1
s7.66699 -1 11 -1c20 0 34.333 4.33301 43 13s13 20.334 13 35.001l2 156v160l1 101v105c0 14.667 -7 24.334 -21 29.001c-6 2 -13 3 -21 3h-8c-2 0 -4 -0.333008 -6 -1v18h124h66v-18c-6.66699 0.666992 -12 1 -16 1c-12.667 0 -23.5 -2.16699 -32.5 -6.5
s-13.5 -12.833 -13.5 -25.5l2 -111c0 -29.333 -0.333008 -55.5 -1 -78.5s-2 -45.167 -4 -66.5l67 1h84l65 -1l5 79c0 11.333 0.333008 25.666 1 42.999s1.66699 36.666 3 57.999c0 13.333 -1.66699 33.666 -5 60.999c0 4 -0.666992 10 -2 18
c0 11.333 -8.33301 19.333 -25 24c-6.66699 2 -17.667 4.33301 -33 7v17h35z" />
    <glyph glyph-name="I" unicode="I" horiz-adv-x="300" 
d="M282 34l-0.99707 -17.998c-2.66699 0 -9 0.333008 -19 1s-19.333 1 -28 1l-49 -3l-84 1l-21 -1l-65 1v17l41 7c14.667 2 23 3.66699 25 5c10 6.66699 15 20.334 15 41.001c0 7.33301 -0.166992 14.666 -0.5 21.999s-0.5 15.666 -0.5 24.999v13l2 105l-2 102l2 44
c0 10 -0.166992 19.833 -0.5 29.5s-0.5 19.167 -0.5 28.5l-1 85l-6 26c-4 14 -9.33301 23.333 -16 28s-16.834 8 -30.501 10s-23.167 4 -28.5 6l2 16l44 -1l65 3l77 -1l77 -1l2 -16l-67 -15l-19 -13c-4 -6 -7 -11 -9 -15c-6 -12 -9 -22 -9 -30v-47l2 -72l-4 -42
c0 -6 0.333008 -12.333 1 -19s1 -12.667 1 -18l-1 -69l1 -40l3 -139c4 -12.667 8.66699 -22.334 14 -29.001c2 -2.66699 6.66699 -6.5 14 -11.5s16.166 -9 26.499 -12s22.166 -4.5 35.499 -4.5h12z" />
    <glyph glyph-name="J" unicode="J" horiz-adv-x="440" 
d="M418 610l-14.5 0.00390625c-5.66699 0 -12.167 -0.833008 -19.5 -2.5s-13.666 -3.33398 -18.999 -5.00098s-10 -4.16699 -14 -7.5s-8.33301 -8 -13 -14l-7 -10.5c-3.33301 -5 -6 -9.5 -8 -13.5c-6 -12 -9 -22 -9 -30v-47l2 -72l-4 -42l-1 -34l-7 -94
c0 -26.667 -1.33301 -50.667 -4 -72s-5.66699 -36.5 -9 -45.5s-7.83301 -17 -13.5 -24s-12.5 -13.833 -20.5 -20.5c-3.33301 -3.33301 -9 -7.5 -17 -12.5s-14.333 -9.5 -19 -13.5s-9 -7 -13 -9c-11.333 -6.66699 -22 -11.167 -32 -13.5s-20 -3.5 -30 -3.5h-15
c-7.33301 1.33301 -13.333 2.16602 -18 2.49902s-12.167 1.33301 -22.5 3s-19.5 3.5 -27.5 5.5c-23.333 6.66699 -36.833 15.667 -40.5 27s-6.16699 19.666 -7.5 24.999s-2 11.666 -2 18.999c0 15.333 5.83301 28.333 17.5 39s26.5 15 44.5 13c14 0 26.667 -6.66699 38 -20
l14 -34c6 -12 11.667 -21.5 17 -28.5s10.333 -9.5 15 -7.5c10.667 4.66699 18.5 9.16699 23.5 13.5s9.16699 11.166 12.5 20.499c8 22.667 12 47.334 12 74.001l3 83l6 76v16l1 11l2 40c0 10 -0.166992 19.833 -0.5 29.5s-0.5 19.167 -0.5 28.5v50l-1 35l-6 26
c-4 14 -9 23.167 -15 27.5s-20.333 8 -43 11s-36.334 5.16699 -41.001 6.5l2 16l33 1l35 -3l65 3c11.333 0 29 -0.833008 53 -2.5s37 -2.5 39 -2.5l77 -1z" />
    <glyph glyph-name="K" unicode="K" horiz-adv-x="592" 
d="M569 608c-9.33301 -0.666992 -17 -1.33301 -23 -2c-17.333 -3.33301 -32.333 -9 -45 -17c-5.33301 -3.33301 -15.666 -12.666 -30.999 -27.999c-10.667 -9.33301 -18.334 -16.333 -23.001 -21l-59 -64l-52 -53l-18 -18l-38 -37.5
c-17.333 -17 -30.666 -30.833 -39.999 -41.5c3.33301 -4.66699 6 -8.66699 8 -12l22 -30c2 -2.66699 8.33301 -9.66699 19 -21c6.66699 -7.33301 13.667 -15.666 21 -24.999l46 -58l34 -46c2.66699 -4.66699 4.66699 -8.33398 6 -11.001c6 -10 11.833 -18.5 17.5 -25.5
l17.5 -21.5c2.66699 -2.66699 7.66699 -7.33398 15 -14.001c16.667 -13.333 31.167 -22 43.5 -26s31.5 -6 57.5 -6l-1 -20c-3.33301 -0.666992 -9.66602 -0.333984 -18.999 0.999023s-15.333 2 -18 2c-11.333 -0.666992 -20.333 -1 -27 -1
c-2.66699 0 -9.33398 0.666992 -20.001 2l-157 1l1 17c14 2.66699 23.167 5.16699 27.5 7.5s7.16602 4.16602 8.49902 5.49902s3.33301 5 6 11c1.33301 2.66699 1 7.33398 -1 14.001s-3.66699 11.834 -5 15.501l-4 11.5c-3.33301 9.33301 -6.16602 15.833 -8.49902 19.5
s-6.16602 8.16699 -11.499 13.5c-10 11.333 -16.833 19.666 -20.5 24.999s-8.16699 11 -13.5 17l-16 18l-54 68l-17 21.5c-4 5 -7.66699 10.5 -11 16.5l-1 -71c-0.666992 -2.66699 -1 -6.66699 -1 -12c0 -4 0.666992 -10.333 2 -19s2 -16 2 -22l-2 -42v-15
c0 -12 0.5 -20.667 1.5 -26s4.5 -11.666 10.5 -18.999c1.33301 -2 3.66602 -6 6.99902 -12s7.33301 -10.667 12 -14s10 -5.83301 16 -7.5s13.333 -3.16699 22 -4.5l1 -13l-214 1l1 17c3.33301 1.33301 7.33301 2 12 2h11c12 0 19.667 1 23 3
c12 4.66699 19.5 9.66699 22.5 15s5.66699 12 8 20s3.83301 13.667 4.5 17c6.66699 21.333 10 43.333 10 66l1 63l-1 107l-2 90v106l2 45v19c0 13.333 -1.16699 24 -3.5 32s-7.16602 14.667 -14.499 20c-8.66699 4.66699 -14.334 7.66699 -17.001 9
c-5.33301 3.33301 -15.333 5 -30 5c-8.66699 1.33301 -15.334 2.66602 -20.001 3.99902v15h26l60 -2l38 2l42 2h31.5c7.66699 0 13.167 0.333008 16.5 1l1 -18c-2.66699 0 -6 -0.166992 -10 -0.5s-9 -2.5 -15 -6.5c-10.667 -6.66699 -19 -16.334 -25 -29.001
c-2.66699 -5.33301 -4.33398 -12.166 -5.00098 -20.499s-1 -18.166 -1 -29.499l2 -61v-45l-4 -102l12 -10c3.33301 4 6 7.33301 8 10c15.333 18 32 35 50 51l75 69c28.667 26 48.334 44.333 59.001 55c17.333 17.333 26 28.666 26 33.999c1.33301 6.66699 2 11.334 2 14.001
c0 7.33301 -6 13 -18 17v14l57 1h92v-13z" />
    <glyph glyph-name="L" unicode="L" horiz-adv-x="575" 
d="M540 5l-6.99609 -0.99707c-0.666992 6.66699 -6.16699 11 -16.5 13s-18.5 3 -24.5 3h-11l-26 -1l-58 -2l-86 -2l-46 -1h-14h-12h-31.5c-9 0 -16.5 0.333008 -22.5 1l-84 1l-21 -1l-65 1v17l41 7c14.667 2 23 3.66699 25 5c10 6.66699 15 20.334 15 41.001
c0 7.33301 -0.166992 14.666 -0.5 21.999s-0.5 15.666 -0.5 24.999v13l2 105l-2 102l2 44c0 10 -0.166992 19.833 -0.5 29.5s-0.5 19.167 -0.5 28.5l-1 85l-6 26c-4 14 -9.33301 23.333 -16 28s-16.834 8 -30.501 10s-23.167 4 -28.5 6l2 16l44 -1l65 3l77 -1l77 -1l2 -16
l-67 -15l-19 -13c-4 -6 -7 -11 -9 -15c-6 -12 -9 -22 -9 -30v-47l2 -72l-4 -42c0 -6 0.333008 -12.333 1 -19s1 -12.667 1 -18l-1 -69l1 -40l3 -113c4.66699 -14.667 9.16699 -25.334 13.5 -32.001s9.83301 -12.334 16.5 -17.001c2.66699 -2 8 -4.16699 16 -6.5
s18.333 -3.5 31 -3.5c10.667 -2 20.167 -3.33301 28.5 -4s20.166 -1 35.499 -1h38l56 2l58 1c20 0 34.333 2.66699 43 8s13 11 13 17l10 1l1 -23v-15l-2 -18c-0.666992 -6 -0.833984 -10.5 -0.500977 -13.5s1.16602 -5.5 2.49902 -7.5z" />
    <glyph glyph-name="M" unicode="M" horiz-adv-x="872" 
d="M822 645c-11.333 0 -20.1758 -0.998047 -26.5088 -2.99805s-15.5 -7.66699 -27.5 -17c-5.33301 -3.33301 -10 -8 -14 -14l-16 -24l-10 -32c0 -1.33301 0.333008 -5.16602 1 -11.499s1 -13.166 1 -20.499v-62c0 -11.333 -0.333008 -31.333 -1 -60s-1 -51 -1 -67
c0 -8 -0.666992 -19.833 -2 -35.5s-2 -25.5 -2 -29.5c0 -13.333 0.666992 -30.5 2 -51.5s2 -34.833 2 -41.5v-75c1.33301 -28 5.33301 -46.333 12 -55s13.334 -14.334 20.001 -17.001s16.667 -5 30 -7v-17h-250v21c2 -0.666992 8.33301 -1 19 -1
c14 0 25.667 0.833008 35 2.5s16.833 5.33398 22.5 11.001s8.5 16.834 8.5 33.501c0 6.66699 -0.166992 14 -0.5 22s-0.5 16.667 -0.5 26c2.66699 23.333 4 49.333 4 78v79c0 10.667 -0.666992 26.167 -2 46.5s-2 31.833 -2 34.5c0 14.667 0.666992 36 2 64s2 47 2 57
c0 26.667 -0.666992 44.667 -2 54c-3.33301 14.667 -6 28 -8 40c-8.66699 -36 -20.667 -74 -36 -114l-38 -97c-2 -6 -5.16699 -12.5 -9.5 -19.5s-7.83301 -14.167 -10.5 -21.5l-39 -106c-4 -10.667 -16.333 -35.334 -37 -74.001c-12 -22 -20 -38.333 -24 -49l-22 -54h-18
c-8 25.333 -15.5 46.666 -22.5 63.999l-20 51c-6.33301 16.667 -14.166 32.667 -23.499 48s-16.666 30 -21.999 44l-36 93c-4 10 -15.333 35.667 -34 77c-10 21.333 -17.333 38.666 -22 51.999l-36 102c0 -3.33301 -0.666992 -15.666 -2 -36.999s-2 -37.666 -2 -48.999
s0.666992 -36 2 -74s2 -59 2 -63c0 -12.667 -0.666992 -32.834 -2 -60.501s-2 -42.834 -2 -45.501c0 -26 1 -55.333 3 -88s3 -58.334 3 -77.001c0 -9.33301 1.33301 -17 4 -23s8 -12 16 -18c4 -2.66699 8.66699 -4.66699 14 -6s10.666 -2 15.999 -2h11v-18l-218 1l2 19h15
c7.33301 0 13.333 1.66699 18 5s9.16699 7.5 13.5 12.5s7.83301 11 10.5 18s4.66699 23.167 6 48.5s2 43.333 2 54v77l2 115l6 165c0 56 -2.66699 90.333 -8 103s-12.166 21.667 -20.499 27s-20.166 9.33301 -35.499 12l-1 13c12.667 0 25.334 -0.166992 38.001 -0.5
s25.334 -0.5 38.001 -0.5c10.667 0 24.334 -0.333008 41.001 -1s28.667 -1 36 -1l57 -3l7 -28.5c1.33301 -5.66699 4.33301 -14.5 9 -26.5l27 -82c2.66699 -8 9.33398 -31.333 20.001 -70c3.33301 -12.667 7.33301 -25.334 12 -38.001l32 -85l36 -89
c8 -19.333 13.333 -31.666 16 -36.999l18 -36l29.5 49c9.66699 16.667 17.834 35.334 24.501 56.001l18.5 53.5l30.5 89.5l39 119c13.333 35.333 31.333 74.666 54 117.999c8 1.33301 18.333 2.66602 31 3.99902s23 2 31 2s19 -0.333008 33 -1s25.333 -1 34 -1l87 -4v-20z
" />
    <glyph glyph-name="N" unicode="N" horiz-adv-x="600" 
d="M580 672c-14.667 -2 -24.8369 -4.16797 -30.5039 -6.50098s-12.167 -8.16602 -19.5 -17.499c-4.66699 -6.66699 -7.83398 -17.5 -9.50098 -32.5s-2.5 -35.167 -2.5 -60.5v-37l-2 -93l2 -65l1 -63l1 -64v-62c0 -8 -0.166992 -14.333 -0.5 -19s-0.833008 -9 -1.5 -13
l-1 -53v-60h-27h-39l-59 88c-12.667 20 -21.667 34.667 -27 44c-8 13.333 -12.333 20.666 -13 21.999l-32 58c-1.33301 4 -4.66602 9.66699 -9.99902 17s-10 15 -14 23l-18 35c-5.33301 10.667 -12.833 24.667 -22.5 42s-19.667 37 -30 59s-20.166 44.667 -29.499 68
c-6 14.667 -18 36.667 -36 66c-5.33301 9.33301 -13.333 22 -24 38l-1 -103l-2 -137l-2 -103l1 -70l3 -98c0 -9.33301 1.33301 -17 4 -23s8 -12 16 -18c4 -2.66699 8.66699 -4.66699 14 -6s10.666 -2 15.999 -2h11v-18l-183 1l2 19h15c7.33301 0 13.333 1.66699 18 5
s9.16699 7.5 13.5 12.5s7.83301 11 10.5 18s4.66699 23.167 6 48.5s2 43.333 2 54v76l2 116l2 167v18v15v13c0 12 -0.166992 23.5 -0.5 34.5s-1.5 17.833 -3.5 20.5c-5.33301 12.667 -12.166 21.667 -20.499 27s-20.166 9.33301 -35.499 12l-1 13l76 -1
c10.667 0 24.334 -0.333008 41.001 -1s28.667 -1 36 -1l47 -4c4.66699 -10 9.5 -19.667 14.5 -29s9.16699 -18.666 12.5 -27.999s9.66602 -22.666 18.999 -39.999l20 -36l52 -98l38 -78c6 -13.333 13 -27.333 21 -42l11 -19l25 -43l11 -1c0.666992 2.66699 1 13 1 31v40v48
v66v29c0 9.33301 0.333008 18.333 1 27c0 5.33301 -0.166992 12.833 -0.5 22.5s-0.5 21.167 -0.5 34.5v17c0 7.33301 0.166992 15.166 0.5 23.499s0.833008 17.166 1.5 26.499c0 12.667 -2.66699 21.834 -8 27.501s-13.666 9.5 -24.999 11.5s-22.666 3 -33.999 3
c-10 0 -16 -0.333008 -18 -1v21l215 5v-17z" />
    <glyph glyph-name="O" unicode="O" horiz-adv-x="695" 
d="M657 327c0 -42 -10.332 -82.9961 -30.999 -122.996c-17.333 -33.333 -42.666 -66.333 -75.999 -99c-29.333 -28.667 -62.5 -50.834 -99.5 -66.501s-77.167 -23.5 -120.5 -23.5c-30.667 0 -59.167 2.16699 -85.5 6.5s-49.5 12.166 -69.5 23.499
c-24.667 14 -47.667 34.333 -69 61c-17.333 21.333 -34.333 47.666 -51 78.999c-25.333 47.333 -38 100 -38 158c0 27.333 4.33301 54.333 13 81s20.334 53.667 35.001 81c18 34 36.667 62.667 56 86c23.333 27.333 49.666 48.666 78.999 63.999
c20.667 10.667 42.5 19.167 65.5 25.5s46.167 9.5 69.5 9.5c35.333 0 68.666 -4.5 99.999 -13.5s59.833 -23 85.5 -42s48.5 -43.167 68.5 -72.5c17.333 -25.333 32.666 -56 45.999 -92c8 -22 13.667 -44.667 17 -68s5 -48.333 5 -75zM500.001 515.004
c-24 38.667 -41.998 64.334 -53.998 77.001c-30.667 32 -66 48 -106 48c-52.667 0 -102.334 -39 -149.001 -117c-40.667 -67.333 -61 -125 -61 -173c0 -56 3 -94.5 9 -115.5s18.5 -44.5 37.5 -70.5s39.167 -46.333 60.5 -61c27.333 -18.667 56.666 -28 87.999 -28
c43.333 0 79.333 8.66699 108 26c17.333 10.667 34.666 27 51.999 49c20 25.333 34 53.166 42 83.499s12 63.5 12 99.5c0 38.667 -4.16699 75 -12.5 109s-17.166 58.333 -26.499 73z" />
    <glyph glyph-name="P" unicode="P" horiz-adv-x="435" 
d="M408 502c0 -38 -5.16504 -67.501 -15.498 -88.501s-27.166 -37.5 -50.499 -49.5c-13.333 -7.33301 -32 -13.166 -56 -17.499s-45.333 -6.5 -64 -6.5c-6.66699 0 -13.334 -0.166992 -20.001 -0.5s-13.334 -0.5 -20.001 -0.5c-8.66699 0 -18 0.5 -28 1.5
s-20.667 4.83301 -32 11.5c1.33301 -16 2.66602 -33.667 3.99902 -53s2 -37.666 2 -54.999l2 -160c0 -15.333 6.66699 -28 20 -38c2.66699 -2 6.5 -4 11.5 -6s8.83301 -3.66699 11.5 -5c10.667 -4.66699 21 -7 31 -7v-12h-200v9l1 9c10.667 2 18 4 22 6l16 12
c2 2.66699 3.33301 8.5 4 17.5s1 14.167 1 15.5v31v208c0 42 0.5 77.333 1.5 106s2.5 62.667 4.5 102v43v13c0 27.333 -1.16699 43 -3.5 47l-7 11.5c-2.33301 3.66699 -5.16602 6.5 -8.49902 8.5c-6 4 -11.833 6.33301 -17.5 7s-9.83398 1.33398 -12.501 2.00098v6v7h47
l88 -2c9.33301 0 21 0.333008 35 1s24 1 30 1c14 0 24 -0.333008 30 -1s16.333 -3.33398 31 -8.00098c23.333 -7.33301 44.166 -16.333 62.499 -27s31.333 -21.5 39 -32.5s16.334 -28.833 26.001 -53.5s14.5 -42.334 14.5 -53.001zM310.002 533.999
c-6 18.667 -15.168 36.165 -27.501 52.498s-24.666 27.5 -36.999 33.5s-25 10.5 -38 13.5s-23.5 4.5 -31.5 4.5c-10 0.666992 -18.667 -0.166016 -26 -2.49902s-16.666 -3.5 -27.999 -3.5l-4 -76c0 -8 0.666992 -24.5 2 -49.5s2 -38.5 2 -40.5l-2 -90c10 0 19.333 -1 28 -3
s14.667 -3 18 -3c4.66699 0 9.66699 0.333008 15 1s13.666 2.5 24.999 5.5s24 6.16699 38 9.5c14.667 4.66699 28.667 15.334 42 32.001c10.667 14 18.167 28 22.5 42s6.5 28 6.5 42c0 13.333 -1.66699 24 -5 32z" />
    <glyph glyph-name="Q" unicode="Q" horiz-adv-x="695" 
d="M657 327c0 -42 -10.3359 -82.9961 -31.0029 -122.996c-17.333 -33.333 -42.666 -66.333 -75.999 -99c-22 -22 -43.667 -39.333 -65 -52s-47 -21.667 -77 -27c6.66699 -22.667 14.667 -42.834 24 -60.501s23.333 -32.834 42 -45.501c24.667 -16 52 -28 82 -36
c20 -5.33301 40.333 -9.33301 61 -12c6.66699 -0.666992 15 -1.33398 25 -2.00098v-22c-54 0 -112.667 6 -176 18c-23.333 5.33301 -45.5 13.5 -66.5 24.5s-40.167 24.833 -57.5 41.5l-52 52l-24.5 24c-8.33301 8 -18.166 16 -29.499 24c-8.66699 2.66699 -24.667 11 -48 25
s-40 25 -50 33c-26 20.667 -42.333 34.667 -49 42c-9.33301 10 -20.666 27.667 -33.999 53c-25.333 47.333 -38 100 -38 158c0 27.333 4.33301 54.333 13 81s20.334 53.667 35.001 81c18 34 36.667 62.667 56 86c23.333 27.333 49.666 48.666 78.999 63.999
c40.667 20.667 86.667 31 138 31c36.667 0 70 -4 100 -12s57.5 -21.167 82.5 -39.5s47.167 -41.833 66.5 -70.5c16.667 -25.333 31.667 -55.333 45 -90c16.667 -46.667 25 -95.667 25 -147zM537.997 338.004c0 38.667 -3.99707 73.999 -11.9971 105.999
s-16.667 55.667 -26 71c-24 38.667 -42 64.334 -54 77.001c-30.667 32 -66 48 -106 48c-52.667 0 -102.334 -39 -149.001 -117c-40.667 -67.333 -61 -125 -61 -173c0 -56 3 -94.5 9 -115.5s18.5 -44.5 37.5 -70.5s39.167 -46.333 60.5 -61
c27.333 -18.667 56.666 -28 87.999 -28c43.333 0 79.333 8.66699 108 26c17.333 10.667 35.166 27.667 53.499 51s31.5 51.333 39.5 84s12 66.667 12 102z" />
    <glyph glyph-name="R" unicode="R" horiz-adv-x="637" 
d="M599 0l-197.999 1.99805l-38 80l-44 94l-36 71l-49 97l-63 -2l-1 -68l-1 -98l2 -127c0 -6.66699 3 -13 9 -19s12.5 -9.83301 19.5 -11.5s18.5 -2.5 34.5 -2.5c1.33301 -0.666992 1.66602 -2.66699 0.999023 -6s-1 -6 -1 -8h-218v17c12 0 22.667 4 32 12
c6.66699 4.66699 11.5 8.16699 14.5 10.5s4.5 5.16602 4.5 8.49902c0 18.667 1.33301 62.667 4 132s4 123 4 161l1 88v88l1 71c-9.33301 21.333 -19.666 35.5 -30.999 42.5s-24.333 10.5 -39 10.5v14c0 4.66699 0.666992 7.66699 2 9l42 2l74 -1l41 -1l62 1
c20 0 39.333 -0.166992 58 -0.5s41.834 -2.66602 69.501 -6.99902s52.167 -15.833 73.5 -34.5c13.333 -12 23.5 -27.167 30.5 -45.5s10.5 -40.5 10.5 -66.5c0 -16 -6 -35.333 -18 -58s-25.667 -41 -41 -55c-9.33301 -8 -23.333 -16.333 -42 -25
c-12 -5.33301 -22.667 -9.66602 -32 -12.999c-3.33301 -1.33301 -8.33301 -2.66602 -15 -3.99902l65 -128l43 -86c8.66699 -16 17 -30.667 25 -44c16 -27.333 25 -42 27 -44c8.66699 -7.33301 18 -13.5 28 -18.5s21 -8.5 33 -10.5c7.33301 -2 17.166 -3.66699 29.499 -5
s21.166 -2 26.499 -2v-20zM375.001 503.998c0 37.333 -11.6709 67.002 -35.0039 89.002c-5.33301 5.33301 -12.666 10.666 -21.999 15.999s-18.166 9.16602 -26.499 11.499s-16.833 4.16602 -25.5 5.49902s-17.667 2 -27 2c-18 0 -31.667 -1 -41 -3
c-9.33301 -3.33301 -18.666 -6.33301 -27.999 -9l-1 -30l2 -69v-54c0 -11.333 -0.166992 -22.333 -0.5 -33s-0.5 -21 -0.5 -31c0 -12 0.333008 -20.667 1 -26c4.66699 0 9 -0.166992 13 -0.5s9 -0.5 15 -0.5c14.667 0 28.834 0.833008 42.501 2.5s25.167 4.16699 34.5 7.5
c16.667 7.33301 31 15 43 23c18 12 31.833 26.333 41.5 43s14.5 35.334 14.5 56.001z" />
    <glyph glyph-name="S" unicode="S" horiz-adv-x="440" 
d="M435 171c0 -42 -20.9951 -82.6621 -62.9951 -121.995s-85.667 -59 -131 -59c-25.333 0 -47.5 1.16699 -66.5 3.5s-35.5 6.5 -49.5 12.5c-9.33301 3.33301 -22.666 11 -39.999 23c-8.66699 6 -15 9.66699 -19 11c-5.33301 -4.66699 -9.33301 -7 -12 -7
c-2.66699 -5.33301 -5 -9.66602 -7 -12.999l-5 -24l-19 -3v47v49c0 12 -0.333008 24.167 -1 36.5l-2 36.5c0 10.667 0.5 20.834 1.5 30.501s2.5 19.167 4.5 28.5c0.666992 -1.33301 3.83398 -1.16602 9.50098 0.500977s8.83398 -0.5 9.50098 -6.5s1.5 -14 2.5 -24
s2.66699 -19.833 5 -29.5s4.16602 -16.167 5.49902 -19.5l12 -26c8 -20.667 21 -38.334 39 -53.001c12 -10 31.5 -19.667 58.5 -29s52.5 -14 76.5 -14c35.333 0 65 21 89 63c6.66699 12 11.667 23 15 33s5 20.667 5 32c0 12.667 -3.33301 28.167 -10 46.5
s-21.667 35.166 -45 50.499l-34 22c-12 9.33301 -25.833 18.666 -41.5 27.999s-31.5 17.666 -47.5 24.999c-17.333 9.33301 -37.833 21.666 -61.5 36.999s-39.834 27.666 -48.501 36.999c-12.667 13.333 -23.334 29.833 -32.001 49.5s-13 40.5 -13 62.5
c0 14.667 2.83301 32 8.5 52s12.167 36 19.5 48c5.33301 9.33301 12.333 18.333 21 27s18.667 17 30 25c21.333 16 43 27.5 65 34.5s47.667 10.5 77 10.5c10.667 0 24.5 -2.5 41.5 -7.5l55.5 -16.5c8 -1.33301 12.333 -2 13 -2c4 0 7.83301 2 11.5 6s6.5 10.667 8.5 20
c0 1.33301 0.333008 4 1 8c4 -0.666992 7 -0.833984 9 -0.500977s4.33301 1.16602 7 2.49902v-63v-54l1 -35l-2 -73h-15l-16 90c-2 8 -4.83301 16 -8.5 24s-7.5 15.333 -11.5 22c-8.66699 12 -23.334 21 -44.001 27s-41 9 -61 9c-22.667 0 -49.834 -13.833 -81.501 -41.5
s-47.5 -51.5 -47.5 -71.5c0 -28 10.667 -53 32 -75c18 -18.667 45.167 -36.334 81.5 -53.001l80.5 -37c31.333 -14.667 53.166 -27 65.499 -37s24.666 -22.167 36.999 -36.5s20.666 -27.666 24.999 -39.999s7.33301 -25.5 9 -39.5s2.5 -33.333 2.5 -58z" />
    <glyph glyph-name="T" unicode="T" horiz-adv-x="628" 
d="M594 535l-11.999 -2.00293c-1.33301 5.33301 -5.5 14.5 -12.5 27.5s-12.167 20.833 -15.5 23.5c-12.667 11.333 -27 18.333 -43 21s-37.333 4 -64 4l-87 -1l-8 -112c0 -28 0.666992 -64.667 2 -110s2 -80.666 2 -105.999c0 -14 -0.166992 -27.5 -0.5 -40.5
s-0.5 -25.5 -0.5 -37.5c0 -34.667 1.5 -65.667 4.5 -93s9.16699 -46.5 18.5 -57.5s19.833 -17.667 31.5 -20s28.167 -3.5 49.5 -3.5l1 -17l-124 2l-98 -1h-57l-2 15l31 4c7.33301 1.33301 14.166 4.33301 20.499 9s11.666 8.83398 15.999 12.501s8.33301 11.667 12 24
s5.5 27.5 5.5 45.5c0 12.667 0.666992 35.167 2 67.5s2 50.5 2 54.5c0 22 0.333008 56 1 102s1 79.333 1 100l-3 164c-11.333 0 -33.833 0.333008 -67.5 1s-52.834 1 -57.501 1c-12.667 -1.33301 -21 -2.33301 -25 -3c-14 -3.33301 -23.667 -7.66602 -29 -12.999
c-11.333 -11.333 -24.666 -32 -39.999 -62l-14 2l8 120c12.667 1.33301 28.334 2.33301 47.001 3s43 1 73 1l168 -2h132c31.333 0 56.5 -0.333008 75.5 -1s35.167 -1.66699 48.5 -3z" />
    <glyph glyph-name="U" unicode="U" horiz-adv-x="618" 
d="M600 648l-1.00293 -12.9912c-12.667 -2 -22 -3.66699 -28 -5c-19.333 -5.33301 -31.166 -13.333 -35.499 -24s-7.16602 -21.167 -8.49902 -31.5s-2.33301 -18.833 -3 -25.5c-2.66699 -14.667 -4.66699 -31.834 -6 -51.501s-2 -36.167 -2 -49.5v-72
c0 -72.667 -3 -129.834 -9 -171.501s-17.333 -77.5 -34 -107.5c-10.667 -20.667 -23.667 -37.334 -39 -50.001s-36 -23.334 -62 -32.001c-7.33301 -2.66699 -25.5 -5.33398 -54.5 -8.00098s-50.5 -4 -64.5 -4c-43.333 0 -75 5 -95 15c-14 6.66699 -32.667 23.667 -56 51
c-19.333 21.333 -32 43.333 -38 66s-9 50.667 -9 84l-5 157l-2 123l2 93c0 22.667 -7.33301 37.334 -22 44.001c-4.66699 2 -12 3 -22 3l-1 13l60 2c6.66699 0 18 -1 34 -3s28.333 -3 37 -3c15.333 0 29.166 0.166992 41.499 0.5s23.5 0.833008 33.5 1.5l-1 -17
c-8.66699 0 -15.334 -0.333008 -20.001 -1c-30 -4.66699 -45 -16 -45 -34c0 -16 0.666992 -48.333 2 -97s2 -74.667 2 -78c0 -12.667 -0.166992 -25.834 -0.5 -39.501s-0.5 -27.5 -0.5 -41.5c0 -30.667 0.833008 -58.334 2.5 -83.001s4.83398 -49 9.50098 -73
c8.66699 -40 21.334 -70 38.001 -90c20.667 -24 49 -36 85 -36c27.333 0 50.333 3 69 9s35.334 14.667 50.001 26c18.667 14.667 32.667 35.334 42 62.001c3.33301 9.33301 9.33301 34.666 18 75.999c4.66699 20.667 8 40.167 10 58.5s3 34.5 3 48.5
c0 12 -0.333008 27.167 -1 45.5s-1 30.166 -1 35.499c0 11.333 0.333008 28.666 1 51.999s1 40 1 50c0 17.333 -0.666992 32.333 -2 45s-4.5 24.667 -9.5 36s-12.167 18.666 -21.5 21.999s-14.333 5.33301 -15 6v15l50 1l65 2z" />
    <glyph glyph-name="V" unicode="V" horiz-adv-x="750" 
d="M720 635c-6.66699 -4 -15.832 -8.16406 -27.499 -12.4971s-19.834 -9.5 -24.501 -15.5s-12 -20.333 -22 -43c-14 -31.333 -21.333 -48 -22 -50l-21 -57c-8.66699 -22.667 -18.334 -46 -29.001 -70c-7.33301 -20 -12.333 -33.333 -15 -40s-13 -30 -31 -70l-65 -148
c-10.667 -19.333 -22.334 -39.333 -35.001 -60l-44 -70c-5.33301 -7.33301 -9.66602 -11 -12.999 -11c-6.66699 0 -11.667 3 -15 9c-22 41.333 -52.667 108.333 -92 201l-69 168l-21 55.5c-6.66699 18.333 -12 30.5 -16 36.5l-70 144c-14 17.333 -31.333 30 -52 38
c-3.33301 1.33301 -7.66602 2.66602 -12.999 3.99902v16l97 1l149 -1l-4 -16c-9.33301 -3.33301 -16 -6 -20 -8c-14 -7.33301 -21.667 -14 -23 -20c-2 -10.667 3 -33.334 15 -68.001l24 -64c12.667 -34 25.834 -67.333 39.501 -100s25.667 -56.5 36 -71.5
s24.833 -43.167 43.5 -84.5l24 -55c6 10 11 18.667 15 26c23.333 43.333 47.666 92.666 72.999 147.999c4 8.66699 12.667 33 26 73c4.66699 13.333 11 30.333 19 51c15.333 37.333 24 59 26 65c8 21.333 12 37 12 47c0 5.33301 -0.666992 9 -2 11
c-3.33301 7.33301 -15.666 17.333 -36.999 30c-6.66699 4 -17 9.66699 -31 17l1 13c1.33301 -1.33301 9 -2 23 -2h27c9.33301 0 19.333 0.333008 30 1h10c26.667 0 52.667 -0.166992 78 -0.5s40.666 -1.5 45.999 -3.5v-14z" />
    <glyph glyph-name="W" unicode="W" horiz-adv-x="1125" 
d="M1100 631c-6.66699 -4 -15.835 -8.15918 -27.502 -12.4922s-19.834 -9.5 -24.501 -15.5s-13 -18.833 -25 -38.5s-20 -33.834 -24 -42.501l-23 -62c-10.667 -28.667 -21 -54 -31 -76c-4.66699 -13.333 -10.334 -26.666 -17.001 -39.999l-34 -68
c-9.33301 -22 -22.333 -45.333 -39 -70c-25.333 -38.667 -39.333 -60.334 -42 -65.001l-39 -74c-12.667 -24.667 -21.834 -41.167 -27.501 -49.5s-10.167 -12.5 -13.5 -12.5c-6.66699 0 -11.667 3 -15 9c-7.33301 13.333 -16 37.666 -26 72.999
c-12.667 44.667 -24.667 80.334 -36 107.001l-63 150l-10 29l-9.5 23l-6.5 15c-6 -16.667 -14.333 -37.667 -25 -63l-29 -66c-11.333 -26 -23.5 -50.333 -36.5 -73l-38.5 -68l-78 -136c-5.33301 -7.33301 -9.66602 -11 -12.999 -11c-6.66699 0 -11.667 3 -15 9
c-7.33301 13.333 -17 40.333 -29 81c-14.667 49.333 -27.667 87.333 -39 114l-69 168l-21 55.5c-6.66699 18.333 -12 30.5 -16 36.5l-70 144c-14 17.333 -31.333 30 -52 38c-3.33301 1.33301 -7.66602 2.66602 -12.999 3.99902v16l97 1c26.667 0 55.334 -1.33301 86.001 -4
c10.667 -0.666992 25 -2.33398 43 -5.00098l-4 -16c-8 -3.33301 -14 -6 -18 -8c-12.667 -7.33301 -19.667 -14 -21 -20c-2 -10.667 3 -33.334 15 -68.001l24 -64c12.667 -34 25.834 -67.333 39.501 -100s25.667 -56.5 36 -71.5s24.833 -43.167 43.5 -84.5l24 -55
c13.333 19.333 24.333 36 33 50c27.333 44.667 51 88.667 71 132c3.33301 7.33301 10 26 20 56l25 74c-11.333 27.333 -19.666 48 -24.999 62c-10.667 26 -21.334 45.667 -32.001 59c-14 17.333 -31.333 30 -52 38c-3.33301 1.33301 -7.66602 2.66602 -12.999 3.99902v16
l97 1c26.667 0 55.334 -1.33301 86.001 -4c10.667 -0.666992 25 -2.33398 43 -5.00098l-4 -16c-8 -3.33301 -14 -6 -18 -8c-12.667 -7.33301 -19.667 -14 -21 -20c-1.33301 -6.66699 2.66699 -24.334 12 -53.001l27 -78l37 -104.5c12.667 -35.667 23 -59.5 31 -71.5
c12 -18 26.667 -45.333 44 -82l22 -50c15.333 20 27.666 37.333 36.999 52c28.667 43.333 53.334 88 74.001 134c5.33301 11.333 12.5 28.166 21.5 50.499l25.5 65.5c15.333 37.333 24 59 26 65c8 21.333 12 37 12 47c0 5.33301 -0.666992 9 -2 11
c-3.33301 7.33301 -14.333 17.333 -33 30c-6 4 -15 9.66699 -27 17l1 13c1.33301 -1.33301 8 -2 20 -2h24c8.66699 0 18 0.333008 28 1h10c24.667 0 48.167 -0.166992 70.5 -0.5s36.166 -1.5 41.499 -3.5v-14z" />
    <glyph glyph-name="X" unicode="X" horiz-adv-x="876" 
d="M841 67c0 -4 -0.168945 -7.83203 -0.501953 -11.499s-1.16602 -6.83398 -2.49902 -9.50098h-126h-135v18c1.33301 4 10.666 7.33301 27.999 10s26 9.33398 26 20.001c0 6 -10.333 21 -31 45c-17.333 20 -42 46 -74 78l-79 75c-24 22 -43.667 39 -59 51l-129 -111
c-18.667 -16 -35 -32 -49 -48c-21.333 -25.333 -32 -47.333 -32 -66c0 -19.333 14.333 -33.666 43 -42.999c9.33301 -2.66699 24 -5.33398 44 -8.00098v-18l-87 3h-99l-87 3l3 18c4 -2 10 -3 18 -3c12.667 0 24.5 4.16699 35.5 12.5s22.167 20.166 33.5 35.499
c7.33301 9.33301 25.333 28.333 54 57l114 111l105 102c-10.667 10.667 -19 19.334 -25 26.001c-36 39.333 -62.667 71.666 -80 96.999c-5.33301 8 -21.666 27.333 -48.999 58c-30.667 34 -58.5 62.833 -83.5 86.5s-56.167 37.167 -93.5 40.5c-6 0 -13.667 0.333008 -23 1
l-1 22c29.333 0.666992 61.666 1.16699 96.999 1.5s69.333 0.5 102 0.5l132 -3l3 -24h-11c-16.667 0 -31 -1.33301 -43 -4s-18 -8.33398 -18 -17.001c0 -8 8 -23.667 24 -47c14 -20 32 -43.333 54 -70l58 -69l26 -30l28 28c20.667 20.667 39.334 38.334 56.001 53.001
c44.667 40 71 65 79 75c15.333 19.333 23 36.333 23 51c0 3.33301 -4.66699 8 -14 14s-16.666 10.333 -21.999 13c-4.66699 1.33301 -5.5 4.83301 -2.5 10.5s3.83301 9.16699 2.5 10.5h96l153 1v-22c-11.333 -2 -23.666 -4 -36.999 -6s-29 -6 -47 -12
c-29.333 -8 -50.333 -19 -63 -33l-114 -126l-72 -71l-30 -28l207 -222c14 -14.667 32.333 -35 55 -61c17.333 -20 28 -31.667 32 -35c10 -9.33301 26.167 -16.333 48.5 -21s35.166 -7.66699 38.499 -9z" />
    <glyph glyph-name="Y" unicode="Y" horiz-adv-x="635" 
d="M607 634c-6.66699 -2 -14.6689 -5.00391 -24.002 -9.00391c-14.667 -6.66699 -25.667 -14 -33 -22c-14 -14.667 -30 -35.667 -48 -63l-28 -42l-79 -116l-54 -74v-52l-1 -167c0 -17.333 7.33301 -31.666 22 -42.999c10 -7.33301 23.333 -13.666 40 -18.999
c5.33301 -1.33301 12.333 -3.33301 21 -6l2 -18l-90 1l-137 -1h-49v18c18.667 4.66699 32.334 9.33398 41.001 14.001c27.333 14 41 31.667 41 53v92v88l2 52c-5.33301 16.667 -13.666 36 -24.999 58c-14 28 -23 47.333 -27 58c-6.66699 20 -21.667 46.333 -45 79l-59 81
c-9.33301 14 -22 24.333 -38 31c-5.33301 2 -13 4 -23 6l1 12l117 1l103 -1l1 -13l-26 -6c-18 -5.33301 -28.667 -11.333 -32 -18c-4.66699 -9.33301 4 -27.333 26 -54c14.667 -17.333 23 -29 25 -35s19.333 -40 52 -102c13.333 -26 21.333 -45.667 24 -59
c2 0 13.5 12.5 34.5 37.5l61.5 73.5c28.667 37.333 50.334 66.5 65.001 87.5s21 35.5 19 43.5c-2.66699 10.667 -11.334 18 -26.001 22c-2.66699 0.666992 -6.66699 1.33398 -12 2.00098c0 9.33301 0.333008 15.333 1 18l71 2l30 -2l55 1z" />
    <glyph glyph-name="Z" unicode="Z" horiz-adv-x="617" 
d="M583 180c0.666992 -1.33301 -0.99707 -10.6641 -4.99707 -27.9971s-9 -36.666 -15 -57.999s-11.5 -38.333 -16.5 -51s-8.5 -19.667 -10.5 -21s-41.667 -2 -119 -2h-167c-28.667 0 -56.334 -0.166992 -83.001 -0.5s-52.334 -0.5 -77.001 -0.5h-16h-12
c-28.667 0 -44 1 -46 3c-4.66699 7.33301 -7 15.666 -7 24.999c0 3.33301 0.5 6.66602 1.5 9.99902l3 10c1 3.33301 14.167 26 39.5 68l59 95l118 174l62 92l98 122c-15.333 0 -45.166 0.333008 -89.499 1s-73.166 1 -86.499 1c-36 0 -64.833 -0.833008 -86.5 -2.5
s-38.334 -5.5 -50.001 -11.5s-21.167 -18.167 -28.5 -36.5s-14.333 -36.833 -21 -55.5h-16l8.5 87.5c3 30.333 6.5 47.5 10.5 51.5s16.5 6.33301 37.5 7s37.833 1 50.5 1c16 0 32.167 -0.166992 48.5 -0.5s32.5 -0.5 48.5 -0.5h130h136l11.5 -2
c3.66699 -0.666992 7.16699 -2 10.5 -4c-11.333 -28 -27.333 -57.333 -48 -88c-6 -8.66699 -17 -23.334 -33 -44.001l-33 -42l-130 -194c-36.667 -54.667 -62.334 -91 -77.001 -109s-32.667 -41.667 -54 -71l-27 -38c10 1.33301 24.167 2.33301 42.5 3s37.833 1 58.5 1
c27.333 0 60.166 -0.5 98.499 -1.5s79.833 -1.83301 124.5 -2.5c12 -0.666992 21 -1 27 -1c10.667 0 19.667 1.16699 27 3.5s15 6.83301 23 13.5c10.667 10.667 19 19.667 25 27c18 22.667 32.333 46.667 43 72c2 4 4.66699 4.66699 8 2
c0.666992 -0.666992 2 -2.33398 4 -5.00098z" />
    <glyph glyph-name="bracketleft" unicode="[" horiz-adv-x="306" 
d="M264 656l-4 -47.998l-150 -3l2 -189v-424c0 -12.667 0.666992 -34.834 2 -66.501s2 -50.834 2 -57.501h60l68 -4v-32h-112h-92l4 456l5 367l91 1h124z" />
    <glyph glyph-name="backslash" unicode="\" horiz-adv-x="208" 
d="M198 16h-36l-36 200l-52 268c-3.33301 22 -8.33301 46.333 -15 73c-17.333 68 -27 107.667 -29 119l40 -8l20 -76c9.33301 -36 18 -76.667 26 -122l18 -102z" />
    <glyph glyph-name="bracketright" unicode="]" horiz-adv-x="306" 
d="M250 -168l-92 0.000976562h-112v32l68 4h60c0 16.667 0.666992 38.667 2 66s2 46.666 2 57.999v424l2 189l-150 3l-4 48h124l91 -1l5 -367z" />
    <glyph glyph-name="asciicircum" unicode="^" horiz-adv-x="452" 
d="M428 392l-28 0.000976562l-188 256c-27.333 -52.667 -58 -107.334 -92 -164.001l-60 -96h-40l104 172l88 148l96 -144z" />
    <glyph glyph-name="underscore" unicode="_" horiz-adv-x="648" 
d="M653 -167l-1 -33h-652v32z" />
    <glyph glyph-name="grave" unicode="`" 
d="M246 472l-36 -4l-116 156h104z" />
    <glyph glyph-name="a" unicode="a" horiz-adv-x="436" 
d="M407 65c-6 -12.667 -17.9951 -24.8369 -35.9951 -36.5039s-36 -17.5 -54 -17.5c-19.333 0 -33.333 5 -42 15s-16.334 27.667 -23.001 53c-22 -13.333 -39.333 -23.333 -52 -30c-40.667 -20.667 -72.667 -31 -96 -31c-28.667 0 -50.834 11 -66.501 33
s-23.5 48.333 -23.5 79c0 41.333 20.667 80 62 116c30 26 66 47.333 108 64c9.33301 4.66699 23.666 10 42.999 16c3.33301 0.666992 8 2 14 4c1.33301 6 2.5 12.667 3.5 20s1.5 11.333 1.5 12c0 23.333 -5.33301 44 -16 62c-12.667 21.333 -30.334 32 -53.001 32
c-30 0 -52 -8.66699 -66 -26c-10.667 -13.333 -16 -30.666 -16 -51.999v-19c0 -28.667 -11.333 -43 -34 -43c-4.66699 0 -9.66699 0.5 -15 1.5s-10.166 4.83301 -14.499 11.5s-6.5 21.334 -6.5 44.001c0 32.667 13.667 58.334 41 77.001c10.667 7.33301 34 17.666 70 30.999
c13.333 4 24.666 6 33.999 6c12.667 0 28.667 -3.16699 48 -9.5s35.666 -16.166 48.999 -29.499c10.667 -10.667 21.667 -26.667 33 -48c6.66699 -12 11.167 -25.833 13.5 -41.5s3.5 -31.5 3.5 -47.5v-30v-87v-86c1.33301 -7.33301 5.66602 -15.833 12.999 -25.5
s15 -14.5 23 -14.5c4.66699 0 13.334 3 26.001 9c16.667 8 26 12.333 28 13c-1.33301 -2.66699 -1.5 -7.16699 -0.5 -13.5s1.16699 -10.166 0.5 -11.499zM252.005 113.997l-2.00098 97c0 8 -0.166992 20.833 -0.5 38.5s-0.833008 34.5 -1.5 50.5l-19 -6
c-36.667 -15.333 -65.667 -31.333 -87 -48c-40 -31.333 -60 -67.333 -60 -108c0 -22 5 -37.333 15 -46s23.667 -13 41 -13c6.66699 0 14.334 0.666992 23.001 2s17.5 3 26.5 5s25.167 8.66699 48.5 20z" />
    <glyph glyph-name="b" unicode="b" horiz-adv-x="456" 
d="M414 249c2.66699 -13.333 4.00195 -28.332 4.00195 -44.999c0 -33.333 -5 -64.166 -15 -92.499s-21.333 -48.5 -34 -60.5c-22 -20 -43.333 -33.5 -64 -40.5s-49.334 -10.5 -86.001 -10.5c-24.667 0 -56 8.33301 -94 25c-12.667 5.33301 -29.334 14 -50.001 26l4 49
c0 45.333 -0.666992 111.166 -2 197.499s-2 136.166 -2 149.499l1 96c0 4.66699 0.666992 13.834 2 27.501s2 20.834 2 21.501c0 8 -1.33301 13.667 -4 17s-6 5 -10 5c-3.33301 0 -7.33301 -1 -12 -3l-14.5 -6.5c-5 -2.33301 -14.5 -7.83301 -28.5 -16.5l-1 32l66 25
c9.33301 3.33301 21.333 8.33301 36 15c26 11.333 40 16.333 42 15s3 -5 3 -11c0 -4.66699 -0.333008 -10.334 -1 -17.001l-2 -20l-4 -159v-171c12.667 19.333 24.167 34.166 34.5 44.499s21.166 18.666 32.499 24.999s22.5 10.833 33.5 13.5s21.833 4 32.5 4
c32.667 0 61.334 -13.667 86.001 -41c22.667 -25.333 37.667 -56.666 45 -93.999zM336.002 145.001c4.66699 13.333 7 28.001 7 44.001c0 32.667 -9.66699 62 -29 88s-43 39 -71 39c-5.33301 0 -13 -0.833008 -23 -2.5s-20 -6.83398 -30 -15.501l-37 -38v-128v-66
c19.333 -18.667 41 -28 65 -28s47 10 69 30s38.333 45.667 49 77z" />
    <glyph glyph-name="c" unicode="c" horiz-adv-x="381" 
d="M353 136c-2.66699 -10.667 -5.33203 -19.667 -7.99902 -27c-8.66699 -22.667 -20.667 -44.334 -36 -65.001c-12 -16 -30.667 -27.667 -56 -35c-16 -4.66699 -31.333 -7 -46 -7c-20.667 0 -43.167 5.5 -67.5 16.5s-42.5 23.5 -54.5 37.5
c-8.66699 10 -20.834 30.833 -36.501 62.5s-23.5 52.834 -23.5 63.501c0 8.66699 -0.166992 17.334 -0.5 26.001s-0.5 17.334 -0.5 26.001c0 29.333 2.83301 54.666 8.5 75.999s17.167 42 34.5 62c8.66699 10 18.334 18.5 29.001 25.5s27.667 16.5 51 28.5
c6 3.33301 16.5 6.5 31.5 9.5s29.167 4.5 42.5 4.5c14.667 0 27.167 -1.33301 37.5 -4s21.166 -8 32.499 -16c18 -12.667 30.667 -22.667 38 -30c13.333 -13.333 20 -25.333 20 -36c0 -7.33301 -4 -14.5 -12 -21.5s-17.333 -10.5 -28 -10.5s-18 4 -22 12l-20 47
c-10.667 18.667 -25.667 28 -45 28c-6.66699 0 -14.167 -0.833008 -22.5 -2.5s-18.166 -7.16699 -29.499 -16.5c-8.66699 -7.33301 -18.667 -19 -30 -35s-18.333 -28.833 -21 -38.5s-4 -25.834 -4 -48.501v-30c0 -38 8 -74.333 24 -109
c21.333 -46.667 51.666 -70 90.999 -70c8.66699 0 19 1.66699 31 5c28 8 51.667 27 71 57c6 10 13 24.333 21 43v-28z" />
    <glyph glyph-name="d" unicode="d" horiz-adv-x="424" 
d="M423 34c-10 -2 -17.998 -3.33203 -23.998 -3.99902c-16.667 -3.33301 -31.334 -6.66602 -44.001 -9.99902c-6.66699 -1.33301 -14.5 -4.16602 -23.5 -8.49902s-15.167 -7 -18.5 -8s-7 -1.66699 -11 -2s-7.66699 -0.5 -11 -0.5l-2 50
c-13.333 -8.66699 -23.333 -15 -30 -19c-22 -12.667 -37.333 -19 -46 -19c-36 0 -62.667 3.16699 -80 9.5s-37.333 19.833 -60 40.5c-11.333 10.667 -22.333 31 -33 61s-16 61 -16 93v18c0 5.33301 1.33301 14 4 26c7.33301 38 22.5 70 45.5 96s51.5 39 85.5 39
c10.667 0 21.5 -1.33301 32.5 -4s22.5 -7.33398 34.5 -14.001s22.667 -14.667 32 -24s20.666 -24 33.999 -44c1.33301 26 2.33301 54 3 84s1 56.333 1 79v93v15c0 12.667 -1 20.667 -3 24c-8 9.33301 -15.667 14 -23 14l-8 -2c-4 -1.33301 -9.66699 -2.33301 -17 -3l-21 -2
l-3 15c2.66699 4 12 8.66699 28 14l42.5 14.5c12.333 4.33301 25.833 9.83301 40.5 16.5c26 11.333 40 16.333 42 15s3 -5 3 -11c0 -4.66699 -0.333008 -10.334 -1 -17.001l-2 -20c0 -24.667 -1.16699 -57.5 -3.5 -98.5s-3.5 -68.167 -3.5 -81.5
c0 -31.333 -0.5 -65.5 -1.5 -102.5s-1.83301 -77.5 -2.5 -121.5v-123c0 -4.66699 -0.333008 -10.667 -1 -18s-1 -11.333 -1 -12c0 -14.667 3.16699 -24.334 9.5 -29.001s15.5 -7 27.5 -7c6 0 14.333 1.33301 25 4v-16zM289.002 78.001v66v128c-12.667 12 -25 24.333 -37 37
c-11.333 9.33301 -21.833 14.833 -31.5 16.5s-17.5 2.5 -23.5 2.5c-28.667 0 -52.667 -13.833 -72 -41.5s-29 -59.5 -29 -95.5c0 -16 2.33301 -30.667 7 -44c10 -30 25.667 -54 47 -72s44.333 -27 69 -27c26 0 49.333 10 70 30z" />
    <glyph glyph-name="e" unicode="e" horiz-adv-x="381" 
d="M360 141c-2 -6.66699 -3.99902 -12.335 -5.99902 -17.002c-11.333 -28 -26.333 -54.667 -45 -80c-12 -16 -30.667 -27.667 -56 -35c-16 -4.66699 -31.333 -7 -46 -7c-20.667 0 -43.167 5.5 -67.5 16.5s-42.5 23.5 -54.5 37.5c-8.66699 10 -20.834 30.833 -36.501 62.5
s-23.5 52.834 -23.5 63.501c0 8.66699 -0.166992 17.334 -0.5 26.001s-0.5 17.334 -0.5 26.001c0 29.333 2.83301 54.666 8.5 75.999s17.167 42 34.5 62c8.66699 10 18.334 18.5 29.001 25.5s27.667 16.5 51 28.5c6 3.33301 16.5 6.5 31.5 9.5s29.167 4.5 42.5 4.5
c18.667 0 44 -14.667 76 -44c36.667 -34 55 -68 55 -102l1 -23l-256 -1c-0.666992 -4.66699 -1 -10.667 -1 -18v-29c0 -35.333 10.333 -69.333 31 -102c26 -41.333 59.333 -62 100 -62c9.33301 0 20.666 1.66699 33.999 5c28 8 50.667 25.333 68 52
c5.33301 8.66699 11.333 21.667 18 39zM273.001 297.999c0 8 -0.333984 16 -1.00098 24s-3.33398 16.667 -8.00098 26c-8 15.333 -19.667 28 -35 38s-31.333 15 -48 15c-13.333 0 -24.666 -5.33301 -33.999 -16c-1.33301 -2 -7.66602 -10.667 -18.999 -26
c-16.667 -22.667 -27 -43.667 -31 -63z" />
    <glyph glyph-name="f" unicode="f" horiz-adv-x="339" 
d="M412 501c0 -10.667 -3.00195 -18.668 -9.00195 -24.001s-12.667 -8 -20 -8c-14 0 -24.333 6.33301 -31 19c-9.33301 19.333 -16.666 33.333 -21.999 42c-12 18.667 -27 28 -45 28c-3.33301 0 -9 -0.666992 -17 -2c-31.333 -6 -53.333 -26 -66 -60
c-9.33301 -25.333 -14 -62 -14 -110l138 -2v-28l-138 1l-1 -25c0 -37.333 -0.5 -81.833 -1.5 -133.5s-1.5 -79.167 -1.5 -82.5c0 -38.667 18 -65.667 54 -81c12 -4.66699 30.333 -8.33398 55 -11.001v-20c-14.667 0 -31.5 -0.833008 -50.5 -2.5s-33.5 -2.5 -43.5 -2.5
l-100 3l-77 2v18c10.667 -0.666992 19 -0.666992 25 0c38 4.66699 57 23.334 57 56.001v136l4 142h-56l2 30h55l3 48c0 56.667 24.667 99.334 74 128.001c36.667 21.333 75.334 32 116.001 32c6.66699 0 12.667 -0.666992 18 -2c30 -11.333 52 -23 66 -35
c17.333 -15.333 26 -34 26 -56z" />
    <glyph glyph-name="g" unicode="g" horiz-adv-x="514" 
d="M500 416c2 -2 3.00293 -5.00391 3.00293 -9.00391c0 -6 -2.16699 -11.333 -6.5 -16s-9.83301 -7 -16.5 -7c-4.66699 0 -11 0.666992 -19 2s-15 2 -21 2c-6.66699 0 -12.667 -1 -18 -3s-10 -3.66699 -14 -5c3.33301 -5.33301 6 -10.666 8 -15.999
c4.66699 -10.667 7 -20.334 7 -29.001c0 -27.333 -6.5 -52.5 -19.5 -75.5s-30.833 -42.167 -53.5 -57.5c-34.667 -24 -74.334 -36 -119.001 -36c-18 0 -42.333 5.33301 -73 16c-10 3.33301 -24 9 -42 17l-14 -21l-6 -18c-1.33301 -8 -2.33301 -16 -3 -24
c0 -7.33301 1.5 -14.166 4.5 -20.499s8.5 -12.166 16.5 -17.499c16.667 -10.667 43.334 -18 80.001 -22c17.333 -1.33301 29.833 -2.33301 37.5 -3s20.5 -1 38.5 -1c13.333 0 26.666 -0.666992 39.999 -2s31 -3.66602 53 -6.99902c40.667 -6 70.667 -15.333 90 -28
c23.333 -15.333 35 -36.333 35 -63c0 -42.667 -12 -78 -36 -106c-19.333 -21.333 -45 -37.833 -77 -49.5s-67 -17.5 -105 -17.5h-16c-34.667 0 -61.334 0.5 -80.001 1.5s-38.834 4 -60.501 9s-39 10.833 -52 17.5s-22.5 15.334 -28.5 26.001c-8 14 -12 28 -12 42
c0 9.33301 1.5 18 4.5 26s7.83301 16.667 14.5 26c9.33301 12.667 23 26.334 41 41.001l47 36l-16 4c-28.667 5.33301 -47.667 10.333 -57 15c-18 9.33301 -27 25 -27 47c0 23.333 8 45.333 24 66l48 56c-11.333 9.33301 -22.333 24.333 -33 45
c-13.333 26.667 -20 49.667 -20 69c0 49.333 17.667 89.666 53 120.999c32 28 71.667 42 119 42c28 0 56.667 -7 86 -21l71 -35l10 -3c4 -0.666992 7.5 -1.16699 10.5 -1.5s7.16699 -0.5 12.5 -0.5c8 0 16 0.333008 24 1l24 2c18 0 32.333 -5 43 -15zM329.003 334.996
c0 26 -7.99902 51.333 -23.999 76c-20.667 31.333 -47.667 47 -81 47c-30 0 -53 -13.667 -69 -41c-13.333 -22.667 -20 -49.667 -20 -81c0 -34.667 8.66699 -65 26 -91c20 -29.333 45.667 -44 77 -44c14 0 26.667 4.66699 38 14s21.666 22.666 30.999 39.999
c14.667 26.667 22 53.334 22 80.001zM462.004 -63.0039c2.66699 14 -2.99902 25.502 -16.999 34.502s-32 16.333 -54 22s-41.667 9.66699 -59 12s-33 3.5 -47 3.5l-69 1c-5.33301 0 -12.333 -0.166992 -21 -0.5s-18.667 -0.5 -30 -0.5
c-14.667 0 -28.834 -14.333 -42.501 -43s-18.5 -49.334 -14.5 -62.001c2.66699 -10 8 -18.333 16 -25s18.833 -13 32.5 -19s30.5 -10.833 50.5 -14.5s39 -5.5 57 -5.5c16 0 34 1.66699 54 5s40.833 9 62.5 17s39.167 17.667 52.5 29c16 13.333 25.667 28.666 29 45.999z" />
    <glyph glyph-name="h" unicode="h" horiz-adv-x="518" 
d="M520 3l-72.002 0.999023l-121 -3l1 13l20 3c14.667 2.66699 24.334 6 29.001 10s7.83398 11.833 9.50098 23.5s2.5 27.834 2.5 48.501c0 11.333 -0.333008 30.166 -1 56.499s-1 45.833 -1 58.5c0 10.667 0.333008 20.834 1 30.501l2 29.5
c0 16.667 -1.66699 29.334 -5 38.001s-8.66602 17.334 -15.999 26.001c-22.667 27.333 -52 41 -88 41c-28 0 -55.667 -8.33301 -83 -25c-15.333 -9.33301 -27.166 -19.833 -35.499 -31.5s-13.666 -24.334 -15.999 -38.001s-3.5 -27.834 -3.5 -42.501
c0 -7.33301 0.333008 -18.666 1 -33.999s1 -26 1 -32c0 -14 -0.333008 -27.833 -1 -41.5s-1.33398 -26.5 -2.00098 -38.5c0 -12.667 0.333008 -23.334 1 -32.001s2.83398 -18.167 6.50098 -28.5s9.66699 -15.5 18 -15.5h20.5l-2 -20h-188v22
c3.33301 -0.666992 7.5 -1.33398 12.5 -2.00098s8.5 -1 10.5 -1c11.333 0 21 1.5 29 4.5s13.167 8.83301 15.5 17.5s3.5 22.334 3.5 41.001c0 16.667 -0.333008 31.334 -1 44.001s-1.33398 24.667 -2.00098 36c0 50 -0.333008 89 -1 117
c-2.66699 112.667 -4 176.334 -4 191.001c0 6.66699 0.333008 20.5 1 41.5s1 33.833 1 38.5c0 11.333 -0.333008 22.5 -1 33.5s-2 20 -4 27s-5.83301 11.833 -11.5 14.5s-12.5 4 -20.5 4c-7.33301 0 -12.833 -0.166992 -16.5 -0.5s-6.83398 -0.5 -9.50098 -0.5
c0.666992 5.33301 21.667 15.166 63 29.499s63.666 19.833 66.999 16.5c4 -3.33301 6.83301 -25.166 8.5 -65.499s2.5 -88.5 2.5 -144.5v-21v-20v-17v-15v-12v-30c0 -8 -0.333008 -15 -1 -21c14 20.667 23 34.334 27 41.001c8 12 17 22.333 27 31
c18.667 16 39.5 27.5 62.5 34.5s46.167 10.5 69.5 10.5c11.333 0 21.166 -0.5 29.499 -1.5s21 -6.33301 38 -16s28.5 -18.834 34.5 -27.501c10.667 -15.333 18.834 -42 24.501 -80s8.5 -78 8.5 -120v-33.5c0 -11 0.333008 -21.833 1 -32.5
c0 -20.667 1.33301 -40.334 4 -59.001s7 -32.167 13 -40.5s13.167 -12.833 21.5 -13.5s14.833 -1.33398 19.5 -2.00098v-16z" />
    <glyph glyph-name="i" unicode="i" horiz-adv-x="245" 
d="M154 582c2 -5.33301 3 -10.668 3 -16.001c0 -13.333 -6.33301 -24.333 -19 -33c-8 -4 -16 -6 -24 -6c-9.33301 0 -17.333 3 -24 9s-10 13.667 -10 23c0 8 2 15.833 6 23.5s9.83301 12.834 17.5 15.501s13.5 4 17.5 4c16 0 27 -6.66699 33 -20zM221 14.998
l-195.999 2.99805v14l22 9c15.333 8 25 16.667 29 26c1.33301 3.33301 2.33301 10.166 3 20.499s1 16.5 1 18.5c0 6 -0.333008 17.167 -1 33.5s-1 28.833 -1 37.5c0 10.667 0.333008 20.667 1 30l2 28c0 9.33301 -0.666992 18.333 -2 27s-2 17 -2 25v19
c0 12.667 -0.166992 25.167 -0.5 37.5s-2.16602 22 -5.49902 29s-8 10.5 -14 10.5c-4.66699 0 -8.33398 -0.333008 -11.001 -1s-5.33398 -2 -8.00098 -4l-6 19l68 30l57 27c0.666992 -6 1.16699 -12.667 1.5 -20s0.5 -14.666 0.5 -21.999c0 -10 -0.166992 -19.5 -0.5 -28.5
s-0.5 -17.833 -0.5 -26.5v-117v-50.5c0 -18.333 0.333008 -38.166 1 -59.499c0 -20 0.5 -35.5 1.5 -46.5s3.66699 -19.833 8 -26.5s11.333 -11.667 21 -15s20.167 -6.66602 31.5 -9.99902c2.66699 -1.33301 3 -4 1 -8s-2.33301 -7 -1 -9z" />
    <glyph glyph-name="j" unicode="j" horiz-adv-x="266" 
d="M156 560c-9.33301 -10.667 -21.334 -16 -36.001 -16c-10.667 0 -21 4.33301 -31 13s-15 20.334 -15 35.001c0 10.667 4.33301 21 13 31s20.334 15 35.001 15c10.667 0 21 -4.33301 31 -13s15 -20.334 15 -35.001c0 -10.667 -4 -20.667 -12 -30zM183.999 60v-48.999
c0 -83.333 -11.167 -138 -33.5 -164s-55.5 -39 -99.5 -39c-29.333 0 -50.666 1.33301 -63.999 4c-26 5.33301 -40.167 13.333 -42.5 24s-3.5 19.334 -3.5 26.001c0 8.66699 2 15.334 6 20.001c6.66699 8 17 12 31 12c6 0 11.333 -1.33301 16 -4
c1.33301 -0.666992 6 -4.66699 14 -12c0.666992 -0.666992 3.66699 -7.83398 9 -21.501s13.666 -20.5 24.999 -20.5c8 0 15.5 0.833008 22.5 2.5s14.167 4.83398 21.5 9.50098c10.667 7.33301 17.667 17.166 21 29.499s5 26.833 5 43.5v15
c0 21.333 0.833008 49.166 2.5 83.499s2.5 54.5 2.5 60.5l-5 120v56c0 56 -0.5 89.5 -1.5 100.5s-3.5 18.833 -7.5 23.5c-1.33301 1.33301 -5 2 -11 2c-4.66699 0 -14.334 -0.666992 -29.001 -2s-22.334 -2 -23.001 -2c-8 0 -13 1.33301 -15 4
c-4 6.66699 -6 12.334 -6 17.001s2 7 6 7c4.66699 0 22.334 6 53.001 18c64.667 25.333 98 36.666 100 33.999c2.66699 -4 4.33398 -13.333 5.00098 -28s1 -36 1 -64v-12v-11c0 -13.333 -0.166992 -26.333 -0.5 -39s-0.5 -25.334 -0.5 -38.001l1 -96v-110z" />
    <glyph glyph-name="k" unicode="k" horiz-adv-x="509" 
d="M528 18l-226.002 2v16c5.33301 -1.33301 9.33301 -2 12 -2c6.66699 0 13 2 19 6s11 11.333 15 22c2 6 0.666992 13.333 -4 22c-0.666992 0.666992 -14 18 -40 52l-42 56l-40 64c-13.333 18.667 -29.666 36.667 -48.999 54l-1 -26c0 -24 0.5 -48.333 1.5 -73
s2.16699 -47 3.5 -67c0 -22.667 0.5 -39.834 1.5 -51.501s3.5 -20.5 7.5 -26.5c6.66699 -10.667 16 -17.667 28 -21l32 -9c2 -1.33301 1.83301 -4.16602 -0.5 -8.49902s-2.16602 -7.83301 0.500977 -10.5l-218 3v16c10.667 3.33301 18.667 6.33301 24 9
c16.667 8.66699 27.334 18.667 32.001 30c2 4.66699 3.33301 12.834 4 24.501s1 19.167 1 22.5c0 6.66699 -0.333008 18.5 -1 35.5s-1 30.167 -1 39.5v42c0 14 0.333008 27.667 1 41c0 27.333 -0.833008 46.166 -2.5 56.499s-2.5 18.5 -2.5 24.5v15v38
c0 13.333 0.333008 27.333 1 42v40v14c0 34.667 -1.66699 56.334 -5 65.001s-8.66602 13 -15.999 13c-4 0 -7.66699 -0.666992 -11 -2l-10 -4c-2 4.66699 -3.33301 8 -4 10c-2.66699 6.66699 -3.33398 10.334 -2.00098 11.001l75 33c11.333 4.66699 25 11 41 19l22 11
c2 -14 3 -30.333 3 -49c0 -10.667 -0.166992 -20.834 -0.5 -30.501s-0.5 -18.834 -0.5 -27.501v-176l-3 -57c16 12.667 28.333 25.334 37 38.001c13.333 19.333 24.666 34 33.999 44c28.667 27.333 51 49.666 67 66.999s24.333 29.666 25 36.999c2 14 -12 23.667 -42 29
l-22 3v12l156 2c16 1.33301 27.667 2 35 2c8 0 13 -1.33301 15 -4v-16h-16c-27.333 -3.33301 -52 -14.666 -74 -33.999c-18 -15.333 -46.833 -45 -86.5 -89s-65.5 -71 -77.5 -81c7.33301 -12 29 -39 65 -81l139 -163c18 -23.333 40 -39.333 66 -48
c8.66699 -2.66699 20 -4.66699 34 -6v-20z" />
    <glyph glyph-name="l" unicode="l" horiz-adv-x="264" 
d="M246 17l-218.002 2.99902v16c10.667 3.33301 18.667 6.33301 24 9c16.667 8.66699 27.334 18.667 32.001 30c2 4.66699 3.33301 12.834 4 24.501s1 19.167 1 22.5c0 6.66699 -0.333008 18.5 -1 35.5s-1 30.167 -1 39.5c0 28 0.333008 55.167 1 81.5l2 77.5
c0 24.667 -0.666992 41.5 -2 50.5s-2.33301 25.667 -3 50s-1 45.5 -1 63.5v40v14c0 34.667 -1.66699 56.334 -5 65.001s-8.66602 13 -15.999 13c-4 0 -7.66699 -0.666992 -11 -2l-10 -4c-2 4.66699 -3.33301 8 -4 10c-2.66699 6.66699 -3.33398 10.334 -2.00098 11.001
l75 33c11.333 4.66699 25 11 41 19l22 11c2 -14 3 -30.333 3 -49c0 -10.667 -0.166992 -20.834 -0.5 -30.501s-0.5 -18.834 -0.5 -27.501v-240l-4 -99c0 -24 0.5 -48.333 1.5 -73s2.16699 -47 3.5 -67c0 -22.667 0.5 -39.834 1.5 -51.501s3.5 -20.5 7.5 -26.5
c6.66699 -10.667 16 -17.667 28 -21l32 -9c2 -1.33301 1.83301 -4.16602 -0.5 -8.49902s-2.16602 -7.83301 0.500977 -10.5z" />
    <glyph glyph-name="m" unicode="m" horiz-adv-x="667" 
d="M661 12l-173.994 3v13c8.66699 2.66699 15 5 19 7c14 7.33301 22.667 15.666 26 24.999c1.33301 3.33301 2.33301 10.166 3 20.499s1 16.5 1 18.5c0 8.66699 -0.166992 17.667 -0.5 27s-0.5 19 -0.5 29v14c0 4.66699 -0.166992 12.334 -0.5 23.001s-0.5 19.667 -0.5 27
v21c1.33301 8 2 15.667 2 23c0 8 -0.666992 13.667 -2 17c-4 14.667 -7.66699 29.334 -11 44.001c-6 12.667 -18.333 19 -37 19s-39.334 -5.66699 -62.001 -17l-47 -26c0 -20.667 -0.333008 -44.5 -1 -71.5s-1.33398 -51.833 -2.00098 -74.5
c0 -22.667 0.5 -42.167 1.5 -58.5s3.16699 -26.833 6.5 -31.5c6 -8.66699 14.833 -15.834 26.5 -21.501s19.167 -9.16699 22.5 -10.5c1.33301 -1.33301 1.16602 -3.83301 -0.500977 -7.5s-1.5 -6.5 0.5 -8.5l-174 3v13c8.66699 2.66699 15 5 19 7
c14 7.33301 22.5 15 25.5 23s4.83301 18.333 5.5 31s1 30.334 1 53.001v95c0.666992 7.33301 1 14 1 20c0 8 -1 15.667 -3 23c-4 14.667 -7.66699 29.334 -11 44.001c-6 12.667 -18.333 19 -37 19c-20.667 0 -43 -6.33301 -67 -19l-49 -28v-117c0 -38 0.333008 -60 1 -66
c0 -16.667 0.5 -30.167 1.5 -40.5s2.83301 -18.166 5.5 -23.499c4.66699 -6.66699 11.5 -11.667 20.5 -15s18.5 -6.33301 28.5 -9c2 -0.666992 2 -3 0 -7s-2 -7 0 -9l-177 3v13c8.66699 3.33301 15.334 6 20.001 8c14 6.66699 22.5 13.667 25.5 21s4.5 20.666 4.5 39.999
c0 12 -0.333008 25.833 -1 41.5s-1 24.5 -1 26.5v23v23v21v18v16v13v11c0 10.667 -0.166992 20.334 -0.5 29.001s-0.5 16 -0.5 22c0 21.333 -5.66699 32 -17 32c-2.66699 0 -7.66699 -1 -15 -3s-12.666 -3 -15.999 -3v8c16 13.333 38.667 27.833 68 43.5s45 21.5 47 17.5
c0.666992 -1.33301 1.33398 -6 2.00098 -14s1 -12.667 1 -14v-27l2 -64c27.333 25.333 48.333 42.666 63 51.999c29.333 19.333 56.333 29 81 29c17.333 0 30.666 -1.16699 39.999 -3.5s18.666 -8.5 27.999 -18.5c16 -15.333 24 -34 24 -56
c29.333 27.333 54.833 46.5 76.5 57.5s41.5 16.5 59.5 16.5c17.333 0 30.666 -1.16699 39.999 -3.5s18.666 -8.5 27.999 -18.5c16 -15.333 24 -35 24 -59l1 -82c0 -30.667 0.166992 -66 0.5 -106s2.16602 -62 5.49902 -66c6 -8.66699 14.833 -15.834 26.5 -21.501
s19.167 -9.16699 22.5 -10.5c1.33301 -1.33301 1.16602 -3.83301 -0.500977 -7.5s-1.5 -6.5 0.5 -8.5z" />
    <glyph glyph-name="n" unicode="n" horiz-adv-x="469" 
d="M433 12l-174 3v13c8.66699 2.66699 15 5 19 7c14 7.33301 22.5 15.166 25.5 23.499s4.5 22.5 4.5 42.5c0 9.33301 -0.166992 18.833 -0.5 28.5s-0.5 19.5 -0.5 29.5l1 82c0.666992 7.33301 1 14 1 20c0 8 -1 15.667 -3 23c-4 14.667 -7.66699 29.334 -11 44.001
c-6 12.667 -18.333 19 -37 19c-20.667 0 -43 -6.33301 -67 -19l-49 -28v-117c0 -38 0.333008 -60 1 -66c0 -16.667 0.5 -30.167 1.5 -40.5s2.83301 -18.166 5.5 -23.499c4.66699 -6.66699 11.5 -11.667 20.5 -15s18.5 -6.33301 28.5 -9c2 -0.666992 2 -3 0 -7s-2 -7 0 -9
l-177 3v13c8.66699 3.33301 15.334 6 20.001 8c14 6.66699 22.5 13.667 25.5 21s4.5 19.666 4.5 36.999c0 6 -0.333008 16.333 -1 31s-1 25.667 -1 33v24v23v22v19v17v14v12c0 10.667 -0.166992 20.334 -0.5 29.001s-0.5 16.334 -0.5 23.001c0 21.333 -5.66699 32 -17 32
c-2.66699 0 -7.66699 -1 -15 -3s-12.666 -3 -15.999 -3v8c16 13.333 38.667 27.833 68 43.5s45 21.5 47 17.5c0.666992 -1.33301 1.33398 -6 2.00098 -14s1 -12.667 1 -14v-27l2 -64c27.333 25.333 48.333 42.666 63 51.999c29.333 19.333 56.333 29 81 29
c17.333 0 30.666 -1.16699 39.999 -3.5s18.666 -8.5 27.999 -18.5c16 -15.333 24 -35 24 -59v-80c0 -35.333 0.5 -73 1.5 -113s2.83301 -61.667 5.5 -65c6 -8.66699 14.833 -15.834 26.5 -21.501s19.167 -9.16699 22.5 -10.5
c1.33301 -1.33301 1.16602 -3.83301 -0.500977 -7.5s-1.5 -6.5 0.5 -8.5z" />
    <glyph glyph-name="o" unicode="o" 
d="M350 215c0 -55.333 -14.333 -102.332 -43 -140.999c-32 -43.333 -74.333 -65 -127 -65c-50 0 -91.667 18.667 -125 56s-50 80.666 -50 129.999c-0.666992 4 -1 8.16699 -1 12.5v10.5c0 47.333 12.833 89.333 38.5 126s61.5 58 107.5 64
c4.66699 0.666992 11.334 1 20.001 1c49.333 0 91.666 -19.667 126.999 -59s53 -84.333 53 -135zM271 215.001c0 44 -7.99902 81.668 -23.999 113.001c-19.333 37.333 -46 56 -80 56c-5.33301 -0.666992 -9.33301 -1 -12 -1c-26 -3.33301 -44.167 -15.833 -54.5 -37.5
s-15.5 -49.167 -15.5 -82.5c0 -10 0.166992 -18.167 0.5 -24.5s1.5 -18.833 3.5 -37.5c6 -60.667 17.667 -102.334 35 -125.001c15.333 -20 36.666 -30 63.999 -30s48 11.667 62 35s21 68 21 134z" />
    <glyph glyph-name="p" unicode="p" horiz-adv-x="424" 
d="M399 251c2.66699 -13.333 3.99609 -28.3359 3.99609 -45.0029c0 -33.333 -5 -64.166 -15 -92.499s-21.333 -48.5 -34 -60.5c-21.333 -19.333 -41.333 -32.5 -60 -39.5s-45.334 -10.5 -80.001 -10.5c-8.66699 0 -24 6.33301 -46 19c-6.66699 4 -16.667 10.333 -30 19
l-6 -123c0 -14.667 0.166992 -31.167 0.5 -49.5s2.83301 -29.166 7.5 -32.499c10 -7.33301 24 -12 42 -14h26l1 -14c-1.33301 -2.66699 -5 -4.33398 -11 -5.00098s-13.667 -1 -23 -1c-6.66699 0 -16.667 0.333008 -30 1s-22 1 -26 1h-38.5
c-11.667 0 -22.167 -0.333008 -31.5 -1c-30 0 -46.667 1 -50 3v11c2.66699 2 10.334 3.5 23.001 4.5s22 6.83301 28 17.5c2.66699 4.66699 4.33398 22.834 5.00098 54.501s1 59.5 1 83.5c0 31.333 0.666992 58.333 2 81s2 45.667 2 69v123
c0 3.33301 0.333008 9.16602 1 17.499s1 12.833 1 13.5c0 12.667 -3 21.5 -9 26.5s-16 7.5 -30 7.5c-6.66699 0 -13 -1 -19 -3v16l67 17c12.667 4.66699 23.334 8.33398 32.001 11.001s14.334 4 17.001 4c4 0 7 -1.5 9 -4.5s3.33301 -10 4 -21l2 -32.5l24 28
c18 20 32.5 33 43.5 39s22 10.333 33 13s21.833 4 32.5 4c32.667 0 61.334 -13.667 86.001 -41c22.667 -25.333 37.667 -56.666 45 -93.999zM323.996 136.997c4.66699 13.333 7 28.333 7 45c0 34.667 -9.83301 66 -29.5 94s-43.834 42 -72.501 42
c-6 0 -10.333 -0.333008 -13 -1c-18 -3.33301 -34 -11.333 -48 -24l-30 -31v-128v-66c20.667 -20 44.334 -30 71.001 -30c24 0 46.667 9 68 27s37 42 47 72z" />
    <glyph glyph-name="q" unicode="q" horiz-adv-x="424" 
d="M421 -202c-3.33301 -2 -20.002 -2.99805 -50.002 -2.99805c-15.333 0 -28.833 0.166992 -40.5 0.5s-21.5 0.5 -29.5 0.5c-4 0 -12.5 -0.333008 -25.5 -1s-23.167 -1 -30.5 -1c-20 0 -31.333 2 -34 6l1 14c10.667 0 22.167 0.333008 34.5 1s23.5 5 33.5 13
c4.66699 3.33301 7.16699 13 7.5 29s0.5 27 0.5 33v20l-4 168l-24 -31c-18 -22 -30.667 -35 -38 -39c-24.667 -13.333 -48.334 -20 -71.001 -20c-32 0 -59.167 12 -81.5 36s-37.166 54.667 -44.499 92c-2.66699 13.333 -4 28.333 -4 45c0 34.667 5.5 68.167 16.5 100.5
s22.5 54.166 34.5 65.499c21.333 19.333 41.333 32.5 60 39.5s45.334 10.5 80.001 10.5c7.33301 0 19.666 -4.66699 36.999 -14c8 -4 20.333 -11.333 37 -22c0 10.667 0.833008 18 2.5 22s11.5 10.833 29.5 20.5s29.333 13.167 34 10.5c1.33301 -1.33301 2.33301 -8 3 -20
s1 -23.667 1 -35v-51l4 -169c0 -22.667 0.666992 -48 2 -76s2 -52.667 2 -74c0 -26 0.166992 -54 0.5 -84s2.33301 -48.333 6 -55s9.83398 -11.334 18.501 -14.001c10.667 -2 21.334 -4.33301 32.001 -7v-11zM284.998 213.002l-0.000976562 41c0 10 -1 17.333 -3 22
c-9.33301 24 -21.666 41.5 -36.999 52.5s-32.666 16.5 -51.999 16.5c-22 0 -42.167 -6.66699 -60.5 -20s-31 -30.833 -38 -52.5s-10.5 -44.167 -10.5 -67.5c0 -42 11 -78.667 33 -110s48 -47 78 -47c5.33301 0 11.666 0.666992 18.999 2s15.333 5.33301 24 12l43 43z" />
    <glyph glyph-name="r" unicode="r" horiz-adv-x="320" 
d="M273 342c-8 0 -16.167 3.83594 -24.5 11.5029l-23.5 22.5c-5.33301 3.33301 -11 5 -17 5c-4 0 -7.66699 -1 -11 -3l-41 -23c-12 -8.66699 -18.833 -18.334 -20.5 -29.001s-2.5 -18.334 -2.5 -23.001c0 -4 0.333008 -10.5 1 -19.5s1 -15.833 1 -20.5v-10
c-1.33301 -4.66699 -2 -8 -2 -10v-65.5v-62.5c0.666992 -4.66699 1 -11 1 -19c-0.666992 -14 -1 -24 -1 -30c0 -8.66699 0.666992 -16.334 2 -23.001s4.33301 -12.334 9 -17.001c3.33301 -4.66699 13.333 -8.66699 30 -12c5.33301 -0.666992 13.333 -2 24 -4v-7l-36 -1
l-152 -1v9c5.33301 0.666992 9.33301 1.33398 12 2.00098c10 3.33301 17.833 9.5 23.5 18.5s9 19.167 10 30.5s1.5 22.333 1.5 33v32c0 17.333 0.333008 44.166 1 80.499s1 61.166 1 74.499v18c0 16.667 -1.33301 28.334 -4 35.001s-8.66699 10 -18 10
c-14 -2 -25.333 -3 -34 -3v5c16.667 14.667 42.167 30.667 76.5 48s52.5 25 54.5 23c0.666992 -0.666992 1.33398 -4.16699 2.00098 -10.5s1 -16.5 1 -30.5v-14c6 5.33301 17.667 16.666 35 33.999c9.33301 9.33301 19.666 17.333 30.999 24
c17.333 10.667 31.5 16.834 42.5 18.501s20.167 2.83398 27.5 3.50098c12.667 2 23.167 -2.5 31.5 -13.5s12.5 -23.5 12.5 -37.5s-3.66699 -25.667 -11 -35s-18.333 -14 -33 -14z" />
    <glyph glyph-name="s" unicode="s" horiz-adv-x="379" 
d="M357 130c0 -40.667 -16.998 -74.001 -50.998 -100.001c-31.333 -24 -68.333 -36 -111 -36c-12.667 0 -25.334 2 -38.001 6l-63 22c-2.66699 0.666992 -5.5 -0.833008 -8.5 -4.5s-5.83301 -6.83398 -8.5 -9.50098c-4.66699 0.666992 -8.66699 1.33398 -12 2.00098v142
l10 4c13.333 -41.333 28.333 -71.666 45 -90.999c23.333 -27.333 53.333 -41 90 -41c24.667 0 44.334 4.33301 59.001 13c18 10.667 27 26.667 27 48c0 18 -5.83301 34.333 -17.5 49s-32.834 30 -63.501 46l-99 45c-40.667 25.333 -61 60.333 -61 105
c0 34.667 15.167 64 45.5 88s66.166 36 107.499 36c11.333 0 24.833 -3.66699 40.5 -11s29.167 -10.666 40.5 -9.99902c10 0 19.667 4.33301 29 13c1.33301 1.33301 3.33301 3.66602 6 6.99902h9l1 -74v-66h-14c-6.66699 22.667 -13.667 39.667 -21 51
c-22 34.667 -52 52 -90 52c-23.333 0 -44.833 -6 -64.5 -18s-29.5 -28 -29.5 -48c0 -15.333 7.33301 -30 22 -44c10 -10 25.333 -20.333 46 -31l97 -46c18 -10.667 34 -24 48 -40c19.333 -21.333 29 -41 29 -59z" />
    <glyph glyph-name="t" unicode="t" horiz-adv-x="295" 
d="M294 94c-8 -12 -14.665 -21.332 -19.998 -27.999c-34 -41.333 -66 -62 -96 -62c-21.333 0 -38.666 3.5 -51.999 10.5s-23.833 17 -31.5 30s-12.667 27.5 -15 43.5s-3.5 36 -3.5 60l2 167v72h-61l19 14c27.333 22 47.333 39.333 60 52
c9.33301 9.33301 21.666 29.666 36.999 60.999l20 42h7v-35l1 -40l1 -74h57l47 1l-2 -24h-22l-82 -1l-3 -163c0 -13.333 -0.166992 -26 -0.5 -38s-0.5 -23.667 -0.5 -35c0 -32 2.66699 -53.167 8 -63.5s10.166 -16.5 14.499 -18.5s14.166 -3 29.499 -3
c12.667 0 29 6.66699 49 20c6.66699 4 15.667 10.667 27 20z" />
    <glyph glyph-name="u" unicode="u" horiz-adv-x="445" 
d="M431 48c-9.33301 -6 -16.666 -10.3311 -21.999 -12.998c-18.667 -10.667 -32 -17.834 -40 -21.501s-17.333 -6.83398 -28 -9.50098s-17.334 -3 -20.001 -1c-2.66699 1.33301 -4 8.33301 -4 21v11v37c-11.333 -14 -19.666 -24 -24.999 -30c-10 -12 -20 -20 -30 -24
c-4.66699 -2 -16.834 -5 -36.501 -9s-31.167 -6 -34.5 -6c-14 0 -30.667 2.5 -50 7.5s-33 11.167 -41 18.5c-31.333 26 -47 65 -47 117l2 135v22c0 8 0.333008 16.667 1 26c0 13.333 -0.833008 26.166 -2.5 38.499s-4.16699 22.5 -7.5 30.5
c-5.33301 10.667 -14.333 17.334 -27 20.001c-2 0 -5 0.333008 -9 1l1 12h56h52l-1 -99l1 -132c0 -6.66699 -0.333008 -16 -1 -28s-1 -20.667 -1 -26v-13c1.33301 -6 2 -10.667 2 -14c4 -24 13.5 -42.833 28.5 -56.5s37.5 -20.5 67.5 -20.5c24.667 0 45.5 5 62.5 15
s29.167 25.667 36.5 47c3.33301 10.667 5 22.667 5 36c0 6.66699 -0.166992 13.5 -0.5 20.5s-0.5 14.5 -0.5 22.5v143v18c0 17.333 -0.5 30.333 -1.5 39s-4 15.5 -9 20.5s-13.5 9.16699 -25.5 12.5c-4 0.666992 -9.66699 1.66699 -17 3v13h66h49l2 -102v-174
c0 -7.33301 -0.5 -18.5 -1.5 -33.5s-1.5 -22.833 -1.5 -23.5c0 -16.667 2.33301 -28.667 7 -36c2 -3.33301 5.66699 -5 11 -5c10.667 2 18.667 3.16699 24 3.5s8.33301 -0.166992 9 -1.5c2 -3.33301 2.66699 -6 2 -8s-1 -3.33301 -1 -4z" />
    <glyph glyph-name="v" unicode="v" horiz-adv-x="503" 
d="M480 436c-25.333 -3.33301 -44 -11.333 -56 -24s-22.5 -29.167 -31.5 -49.5s-17.5 -43.5 -25.5 -69.5c-10 -32 -21.333 -64 -34 -96l-33.5 -78.5c-15 -34.333 -25.167 -57.166 -30.5 -68.499c-15.333 -31.333 -25.333 -47 -30 -47s-10 4.33301 -16 13
c-3.33301 4.66699 -8 12.667 -14 24c-29.333 56 -56 112 -80 168l-38 99c-19.333 48.667 -35.333 83.667 -48 105c-5.33301 9.33301 -15 15.666 -29 18.999c-4 0.666992 -10.333 1.33398 -19 2.00098l-1 12l54 -1l107 2l-1 -13c-6 0 -12.5 -0.333008 -19.5 -1
s-12.167 -4.66699 -15.5 -12c-2 -4.66699 0.333008 -15.667 7 -33l27 -62c14.667 -34 36 -80.333 64 -139l43 -88l25 60l44 119c12 34.667 22.333 66.667 31 96c2.66699 7.33301 4 14.333 4 21c0 9.33301 -3.66699 17 -11 23c-3.33301 2.66699 -8.5 5.66699 -15.5 9
s-16.833 5.66602 -29.5 6.99902l-1 12h173v-9z" />
    <glyph glyph-name="w" unicode="w" horiz-adv-x="747" 
d="M752 444c-25.333 -3.33301 -44 -11.333 -56 -24s-22.5 -29.167 -31.5 -49.5s-17.5 -43.5 -25.5 -69.5c-10 -32 -21.333 -64 -34 -96l-33.5 -78.5c-15 -34.333 -25.167 -57.166 -30.5 -68.499c-15.333 -31.333 -25.333 -47 -30 -47s-10 4.33301 -16 13
c-3.33301 4.66699 -8 12.667 -14 24c-29.333 56 -56 112 -80 168l-30 79c-8 -23.333 -17 -47.333 -27 -72l-45 -107l-30 -66c-15.333 -31.333 -25.333 -47 -30 -47s-10 4.33301 -16 13c-3.33301 4.66699 -8 12.667 -14 24c-29.333 56 -56 112 -80 168l-38 99
c-19.333 48.667 -35.333 83.667 -48 105c-5.33301 9.33301 -15 15.666 -29 18.999c-4 0.666992 -10.333 1.33398 -19 2.00098l-1 12l54 -1l107 2l-1 -13c-6 0 -12.5 -0.333008 -19.5 -1s-12.167 -4.66699 -15.5 -12c-2 -4.66699 0.333008 -15.667 7 -33l27 -62
c14.667 -34 36 -80.333 64 -139l43 -88l25 60l37 100c11.333 32 21 60.667 29 86l-13 31c-8 18.667 -15.167 33.167 -21.5 43.5s-16.5 17.166 -30.5 20.499c-4 0.666992 -10.333 1.33398 -19 2.00098l-1 12l54 -1l107 2l-1 -13c-6 0 -12.5 -0.333008 -19.5 -1
s-12.167 -4.66699 -15.5 -12c-2 -4.66699 0.333008 -15.667 7 -33l27 -62c14.667 -34 36 -80.333 64 -139l43 -88l25 60l44 119c12 34.667 22.333 66.667 31 96c2.66699 7.33301 4 14.333 4 21c0 9.33301 -3.66699 17 -11 23c-3.33301 2.66699 -8.5 5.66699 -15.5 9
s-16.833 5.66602 -29.5 6.99902l-1 12h173v-9z" />
    <glyph glyph-name="x" unicode="x" horiz-adv-x="464" 
d="M451 0l-53.998 1.99902h-126v12c10 1.33301 17 3.33301 21 6c7.33301 4.66699 11 11.334 11 20.001c0 16.667 -13.333 48 -40 94c-8.66699 14.667 -22 36 -40 64l-110 -142c-5.33301 -7.33301 1.66699 -18.333 21 -33c3.33301 -2 8.33301 -5.33301 15 -10l-1 -11l-122 2
l-1 12c6 1.33301 11 3 15 5c12.667 6.66699 25 17 37 31l52 63c21.333 26 38.333 47.667 51 65l29 41l-44 67l-23 42c-10.667 19.333 -21 33 -31 41c-13.333 12 -28.333 20 -45 24c-5.33301 1.33301 -12.333 2.33301 -21 3l-1 14l86 -3h81v-8l-15 -6
c-10 -5.33301 -15 -10.333 -15 -15c0 -12.667 11.333 -36.667 34 -72c7.33301 -11.333 18.666 -27.666 33.999 -48.999l32 45c23.333 33.333 37.333 55 42 65c3.33301 7.33301 -0.333984 15.666 -11.001 24.999c-1.33301 1.33301 -4.33301 3.33301 -9 6v12h108v-14
c-6.66699 -2 -11.667 -3.66699 -15 -5c-11.333 -4.66699 -19.333 -9 -24 -13c-22.667 -20 -48 -49.333 -76 -88c-9.33301 -12.667 -21 -30.334 -35 -53.001l100 -156l20 -33c4.66699 -5.33301 10.667 -10 18 -14s18.333 -9 33 -15c4.66699 -1.33301 11 -3.66602 19 -6.99902
v-14z" />
    <glyph glyph-name="y" unicode="y" horiz-adv-x="501" 
d="M477 416c-18.667 -4.66699 -33 -12.0039 -43 -22.0039c-16.667 -17.333 -29.667 -42 -39 -74c-12.667 -42 -27.667 -83.667 -45 -125l-33 -82c-12 -30 -38 -80.333 -78 -151c-13.333 -24 -33 -57.333 -59 -100c-8 -8.66699 -14.667 -15 -20 -19
c-17.333 -12.667 -36.666 -19 -57.999 -19c-15.333 0 -27.5 4.16699 -36.5 12.5s-13.5 21.5 -13.5 39.5c0 15.333 5 26.5 15 33.5s23 10.5 39 10.5c9.33301 0 19 -3.83301 29 -11.5s19 -11.5 27 -11.5c10 0 25 19.333 45 58l27 58c-2.66699 4 -4.66699 7.33301 -6 10
c-9.33301 16.667 -18 33.167 -26 49.5l-18 37.5c-9.33301 22.667 -17.333 40 -24 52l-60 114l-37 72c-10.667 20.667 -26.667 40.334 -48 59.001c-3.33301 2.66699 -8.33301 6.33398 -15 11.001l-2 16h214v-14c-14.667 -4.66699 -25.667 -9 -33 -13
c-22.667 -12 -34 -26 -34 -42c0 -5.33301 1.16699 -11.166 3.5 -17.499s11.166 -25.166 26.499 -56.499c6.66699 -14 20.667 -41.667 42 -83l58 -112c5.33301 13.333 9.33301 24.333 12 33c20.667 55.333 33 89.666 37 102.999c14.667 44.667 26.334 91.334 35.001 140.001
c1.33301 10 -7.33398 21 -26.001 33c-6 4 -16 9 -30 15v10h174v-14z" />
    <glyph glyph-name="z" unicode="z" horiz-adv-x="443" 
d="M423 434l-67 -96.999l-45 -65l-44.5 -61.5l-83.5 -111.5l-46 -61l66 2l98 -2c38.667 0 65.667 15.333 81 46c4.66699 10 8.66699 25.333 12 46h14l1 -87l-1 -36h-183h-171v18l61 82l110 152c14.667 21.333 37.334 51.666 68.001 90.999l42 53l-126 -3h-105
c-12 0 -22.667 -12.333 -32 -37c-2.66699 -8 -6.33398 -20.333 -11.001 -37h-9v66v38l166 2z" />
    <glyph glyph-name="braceleft" unicode="{" horiz-adv-x="257" 
d="M208 -144l-2 -22.001c-64 37.333 -105 70.333 -123 99s-27 63 -27 103c0 24 2.66699 54 8 90s8 66 8 90c0 25.333 -4.66699 43.333 -14 54c-2.66699 2.66699 -16.667 12.334 -42 29.001c0.666992 5.33301 0.666992 8.33301 0 9c38 12.667 57 31.667 57 57
c0 4.66699 -0.333008 8.33398 -1 11.001c-4.66699 35.333 -9.16699 71.166 -13.5 107.499s-6.5 68.5 -6.5 96.5c0 42 13.5 76.5 40.5 103.5s62.5 40.5 106.5 40.5l5 -16c-24 0 -43 -5 -57 -15c-18 -12.667 -27 -32.334 -27 -59.001c0 -21.333 2.66699 -58 8 -110
s8 -87.667 8 -107c0 -16.667 -5.66699 -34 -17 -52l-39 -61c0 -8 4.33301 -17.333 13 -28c23.333 -28.667 36.333 -47.167 39 -55.5s4.66699 -18.166 6 -29.499s2 -21.333 2 -30v-37c0 -24.667 -1 -47.667 -3 -69c-6 -64 -9 -98.333 -9 -103
c0 -23.333 13.333 -46.333 40 -69c8.66699 -7.33301 22 -16.333 40 -27z" />
    <glyph glyph-name="bar" unicode="|" horiz-adv-x="100" 
d="M72 -196l-40 -4l-4 880h44v-876z" />
    <glyph glyph-name="braceright" unicode="}" horiz-adv-x="257" 
d="M228 299l-34.002 -20.999c-14.667 -11.333 -22 -32 -22 -62c0 -24 2.66699 -54 8 -90s8 -66 8 -90c0 -50.667 -14.667 -92.334 -44 -125.001c-19.333 -21.333 -54.666 -47 -105.999 -77l-2 22c18 10 31.333 18.667 40 26c26.667 22.667 40 46 40 70c0 18 -2 45.333 -6 82
s-6 66.667 -6 90v37c0 12.667 0.333008 22.667 1 30s3 17 7 29s13.667 27 29 45s23 31 23 39l-39 61.5c-11.333 18.333 -17 35.5 -17 51.5c0 18.667 2.66699 54 8 106s8 89 8 111c0 26.667 -8.66699 46.334 -26 59.001c-14 10 -33.333 15 -58 15l5 16
c44.667 0 80.334 -13.333 107.001 -40s40 -61.334 40 -104.001c0 -38 -2.83301 -77.5 -8.5 -118.5s-9.16699 -66 -10.5 -75s-2 -14.667 -2 -17v-4.5c0 -25.333 19 -44.333 57 -57c-0.666992 -0.666992 -0.666992 -3.66699 0 -9z" />
    <glyph glyph-name="asciitilde" unicode="~" horiz-adv-x="454" 
d="M429 586c0 -33.333 -13.167 -60 -39.5 -80s-58.833 -30 -97.5 -30c-27.333 0 -55.333 8.33301 -84 25c-64 37.333 -107.333 56 -130 56c-7.33301 0 -16.333 -5.66699 -27 -17l-41 -47c0 42 9 76.5 27 103.5s44 40.5 78 40.5c24 0 49 -8 75 -24
c58.667 -36 96.334 -54 113.001 -54c38 0 69 15 93 45c8 10 16.333 25.333 25 46l5 -3c1.33301 -9.33301 2.16602 -20 2.49902 -32s0.5 -21.667 0.5 -29z" />
    <glyph glyph-name="exclamdown" unicode="&#xa1;" horiz-adv-x="239" 
d="M161 677c5.33301 -8.66699 8 -17.334 8 -26.001c0 -14.667 -6.33301 -26.334 -19 -35.001c-8.66699 -5.33301 -17.334 -8 -26.001 -8c-14.667 0 -26.334 6.33301 -35.001 19c-5.33301 8.66699 -8 17.334 -8 26.001c0 14.667 6.33301 26.334 19 35.001
c8.66699 5.33301 17.334 8 26.001 8c14.667 0 26.334 -6.33301 35.001 -19zM173 132c0 -74.667 -18.333 -112.001 -55 -112.001c-18.667 0 -30.834 8.16699 -36.501 24.5s-8.5 45.5 -8.5 87.5c0 30 2.16699 61 6.5 93l13.5 95c2.66699 30.667 7.33398 73.667 14.001 129
c2 18.667 5.33301 44.334 10 77.001h12c3.33301 -23.333 7 -53 11 -89l13 -113c7.33301 -42.667 12.5 -76 15.5 -100s4.5 -54.667 4.5 -92z" />
    <glyph glyph-name="cent" unicode="&#xa2;" horiz-adv-x="381" 
d="M353 136c-2.66699 -10.667 -5.33203 -19.6641 -7.99902 -26.9971c-8.66699 -22.667 -20.667 -44.334 -36 -65.001c-12 -16 -30.667 -27.667 -56 -35c-16 -4.66699 -31.333 -7 -46 -7c-4 0 -9.66699 0.666992 -17 2s-13.333 2.66602 -18 3.99902l-16 -78l-12 -98h-36
l29 184c-20.667 9.33301 -35.5 17 -44.5 23s-15.833 11.667 -20.5 17c-8.66699 9.33301 -18.667 29.5 -30 60.5s-17 52.833 -17 65.5c0 8.66699 -0.166992 17.334 -0.5 26.001s-0.5 17.334 -0.5 26.001c0 29.333 2.83301 54.666 8.5 75.999s17.167 42 34.5 62
c8.66699 10 18.334 18.5 29.001 25.5s27.667 16.5 51 28.5c8 4 18.5 8 31.5 12s24.833 6 35.5 6l14 56l20 76l40 8c-2.66699 -16 -6.66699 -34.333 -12 -55l-24 -89c5.33301 -1.33301 11.5 -3.83301 18.5 -7.5s13.833 -7.83398 20.5 -12.501
c18 -12.667 30.667 -22.667 38 -30c13.333 -13.333 20 -25.333 20 -36c0 -7.33301 -4 -14.5 -12 -21.5s-17.333 -10.5 -28 -10.5s-18 4 -22 12c-10.667 21.333 -18.334 36 -23.001 44c-6.66699 7.33301 -13 15 -19 23c-4.66699 -34 -13 -80.333 -25 -139
c-16 -75.333 -25.333 -121.333 -28 -138l-10 -48c-0.666992 -4.66699 4.16602 -8.33398 14.499 -11.001s22.5 -4 36.5 -4c10.667 0 20 1 28 3c28 8 51.667 27 71 57c6 10 13 24.333 21 43v-28zM214.002 409.003c-30.667 -10 -55.665 -28.3311 -74.998 -54.998
c-10.667 -15.333 -17.334 -27.833 -20.001 -37.5s-4 -25.834 -4 -48.501v-30c0 -17.333 3.33301 -39 10 -65s15.667 -48.667 27 -68l32 171c5.33301 29.333 10.166 53.166 14.499 71.499s9.5 38.833 15.5 61.5z" />
    <glyph glyph-name="sterling" unicode="&#xa3;" horiz-adv-x="491" 
d="M464 167c0 -43.333 -9.33594 -75.333 -28.0029 -96c-24 -26 -65.333 -39 -124 -39c-30 0 -60.333 10 -91 30c-10 6.66699 -22.333 16.667 -37 30c0 -14 -0.666992 -24.333 -2 -31c-4 -21.333 -13.667 -34 -29 -38s-29.666 -6 -42.999 -6
c-10.667 0 -20.167 1.66699 -28.5 5s-15.166 8.83301 -20.499 16.5s-8.83301 16.167 -10.5 25.5s-2.5 18.666 -2.5 27.999c0 24.667 3.33301 42.834 10 54.501s19.334 17.5 38.001 17.5h56v14c0 6 -0.166992 13.333 -0.5 22s-1.16602 17.5 -2.49902 26.5
s-3.66602 18.833 -6.99902 29.5s-5.33301 18.667 -6 24c-2.66699 14 -4 28 -4 42c0 7.33301 0.666992 20.333 2 39s2 30.334 2 35.001v5l-88 -1l-4 36l88 3c-2 13.333 -3 26 -3 38c0 9.33301 1 19.666 3 30.999c6 33.333 11.667 55.666 17 66.999s14.333 23.666 27 36.999
c33.333 37.333 74.666 56 123.999 56c44.667 0 82.667 -14 114 -42c27.333 -24 41 -48 41 -72c0 -20 -10.333 -28.667 -31 -26c-18 2.66699 -35.167 21.334 -51.5 56.001s-39.166 52 -68.499 52c-44.667 0 -74.334 -11 -89.001 -33c-10 -15.333 -15 -43.666 -15 -84.999v-38
l1 -39l91 3l12 -40l-94 -1l2 -43c0 -24 -1 -48.667 -3 -74c-6 -75.333 -9 -116 -9 -122s8.16699 -14 24.5 -24s32.166 -18 47.499 -24c10 -4 20.333 -7.33301 31 -10s20.667 -4 30 -4c10 0 21 1 33 3s30 13 54 33c8 6.66699 18.667 16.667 32 30zM151.997 116
c-2.66699 1.33301 -4.66797 2.00098 -6.00098 2.00098c-10.667 3.33301 -20 5 -28 5c-9.33301 0 -16.666 -2.33301 -21.999 -7c-8 -8 -12 -17.667 -12 -29c0 -10 3.5 -18.667 10.5 -26s16.167 -11 27.5 -11c10.667 0 19.167 3 25.5 9s9.5 15 9.5 27
c0 7.33301 -0.333008 13.166 -1 17.499s-2 8.5 -4 12.5z" />
    <glyph glyph-name="currency" unicode="&#xa4;" horiz-adv-x="488" 
d="M464 348c0 -30 -6.5 -58.502 -19.5 -85.502s-30.833 -50.833 -53.5 -71.5l45 -51l-28 -32l-51 58c-34 -20 -73 -30 -117 -30c-22.667 0 -44 3.5 -64 10.5s-39.333 17.167 -58 30.5l-50 -57l-28 32l46 53c-38.667 42.667 -58 94.334 -58 155.001
c0 24.667 4.5 48.5 13.5 71.5s21.5 43.833 37.5 62.5l-47 54l28 32l49 -56c41.333 32 89 48 143 48c24 0 47.167 -4.16699 69.5 -12.5s42.5 -20.166 60.5 -35.499l50 56l28 -32l-47 -54c34 -40 51 -88.667 51 -146zM420 347.998c0 50 -16.5 93.167 -49.5 129.5
s-73.833 54.5 -122.5 54.5c-50 0 -93.167 -16.5 -129.5 -49.5s-54.5 -73.833 -54.5 -122.5c0 -50 16.5 -93.167 49.5 -129.5s73.833 -54.5 122.5 -54.5c50 0 93.167 16.5 129.5 49.5s54.5 73.833 54.5 122.5z" />
    <glyph glyph-name="yen" unicode="&#xa5;" horiz-adv-x="635" 
d="M607 634c-6.66699 -2 -14.668 -5.00391 -24.001 -9.00391c-14.667 -6.66699 -25.667 -14 -33 -22c-14 -14.667 -30 -35.667 -48 -63l-28 -42l-79 -116l-37 -52l150 2v-48l-167 3v-31v-52h163l2 -48l-166 2v-69c0 -17.333 7.33301 -31.666 22 -42.999
c10 -7.33301 23.333 -13.666 40 -18.999c5.33301 -1.33301 12.333 -3.33301 21 -6l2 -18l-90 1l-137 -1h-49v18c18.667 4.66699 32.334 9.33398 41.001 14.001c27.333 14 41 31.667 41 53v71l-161 1l2 44h159v64l1 21l-152 3l4 36l146 1l-49 107
c-6.66699 20 -21.667 46.333 -45 79l-59 81c-9.33301 14 -22 24.333 -38 31c-5.33301 2 -13 4 -23 6l1 12l117 1l103 -1l1 -13l-26 -6c-18 -5.33301 -28.667 -11.333 -32 -18c-4.66699 -9.33301 4 -27.333 26 -54c14.667 -17.333 23 -29 25 -35s19.333 -40 52 -102
c13.333 -26 21.333 -45.667 24 -59c2 0 13.5 12.5 34.5 37.5l61.5 73.5c28.667 37.333 50.334 66.5 65.001 87.5s21 35.5 19 43.5c-2.66699 10.667 -11.334 18 -26.001 22c-2.66699 0.666992 -6.66699 1.33398 -12 2.00098c0 9.33301 0.333008 15.333 1 18l71 2l30 -2l55 1z
" />
    <glyph glyph-name="brokenbar" unicode="&#xa6;" horiz-adv-x="284" 
d="M164 249l-48 -1v428l48 5v-432zM168 -143l-52 -1l-1 240l52 1z" />
    <glyph glyph-name="section" unicode="&#xa7;" horiz-adv-x="427" 
d="M384 242c2.66699 -8.66699 4 -18.667 4 -30c0 -32 -12 -63 -36 -93c-14 -18 -36 -38.333 -66 -61c20 -16.667 34 -32.167 42 -46.5s12 -28.166 12 -41.499c0 -48.667 -10.667 -86.334 -32 -113.001c-24 -30 -60 -45 -108 -45c-35.333 0 -62.5 4.16699 -81.5 12.5
s-35.833 24.833 -50.5 49.5c-5.33301 6.66699 -9.33301 11.834 -12 15.501s-4 12.5 -4 26.5c0 16 1.83301 29 5.5 39s12.5 15 26.5 15c14.667 0 28.667 -4.83301 42 -14.5s18 -20.834 14 -33.501c-2 -5.33301 -3.33301 -10.833 -4 -16.5s-1 -10.167 -1 -13.5
c0 -19.333 7.5 -34.166 22.5 -44.499s32.5 -15.5 52.5 -15.5h10c4.66699 1.33301 8 2 10 2c18 3.33301 32.833 11.833 44.5 25.5s17.5 29.834 17.5 48.501c0 17.333 -9 36 -27 56c-10.667 12 -27 26.667 -49 44c-47.333 37.333 -79.333 64.333 -96 81
c-37.333 36.667 -60 71.667 -68 105c-2.66699 8.66699 -4 18.667 -4 30c0 23.333 6.33301 46.666 19 69.999c16 30 41.333 58.333 76 85c-14.667 12 -25.667 24.333 -33 37c-9.33301 15.333 -14 32 -14 50c0 48.667 10.667 86.334 32 113.001c24 30 60 45 108 45
c35.333 0 62.5 -4.16699 81.5 -12.5s35.833 -24.833 50.5 -49.5c5.33301 -6.66699 9.33301 -11.834 12 -15.501s4 -12.5 4 -26.5c0 -16 -1.33301 -27.667 -4 -35c-4.66699 -12.667 -14 -19 -28 -19c-14.667 0 -28.667 4.83301 -42 14.5s-18 20.834 -14 33.501
c2 5.33301 3.16699 10.833 3.5 16.5s0.833008 10.167 1.5 13.5c0 19.333 -7.5 34.166 -22.5 44.499s-32.5 15.5 -52.5 15.5h-10c-4.66699 -1.33301 -8 -2 -10 -2c-18 -3.33301 -32.833 -11.833 -44.5 -25.5s-17.5 -29.834 -17.5 -48.501c0 -17.333 9 -36 27 -56
c10.667 -12 27 -26.667 49 -44c47.333 -37.333 79.333 -64.333 96 -81c37.333 -36.667 60 -71.667 68 -105zM320 128c2 7.33301 3.33203 16.5 3.99902 27.5s1 16.833 1 17.5c0 32.667 -10.667 62 -32 88c-12.667 15.333 -37 37 -73 65c-8 6.66699 -16.667 12.834 -26 18.501
l-29 18.5c-16 -12 -26 -20 -30 -24c-10 -10 -16.167 -19.5 -18.5 -28.5s-3.83301 -19 -4.5 -30s-1 -16.833 -1 -17.5c0 -32.667 10.667 -62 32 -88c12.667 -15.333 37 -37 73 -65l28 -19c8 -5.33301 18.333 -12.666 31 -21.999c12 9.33301 21.833 18.666 29.5 27.999
s12.834 19.666 15.501 30.999z" />
    <glyph glyph-name="dieresis" unicode="&#xa8;" 
d="M274 546c6.66699 -8.66699 10 -18.667 10 -30c0 -16.667 -6.66699 -30 -20 -40c-8.66699 -6.66699 -18.667 -10 -30 -10c-16.667 0 -30 6.66699 -40 20c-6.66699 8.66699 -10 18.667 -10 30c0 16.667 6.66699 30 20 40c8.66699 6.66699 18.667 10 30 10
c16.667 0 30 -6.66699 40 -20zM120 484c-9.33301 -14 -23 -21 -41 -21c-10 0 -19 3 -27 9c-14 9.33301 -21 23 -21 41c0 10 3 19 9 27c9.33301 14 23 21 41 21c10 0 19 -3 27 -9c14 -9.33301 21 -23 21 -41c0 -10 -3 -19 -9 -27z" />
    <glyph glyph-name="copyright" unicode="&#xa9;" horiz-adv-x="732" 
d="M716 372c0 -96 -34.333 -178 -103 -246s-151.667 -102 -249 -102c-96 0 -178 34.333 -246 103s-102 151.667 -102 249c0 96 34.333 178 103 246s151.667 102 249 102c96 0 178 -34.333 246 -103s102 -151.667 102 -249zM664 368c0 82.667 -28.667 153.667 -86 213
s-126.666 89 -207.999 89c-82.667 0 -153.667 -28.667 -213 -86s-89 -126.666 -89 -207.999c0 -82.667 28.667 -153.667 86 -213s126.666 -89 207.999 -89c82.667 0 153.667 28.667 213 86s89 126.666 89 207.999zM546 239
c-21.333 -32.667 -45.6631 -56.999 -72.9961 -72.999s-60.333 -24 -99 -24c-8 -0.666992 -15.167 -0.5 -21.5 0.5s-22.5 5 -48.5 12s-50 17.833 -72 32.5s-40.333 33.667 -55 57c-21.333 33.333 -32 71.333 -32 114c0 32.667 2 59.834 6 81.501s12.667 41.5 26 59.5
c6 8 13 15 21 21c12 7.33301 21 13 27 17l34 20.5c12 7 23.5 12.5 34.5 16.5s22.167 7.33301 33.5 10s22.666 4 33.999 4c5.33301 0.666992 14.5 0.666992 27.5 0s22 -1.33398 27 -2.00098s18.167 -5.33398 39.5 -14.001c12 -4.66699 19.333 -7 22 -7h11
c1.33301 0.666992 2.66602 3.33398 3.99902 8.00098l9 22h11l7 -105h-9c-10.667 15.333 -20.334 26.666 -29.001 33.999c-26 22.667 -56.667 34 -92 34h-13c-6 -1.33301 -12.5 -2.33301 -19.5 -3s-15.833 -3.33398 -26.5 -8.00098s-21.667 -10.667 -33 -18
c-32.667 -20 -55.334 -46 -68.001 -78c-5.33301 -13.333 -8.33301 -29.666 -9 -48.999s-1 -33 -1 -41c0 -22.667 1.83301 -43.167 5.5 -61.5s10.167 -35.5 19.5 -51.5c14 -22.667 32 -41 54 -55s46.333 -21 73 -21c4 -0.666992 7.66699 -1 11 -1h10
c16 0 29.833 1.83301 41.5 5.5s23.5 9 35.5 16s24 15.167 36 24.5c5.33301 4 17 14 35 30z" />
    <glyph glyph-name="ordfeminine" unicode="&#xaa;" horiz-adv-x="218" 
d="M204 453c-3.33301 -6.66699 -9.33203 -12.833 -17.999 -18.5s-17.667 -8.5 -27 -8.5c-16 0 -27 11.333 -33 34l-26 -15c-20.667 -10.667 -36.667 -16 -48 -16c-14 0 -25 5.66699 -33 17s-12 24.333 -12 39c0 20.667 10.333 40 31 58
c14.667 12.667 32.667 23.334 54 32.001c3.33301 2 10.666 4.66699 21.999 8c1.33301 0 3.66602 0.666992 6.99902 2l2 16c0 11.333 -2.83301 22 -8.5 32s-14.167 15 -25.5 15c-15.333 0 -26 -3.83301 -32 -11.5s-9 -16.834 -9 -27.501v-9
c0 -17.333 -7.66699 -24.333 -23 -21c-4.66699 0.666992 -7.83398 2.5 -9.50098 5.5s-2.5 10.5 -2.5 22.5c0 16 6.66699 28.667 20 38c6 4 17.667 9.33301 35 16c7.33301 2 13 3 17 3c4.66699 0 12.334 -1.66699 23.001 -5s18.834 -8 24.501 -14s11.5 -14.333 17.5 -25
c3.33301 -5.33301 5.66602 -12.5 6.99902 -21.5s2 -17.167 2 -24.5v-13v-44v-43c0.666992 -3.33301 2.83398 -7.5 6.50098 -12.5s7.5 -7.5 11.5 -7.5c3.33301 0 7.5 1.16699 12.5 3.5s9.83301 4.83301 14.5 7.5c0.666992 -6 0.666992 -10 0 -12zM126.001 477.001
l-0.999023 49.001v11v17.5c0 5 -0.333008 10.167 -1 15.5l-9 -3c-18.667 -8 -33.334 -16 -44.001 -24c-20 -15.333 -30 -33.333 -30 -54c0 -10.667 2.5 -18.167 7.5 -22.5s11.833 -6.5 20.5 -6.5c8 0 15.667 1 23 3c6 0.666992 13 3 21 7
c2.66699 1.33301 7 3.66602 13 6.99902z" />
    <glyph glyph-name="guillemotleft" unicode="&#xab;" horiz-adv-x="500" 
d="M286 14h-48l-208 244l208 240h32l-140 -235zM494 10h-48l-208 244l208 240h32l-140 -235z" />
    <glyph glyph-name="logicalnot" unicode="&#xac;" horiz-adv-x="664" 
d="M637 184h-45v212h-584v44h627z" />
    <glyph glyph-name="minus" unicode="&#xad;" horiz-adv-x="468" 
d="M382 221l-296 4l3 86l289 4z" />
    <glyph glyph-name="registered" unicode="&#xae;" horiz-adv-x="808" 
d="M790 336c-14 -98 -58.5 -179.168 -133.5 -243.501s-161.5 -96.5 -259.5 -96.5h-35c-10 2 -17.333 3.33301 -22 4c-98 14 -179.167 58.5 -243.5 133.5s-96.5 161.167 -96.5 258.5v35c2 10.667 3.33301 18.334 4 23.001c14 98.667 58.5 180.167 133.5 244.5
s161.5 96.5 259.5 96.5h24c6.66699 0 17.667 -1.33301 33 -4c98 -14.667 179.167 -59.5 243.5 -134.5s96.5 -161.5 96.5 -259.5v-35c-2 -10 -3.33301 -17.333 -4 -22zM741 358.999c0.666992 8 1.16699 15.167 1.5 21.5s0.5 11.5 0.5 15.5
c0 86.667 -29.5 162.834 -88.5 228.501s-132.167 103.167 -219.5 112.5c-6 0.666992 -11.667 1.16699 -17 1.5s-12 0.5 -20 0.5c-86.667 0 -162.834 -29.5 -228.501 -88.5s-103.167 -132.167 -112.5 -219.5c-0.666992 -8 -1.16699 -15.167 -1.5 -21.5s-0.5 -11.5 -0.5 -15.5
c0 -86.667 29.5 -162.834 88.5 -228.501s132.167 -103.167 219.5 -112.5c6 -0.666992 11.667 -1.16699 17 -1.5s12 -0.5 20 -0.5c86.667 0 162.834 29.5 228.501 88.5s103.167 132.167 112.5 219.5zM625 171.999l-141 3l-27 57l-32 65l-25 52l-34 68h-46v-48l-1 -72l1 -90
c0 -4.66699 2.66699 -9.33398 8 -14.001c2.66699 -2.66699 6 -5 10 -7s13.333 -3 28 -3v-8h-156v11c8 0 16 3.33301 24 10s12 11 12 13c0 26.667 0.333008 48.667 1 66c3.33301 86.667 5 134 5 142v63v62l1 52c-6 13.333 -13.333 22.833 -22 28.5s-18 8.5 -28 8.5v10
c0 3.33301 0.666992 5.66602 2 6.99902h29h54h29h44c14 0 27.667 -0.166992 41 -0.5s30 -2.16602 50 -5.49902s37.333 -11.666 52 -24.999c10 -8 17.5 -18.333 22.5 -31s7.5 -28.667 7.5 -48c0 -11.333 -4.33301 -25 -13 -41s-18.667 -29.333 -30 -40l-30 -17
c-7.33301 -4 -16.333 -7.33301 -27 -10c-1.33301 0 -3.33301 -0.666992 -6 -2l46 -91l31 -62l37 -63c5.33301 -4.66699 12 -8.83398 20 -12.501s15.5 -6.16699 22.5 -7.5s14.5 -2.66602 22.5 -3.99902s14 -2 18 -2v-14zM465 530.999c0 26.667 -7.99805 48 -23.998 64
c-9.33301 9.33301 -21 16 -35 20c-6 0.666992 -11.667 1.5 -17 2.5s-12.333 1.5 -21 1.5c-14.667 0 -25.334 -1 -32.001 -3s-12 -3.66699 -16 -5l-1 -20l1 -50v-38c0 -8.66699 -0.166992 -16.5 -0.5 -23.5s-0.5 -13.167 -0.5 -18.5c0 -10.667 0.333008 -18.334 1 -23.001
c7.33301 -0.666992 13 -1 17 -1c13.333 0 24.5 0.5 33.5 1.5s17.167 3.5 24.5 7.5c10.667 2.66699 20.667 7.66699 30 15c6.66699 4 12.167 8.33301 16.5 13s9.16602 10.334 14.499 17.001c6 12 9 25.333 9 40z" />
    <glyph glyph-name="macron" unicode="&#xaf;" horiz-adv-x="576" 
d="M572 652l-572 -4l4 48l568 -4v-40z" />
    <glyph glyph-name="degree" unicode="&#xb0;" horiz-adv-x="291" 
d="M269 554c0 -33.333 -12.002 -61.002 -36.002 -83.002s-53 -33 -87 -33c-33.333 0 -61.166 11.833 -83.499 35.5s-33.5 52.834 -33.5 87.501c0 32.667 12 60.334 36 83.001s53 34 87 34c32.667 0 60.334 -12.333 83.001 -37s34 -53.667 34 -87zM229.998 560.998
c0 25.333 -8.83301 46.833 -26.5 64.5s-39.167 26.5 -64.5 26.5s-46.833 -8.83301 -64.5 -26.5s-26.5 -39.167 -26.5 -64.5c0 -26 8.66699 -47.667 26 -65s39 -26 65 -26s47.667 8.66699 65 26s26 39 26 65z" />
    <glyph glyph-name="plusminus" unicode="&#xb1;" horiz-adv-x="540" 
d="M512 364h-220l1 -73v-25v-20v-17v-14v-12c0 -12.667 -0.166992 -25.5 -0.5 -38.5s-0.5 -26.167 -0.5 -39.5v-13h-36l-2 252h-54h-176l4 36h88h138l-2 236h40v-144v-92l103 -2l117 2v-36zM535.392 65l-0.799805 -33h-521.592v32z" />
    <glyph glyph-name="twosuperior" unicode="&#xb2;" horiz-adv-x="244" 
d="M226 453l-15 -25.998c-10.667 -18 -17.667 -28 -21 -30l-79 -2l-75 3l12 14c26.667 24.667 42 39.667 46 45c10 7.33301 19 14.666 27 21.999c28.667 27.333 43 59.666 43 96.999c0 22.667 -4.83301 40.834 -14.5 54.501s-22.5 20.5 -38.5 20.5c-26 0 -45.333 -8 -58 -24
c-4 -5.33301 -7.66699 -13.333 -11 -24l-12 3c1.33301 7.33301 2.66602 13 3.99902 17c4 13.333 8.83301 23.5 14.5 30.5s16.167 14.5 31.5 22.5s30 12 44 12c6.66699 0 14 -1.66699 22 -5c16.667 -7.33301 30 -17.5 40 -30.5s15 -28.5 15 -46.5
c0 -16.667 -2.5 -32.167 -7.5 -46.5s-13.167 -30.5 -24.5 -48.5c-15.333 -22.667 -34 -43.334 -56 -62.001c-7.33301 -6 -17.666 -13.667 -30.999 -23c16 0.666992 32.833 1.16699 50.5 1.5s31.5 0.5 41.5 0.5s23.333 5.33301 40 16c2.66699 1.33301 6.66699 4.33301 12 9z
" />
    <glyph glyph-name="threesuperior" unicode="&#xb3;" horiz-adv-x="212" 
d="M181 648c0 -20 -8.99707 -39.665 -26.9971 -58.998c-6 -6 -15 -13.667 -27 -23c11.333 -10 19.666 -17.667 24.999 -23c17.333 -18 26 -31.667 26 -41c0 -48 -10.333 -81.667 -31 -101c-17.333 -16 -42.666 -24 -75.999 -24c-8 0 -14.833 0.166992 -20.5 0.5
s-12.5 2.5 -20.5 6.5s-12 10.333 -12 19c0 5.33301 1.5 9.66602 4.5 12.999s6.83301 5 11.5 5c7.33301 0 14.333 -3.33301 21 -10c3.33301 -3.33301 6.66602 -6.33301 9.99902 -9c7.33301 -6 16.666 -9 27.999 -9c13.333 1.33301 25.666 9 36.999 23
c9.33301 11.333 14 24.666 14 39.999c0 34 -14.667 59.667 -44 77c-9.33301 5.33301 -24.333 10.666 -45 15.999c18 8 31.333 14.667 40 20c27.333 18 41 37.667 41 59c0 14 -2 24 -6 30c-6.66699 10 -20.334 15 -41.001 15c-8 0 -20 -5.33301 -36 -16
c-5.33301 -3.33301 -12.666 -8.66602 -21.999 -15.999l-2 3c6 12.667 11.667 22 17 28c17.333 18.667 40.333 28 69 28c16 0 31 -5 45 -15s21 -22.333 21 -37z" />
    <glyph glyph-name="acute" unicode="&#xb4;" 
d="M280 624l-116 -156l-36 4l48 152h104z" />
    <glyph glyph-name="mu" unicode="&#xb5;" horiz-adv-x="445" 
d="M441 96c0 -44 -6.33398 -72.667 -19.001 -86c-6 -6 -16.333 -9 -31 -9c-10.667 0 -19.834 1 -27.501 3s-13 4.16699 -16 6.5s-7.16699 6.33301 -12.5 12s-9.5 11.5 -12.5 17.5s-4.66699 11.5 -5 16.5s-0.5 10.167 -0.5 15.5c-11.333 -14 -19.666 -24 -24.999 -30
c-10 -12 -20 -20 -30 -24c-4.66699 -2 -16.834 -5 -36.501 -9s-31.167 -6 -34.5 -6c-14 0 -30.667 2.5 -50 7.5s-33 11.167 -41 18.5l-8 4c13.333 -45.333 21 -71.666 23 -78.999c6.66699 -27.333 10 -53.333 10 -78c0 -20 -5.16699 -36.833 -15.5 -50.5
s-22.166 -20.5 -35.499 -20.5s-23.666 5.5 -30.999 16.5s-11 30.5 -11 58.5c0 21.333 5 61.666 15 120.999c5.33301 31.333 8 56 8 74l-1 45v5l-1 21l2 135v22c0 8 0.333008 16.667 1 26c0 13.333 -0.833008 26.166 -2.5 38.499s-4.16699 22.5 -7.5 30.5
c-5.33301 10.667 -14.333 17.334 -27 20.001c-2 0 -5 0.333008 -9 1l1 12h56h52l-1 -99l1 -132c0 -6.66699 -0.333008 -16 -1 -28s-1 -20.667 -1 -26v-13c1.33301 -6 2 -10.667 2 -14c4 -24 13.5 -42.833 28.5 -56.5s37.5 -20.5 67.5 -20.5c24.667 0 45.5 5 62.5 15
s29.167 25.667 36.5 47c3.33301 10.667 5 22.667 5 36c0 6.66699 -0.166992 13.5 -0.5 20.5s-0.5 14.5 -0.5 22.5v143v18c0 17.333 -0.5 30.333 -1.5 39s-4 15.5 -9 20.5s-13.5 9.16699 -25.5 12.5c-4 0.666992 -9.66699 1.66699 -17 3v13h66h49l2 -102v-174
c0 -4 -0.333008 -11.833 -1 -23.5s-1 -20.834 -1 -27.501c0 -9.33301 0.333008 -17.5 1 -24.5s2.33398 -12.833 5.00098 -17.5c6 -13.333 12.333 -20 19 -20c6 0 12 7.33301 18 22c11.333 28.667 16.666 43.334 15.999 44.001c1.33301 -2 2 -6.33301 2 -13z" />
    <glyph glyph-name="paragraph" unicode="&#xb6;" horiz-adv-x="469" 
d="M415 695l-4.99902 -42.998h-48v-66.5c0 -23 0.333008 -50.5 1 -82.5l4 -96v-136v-104l4 -260l4 -32v-60l-42 2v601l-1 228h-75l1 -830h-38l-4 516c-60 0 -106 12.333 -138 37c-36 28 -54 70.333 -54 127c0 40 7 72.667 21 98s51 56.666 111 93.999c6 3.33301 16 5 30 5
c7.33301 0 15.333 -0.166992 24 -0.5s18 -0.5 28 -0.5c46 0 81.167 0.166992 105.5 0.5s48.166 1.16602 71.499 2.49902z" />
    <glyph glyph-name="periodcentered" unicode="&#xb7;" horiz-adv-x="210" 
d="M146 261c-9.33301 -14 -23 -21 -41 -21c-10.667 0 -19.667 2.66699 -27 8c-14 9.33301 -21 23 -21 41c0 10 3 19 9 27c9.33301 14 23 21 41 21c10 0 19 -3 27 -9c14 -10 21 -23.333 21 -40c0 -10 -3 -19 -9 -27z" />
    <glyph glyph-name="periodcentered" unicode="&#x2219;" horiz-adv-x="210" 
d="M146 261c-9.33301 -14 -23 -21 -41 -21c-10.667 0 -19.667 2.66699 -27 8c-14 9.33301 -21 23 -21 41c0 10 3 19 9 27c9.33301 14 23 21 41 21c10 0 19 -3 27 -9c14 -10 21 -23.333 21 -40c0 -10 -3 -19 -9 -27z" />
    <glyph glyph-name="cedilla" unicode="&#xb8;" horiz-adv-x="264" 
d="M200 -104c0 -14.667 -5.8291 -28.5 -17.4961 -41.5s-22.334 -21.5 -32.001 -25.5s-17.834 -6.5 -24.501 -7.5s-15.334 -1.5 -26.001 -1.5h-18h-32v16h14c16.667 0 27.167 0.333008 31.5 1s11.166 3 20.499 7c18.667 8 28 21.667 28 41c0 8 -1.83301 15.333 -5.5 22
s-9.33398 11.167 -17.001 13.5s-16.5 3.5 -26.5 3.5c-6 0 -11.167 -0.166992 -15.5 -0.5s-8.16602 -0.833008 -11.499 -1.5c6.66699 10 15.667 25 27 45l27 47c8.66699 -4.66699 18 -7.33398 28 -8.00098c-5.33301 -6 -10.333 -12.167 -15 -18.5s-9 -12.833 -13 -19.5
c22 0 41 -8.66699 57 -26c14 -15.333 21 -30.666 21 -45.999z" />
    <glyph glyph-name="onesuperior" unicode="&#xb9;" horiz-adv-x="153" 
d="M128 410l-63 -1.99805h-32v4c12 0 19.833 3.66699 23.5 11s5.5 17 5.5 29c0 20.667 -0.666992 47.667 -2 81s-2 60.666 -2 81.999v29l-2 18c-2 3.33301 -8.66699 2.66602 -20 -2.00098l-8 -4l-5 10l68 38v-40l2 -212c0 -14 1.83301 -23.833 5.5 -29.5
s13.5 -8.5 29.5 -8.5v-4z" />
    <glyph glyph-name="ordmasculine" unicode="&#xba;" horiz-adv-x="213" 
d="M200 574c0.666992 -6.66699 1.16602 -12.5 1.49902 -17.5s0.5 -9.16699 0.5 -12.5c0 -40 -7.33301 -73.667 -22 -101c-16.667 -31.333 -39 -47 -67 -47c-5.33301 0 -9.33301 0.333008 -12 1c-28 5.33301 -49.5 22.166 -64.5 50.499s-22.5 61.5 -22.5 99.5
c0 46.667 5.66699 84.334 17 113.001c14.667 38 37.667 57 69 57c30 0 53.667 -14.667 71 -44c14.667 -24.667 24.334 -57.667 29.001 -99zM155.999 564c0 42 -1.66602 71.001 -4.99902 87.001c-6.66699 31.333 -21 47 -43 47c-21.333 0 -35.666 -15.333 -42.999 -46
c-4.66699 -20 -7 -50.667 -7 -92v-29c0 -44.667 4.16699 -74.334 12.5 -89.001s21.166 -22 38.499 -22c19.333 0 32.666 8.33301 39.999 25c5.33301 12.667 8 34 8 64c0 8.66699 -0.166992 17.5 -0.5 26.5s-0.5 18.5 -0.5 28.5z" />
    <glyph glyph-name="guillemotright" unicode="&#xbb;" horiz-adv-x="508" 
d="M286 258l-208 -244h-48l156 249l-140 235h32zM474 258l-208 -244h-48l156 249l-140 235h32z" />
    <glyph glyph-name="onequarter" unicode="&#xbc;" horiz-adv-x="680" 
d="M282 389l-68.998 -2h-35v4c13.333 0 22.166 4 26.499 12s5.83301 18.667 4.5 32c0 22.667 -0.666992 52.334 -2 89.001s-2 67 -2 91v31v11c0 4 -0.666992 7 -2 9c-2 3.33301 -7.66699 3.33301 -17 0c-2.66699 -0.666992 -7.33398 -2.66699 -14.001 -6l-5 11l74 41v-23.5
v-20.5l3 -233c0 -14.667 2.16699 -25.334 6.5 -32.001s14.833 -10 31.5 -10v-4zM574.002 132h-35.001v-36v-48l-17 1c-6.66699 -2 -13.667 -3.33301 -21 -4l-1 87l-91 -2h-54c2 10.667 2.66699 18.167 2 22.5s-1 7.5 -1 9.5c10.667 12.667 38 55.667 82 129l64 107l33 2
l-1 -51l2 -178h36c-0.666992 -3.33301 -0.666992 -8.5 0 -15.5s1.33398 -14.833 2.00098 -23.5zM628.001 600l-532 -532h-52l532 532h52zM502.001 356l-117 -187l115 2z" />
    <glyph glyph-name="onehalf" unicode="&#xbd;" horiz-adv-x="668" 
d="M270 401l-68.998 -2h-35v4c13.333 0 22.166 4 26.499 12s5.83301 18.667 4.5 32c0 22.667 -0.666992 52.334 -2 89.001s-2 67 -2 91v31v11c0 4 -0.666992 7 -2 9c-2 3.33301 -7.66699 3.33301 -17 0c-2.66699 -0.666992 -7.33398 -2.66699 -14.001 -6l-5 11l74 41v-23.5
v-20.5l3 -233c0 -14.667 2.16699 -25.334 6.5 -32.001s14.833 -10 31.5 -10v-4zM613.002 90c-7.33301 -13.333 -12.998 -23 -16.998 -29c-12 -20 -19.667 -31 -23 -33l-87 -2c-14 0 -28.333 0.333008 -43 1s-28 1.66699 -40 3l13 15c28.667 26 45.667 42.333 51 49l43 40
c22.667 26.667 34 57 34 91c0 25.333 -5.33301 45.5 -16 60.5s-24.667 22.5 -42 22.5c-28 0 -49 -8.66699 -63 -26c-4.66699 -5.33301 -9 -14.333 -13 -27l-13 3c1.33301 8 2.66602 14.333 3.99902 19c4 14.667 9.66699 26 17 34c6 8 17.333 16.333 34 25s32.667 13 48 13
c8.66699 0 17 -2 25 -6c17.333 -7.33301 31.666 -18.333 42.999 -33s17 -32 17 -52c0 -18 -2.83301 -35 -8.5 -51s-14.5 -33.667 -26.5 -53c-16 -24 -36.667 -46.667 -62 -68c-8 -7.33301 -19.333 -16 -34 -26c17.333 0.666992 33.333 1.16699 48 1.5
s32.334 0.833008 53.001 1.5c10.667 0 25.667 6 45 18c3.33301 2 7.66602 5 12.999 9zM616.004 612l-540 -540h-52l540 540h52z" />
    <glyph glyph-name="threequarters" unicode="&#xbe;" horiz-adv-x="612" 
d="M290 688c0 -22 -9.66602 -43.665 -28.999 -64.998c-6 -6.66699 -16 -15.334 -30 -26.001c12.667 -11.333 22 -20 28 -26c18.667 -19.333 28 -34 28 -44c0 -52 -11.667 -89 -35 -111c-19.333 -18 -47 -27 -83 -27c-12 0 -20.833 0.333008 -26.5 1
s-12.5 3.33398 -20.5 8.00098s-12 11.667 -12 21c0 3.33301 1.83301 7.16602 5.5 11.499s8.16699 6.5 13.5 6.5c9.33301 0 16.5 -2.83301 21.5 -8.5s10.333 -10.667 16 -15s14.5 -6.5 26.5 -6.5c14 1.33301 27.333 9.66602 40 24.999c10.667 12.667 16 27.334 16 44.001
c0 37.333 -16.333 65.666 -49 84.999c-10.667 6 -27 12 -49 18c20 8 35 15 45 21c30 19.333 45 41.333 45 66c0 20 -4.16699 33.167 -12.5 39.5s-21.5 9.5 -39.5 9.5c-9.33301 0 -22.666 -5.66699 -39.999 -17c-5.33301 -3.33301 -13.333 -9.33301 -24 -18l-2 3
c6.66699 14 13 24.333 19 31c19.333 20.667 44.666 31 75.999 31c17.333 0 33.666 -5.5 48.999 -16.5s23 -24.5 23 -40.5zM584.001 612.002l-508 -508h-52l508 508h52zM530.001 140.002h-35.001v-36v-48l-17 1c-6.66699 -2 -13.667 -3.33301 -21 -4l-1 87l-91 -2h-54
c2 10.667 2.66699 18.167 2 22.5s-1 7.5 -1 9.5c10.667 12.667 38 55.667 82 129l64 107l33 2l-1 -51l2 -178h36c-0.666992 -3.33301 -0.666992 -8.5 0 -15.5s1.33398 -14.833 2.00098 -23.5zM458 364.002l-117 -187l115 2z" />
    <glyph glyph-name="questiondown" unicode="&#xbf;" horiz-adv-x="437" 
d="M263 612c-9.33301 -12 -21.666 -18 -36.999 -18c-10.667 0 -19.667 3.33301 -27 10c-12 9.33301 -18 21.666 -18 36.999c0 10.667 3.33301 19.667 10 27c9.33301 12 21.666 18 36.999 18c10.667 0 19.667 -3.33301 27 -10c12 -9.33301 18 -21.666 18 -36.999
c0 -10.667 -3.33301 -19.667 -10 -27zM420 172c0 -42 -16.999 -77.333 -50.999 -106c-28.667 -24 -67.667 -42 -117 -54c-12 -2.66699 -22.167 -4.66699 -30.5 -6s-17.166 -2 -26.499 -2c-14.667 0 -30.334 2.33301 -47.001 7c-41.333 12 -73.666 32.167 -96.999 60.5
s-35 64.833 -35 109.5c0 27.333 4.16699 54.166 12.5 80.499s20.166 48.166 35.499 65.499l76 88c19.333 18.667 35.666 38.667 48.999 60c17.333 27.333 26 51.666 26 72.999h28v-11c0 -7.33301 -0.333008 -14.5 -1 -21.5s-2.16699 -13.167 -4.5 -18.5
s-28.5 -44.333 -78.5 -117c-31.333 -45.333 -47 -105.666 -47 -180.999c0 -50 5.33301 -86 16 -108c14 -28.667 40.333 -43 79 -43c33.333 0 65.333 10 96 30c35.333 22.667 53 50 53 82c0 9.33301 -7 17.333 -21 24c-34.667 16.667 -54.334 38 -59.001 64
c-1.33301 6.66699 2.33398 15.834 11.001 27.501s17.167 19.334 25.5 23.001s17.5 5.5 27.5 5.5h16c14 0 28.667 -19 44 -57c13.333 -33.333 20 -58.333 20 -75z" />
    <glyph glyph-name="Agrave" unicode="&#xc0;" horiz-adv-x="610" 
d="M585 5l-190 -0.000976562v11c6.66699 1.33301 11.667 2.66602 15 3.99902c10 5.33301 15 15.333 15 30l-23 88c-7.33301 26.667 -18 60 -32 100c-2 6.66699 -5.33301 15.667 -10 27c-15.333 0 -30.666 -0.166992 -45.999 -0.5s-34 -0.5 -56 -0.5l-43 1l-9 -20
c-7.33301 -16.667 -12 -28.334 -14 -35.001c-5.33301 -20.667 -10.333 -37.667 -15 -51c-6.66699 -18.667 -13.5 -35.167 -20.5 -49.5s-13.5 -28.5 -19.5 -42.5l-7 -17c0 -14 5.66699 -24 17 -30c3.33301 -1.33301 9.33301 -2.66602 18 -3.99902v-11h-140v11
c10 -0.666992 17.667 -0.666992 23 0c17.333 4 29.666 15.333 36.999 34l23 61l45 126c4 12 11 29 21 51l36 84l33 93l24 96c9.33301 27.333 18 48.333 26 63c1.33301 2.66699 3.66602 6.33398 6.99902 11.001h46l20 -50l28 -72c6.66699 -18 12.334 -34 17.001 -48
c2 -5.33301 7.33301 -25.666 16 -60.999c1.33301 -6.66699 5 -19.334 11 -38.001l45 -151l27 -89l20 -76c2 -14 11.667 -24 29 -30c5.33301 -1.33301 14 -2.66602 26 -3.99902v-11zM355 294.999l-22.001 83l-33 112c-4.66699 -14 -8 -25 -10 -33l-20 -61
c-5.33301 -16 -13.666 -37.667 -24.999 -65c-3.33301 -8.66699 -8.33301 -20.667 -15 -36c13.333 0 26.833 -0.166992 40.5 -0.5s30.5 -0.5 50.5 -0.5zM153.999 183.999v800h700v-800h-700zM803.999 233.999v700h-600v-700h600z" />
    <glyph glyph-name="Aacute" unicode="&#xc1;" horiz-adv-x="610" 
d="M585 5l-190 -0.000976562v11c6.66699 1.33301 11.667 2.66602 15 3.99902c10 5.33301 15 15.333 15 30l-23 88c-7.33301 26.667 -18 60 -32 100c-2 6.66699 -5.33301 15.667 -10 27c-15.333 0 -30.666 -0.166992 -45.999 -0.5s-34 -0.5 -56 -0.5l-43 1l-9 -20
c-7.33301 -16.667 -12 -28.334 -14 -35.001c-5.33301 -20.667 -10.333 -37.667 -15 -51c-6.66699 -18.667 -13.5 -35.167 -20.5 -49.5s-13.5 -28.5 -19.5 -42.5l-7 -17c0 -14 5.66699 -24 17 -30c3.33301 -1.33301 9.33301 -2.66602 18 -3.99902v-11h-140v11
c10 -0.666992 17.667 -0.666992 23 0c17.333 4 29.666 15.333 36.999 34l23 61l45 126c4 12 11 29 21 51l36 84l33 93l24 96c9.33301 27.333 18 48.333 26 63c1.33301 2.66699 3.66602 6.33398 6.99902 11.001h46l20 -50l28 -72c6.66699 -18 12.334 -34 17.001 -48
c2 -5.33301 7.33301 -25.666 16 -60.999c1.33301 -6.66699 5 -19.334 11 -38.001l45 -151l27 -89l20 -76c2 -14 11.667 -24 29 -30c5.33301 -1.33301 14 -2.66602 26 -3.99902v-11zM355 294.999l-22.001 83l-33 112c-4.66699 -14 -8 -25 -10 -33l-20 -61
c-5.33301 -16 -13.666 -37.667 -24.999 -65c-3.33301 -8.66699 -8.33301 -20.667 -15 -36c13.333 0 26.833 -0.166992 40.5 -0.5s30.5 -0.5 50.5 -0.5zM443.999 799.999l-116 -156l-36 4l48 152h104z" />
    <glyph glyph-name="Acircumflex" unicode="&#xc2;" horiz-adv-x="610" 
d="M585 5l-190 -0.000976562v11c6.66699 1.33301 11.667 2.66602 15 3.99902c10 5.33301 15 15.333 15 30l-23 88c-7.33301 26.667 -18 60 -32 100c-2 6.66699 -5.33301 15.667 -10 27c-15.333 0 -30.666 -0.166992 -45.999 -0.5s-34 -0.5 -56 -0.5l-43 1l-9 -20
c-7.33301 -16.667 -12 -28.334 -14 -35.001c-5.33301 -20.667 -10.333 -37.667 -15 -51c-6.66699 -18.667 -13.5 -35.167 -20.5 -49.5s-13.5 -28.5 -19.5 -42.5l-7 -17c0 -14 5.66699 -24 17 -30c3.33301 -1.33301 9.33301 -2.66602 18 -3.99902v-11h-140v11
c10 -0.666992 17.667 -0.666992 23 0c17.333 4 29.666 15.333 36.999 34l23 61l45 126c4 12 11 29 21 51l36 84l33 93l24 96c9.33301 27.333 18 48.333 26 63c1.33301 2.66699 3.66602 6.33398 6.99902 11.001h46l20 -50l28 -72c6.66699 -18 12.334 -34 17.001 -48
c2 -5.33301 7.33301 -25.666 16 -60.999c1.33301 -6.66699 5 -19.334 11 -38.001l45 -151l27 -89l20 -76c2 -14 11.667 -24 29 -30c5.33301 -1.33301 14 -2.66602 26 -3.99902v-11zM355 294.999l-22.001 83l-33 112c-4.66699 -14 -8 -25 -10 -33l-20 -61
c-5.33301 -16 -13.666 -37.667 -24.999 -65c-3.33301 -8.66699 -8.33301 -20.667 -15 -36c13.333 0 26.833 -0.166992 40.5 -0.5s30.5 -0.5 50.5 -0.5zM487.999 643.999l-24 -8l-144 92l-104 -84l-24 4l94 142l78 -2z" />
    <glyph glyph-name="Atilde" unicode="&#xc3;" horiz-adv-x="610" 
d="M585 5l-190 -0.000976562v11c6.66699 1.33301 11.667 2.66602 15 3.99902c10 5.33301 15 15.333 15 30l-23 88c-7.33301 26.667 -18 60 -32 100c-2 6.66699 -5.33301 15.667 -10 27c-15.333 0 -30.666 -0.166992 -45.999 -0.5s-34 -0.5 -56 -0.5l-43 1l-9 -20
c-7.33301 -16.667 -12 -28.334 -14 -35.001c-5.33301 -20.667 -10.333 -37.667 -15 -51c-6.66699 -18.667 -13.5 -35.167 -20.5 -49.5s-13.5 -28.5 -19.5 -42.5l-7 -17c0 -14 5.66699 -24 17 -30c3.33301 -1.33301 9.33301 -2.66602 18 -3.99902v-11h-140v11
c10 -0.666992 17.667 -0.666992 23 0c17.333 4 29.666 15.333 36.999 34l23 61l45 126c4 12 11 29 21 51l36 84l33 93l24 96c9.33301 27.333 18 48.333 26 63c1.33301 2.66699 3.66602 6.33398 6.99902 11.001h46l20 -50l28 -72c6.66699 -18 12.334 -34 17.001 -48
c2 -5.33301 7.33301 -25.666 16 -60.999c1.33301 -6.66699 5 -19.334 11 -38.001l45 -151l27 -89l20 -76c2 -14 11.667 -24 29 -30c5.33301 -1.33301 14 -2.66602 26 -3.99902v-11zM355 294.999l-22.001 83l-33 112c-4.66699 -14 -8 -25 -10 -33l-20 -61
c-5.33301 -16 -13.666 -37.667 -24.999 -65c-3.33301 -8.66699 -8.33301 -20.667 -15 -36c13.333 0 26.833 -0.166992 40.5 -0.5s30.5 -0.5 50.5 -0.5zM540.999 789.999c0 -33.333 -13.167 -60 -39.5 -80s-58.833 -30 -97.5 -30c-27.333 0 -55.333 8.33301 -84 25
c-64 37.333 -107.333 56 -130 56c-7.33301 0 -16.333 -5.66699 -27 -17l-41 -47c0 42 9 76.5 27 103.5s44 40.5 78 40.5c24 0 49 -8 75 -24c58.667 -36 96.334 -54 113.001 -54c38 0 69 15 93 45c8 10 16.333 25.333 25 46l5 -3c1.33301 -9.33301 2.16602 -20 2.49902 -32
s0.5 -21.667 0.5 -29z" />
    <glyph glyph-name="Adieresis" unicode="&#xc4;" horiz-adv-x="610" 
d="M585 5l-190 -0.000976562v11c6.66699 1.33301 11.667 2.66602 15 3.99902c10 5.33301 15 15.333 15 30l-23 88c-7.33301 26.667 -18 60 -32 100c-2 6.66699 -5.33301 15.667 -10 27c-15.333 0 -30.666 -0.166992 -45.999 -0.5s-34 -0.5 -56 -0.5l-43 1l-9 -20
c-7.33301 -16.667 -12 -28.334 -14 -35.001c-5.33301 -20.667 -10.333 -37.667 -15 -51c-6.66699 -18.667 -13.5 -35.167 -20.5 -49.5s-13.5 -28.5 -19.5 -42.5l-7 -17c0 -14 5.66699 -24 17 -30c3.33301 -1.33301 9.33301 -2.66602 18 -3.99902v-11h-140v11
c10 -0.666992 17.667 -0.666992 23 0c17.333 4 29.666 15.333 36.999 34l23 61l45 126c4 12 11 29 21 51l36 84l33 93l24 96c9.33301 27.333 18 48.333 26 63c1.33301 2.66699 3.66602 6.33398 6.99902 11.001h46l20 -50l28 -72c6.66699 -18 12.334 -34 17.001 -48
c2 -5.33301 7.33301 -25.666 16 -60.999c1.33301 -6.66699 5 -19.334 11 -38.001l45 -151l27 -89l20 -76c2 -14 11.667 -24 29 -30c5.33301 -1.33301 14 -2.66602 26 -3.99902v-11zM355 294.999l-22.001 83l-33 112c-4.66699 -14 -8 -25 -10 -33l-20 -61
c-5.33301 -16 -13.666 -37.667 -24.999 -65c-3.33301 -8.66699 -8.33301 -20.667 -15 -36c13.333 0 26.833 -0.166992 40.5 -0.5s30.5 -0.5 50.5 -0.5zM441.999 749.999c6.66699 -8.66699 10 -18.667 10 -30c0 -16.667 -6.66699 -30 -20 -40
c-8.66699 -6.66699 -18.667 -10 -30 -10c-16.667 0 -30 6.66699 -40 20c-6.66699 8.66699 -10 18.667 -10 30c0 16.667 6.66699 30 20 40c8.66699 6.66699 18.667 10 30 10c16.667 0 30 -6.66699 40 -20zM287.999 687.999c-9.33301 -14 -23 -21 -41 -21c-10 0 -19 3 -27 9
c-14 9.33301 -21 23 -21 41c0 10 3 19 9 27c9.33301 14 23 21 41 21c10 0 19 -3 27 -9c14 -9.33301 21 -23 21 -41c0 -10 -3 -19 -9 -27z" />
    <glyph glyph-name="Aring" unicode="&#xc5;" horiz-adv-x="610" 
d="M585 5l-190 -0.000976562v11c6.66699 1.33301 11.667 2.66602 15 3.99902c10 5.33301 15 15.333 15 30l-23 88c-7.33301 26.667 -18 60 -32 100c-2 6.66699 -5.33301 15.667 -10 27c-15.333 0 -30.666 -0.166992 -45.999 -0.5s-34 -0.5 -56 -0.5l-43 1l-9 -20
c-7.33301 -16.667 -12 -28.334 -14 -35.001c-5.33301 -20.667 -10.333 -37.667 -15 -51c-6.66699 -18.667 -13.5 -35.167 -20.5 -49.5s-13.5 -28.5 -19.5 -42.5l-7 -17c0 -14 5.66699 -24 17 -30c3.33301 -1.33301 9.33301 -2.66602 18 -3.99902v-11h-140v11
c10 -0.666992 17.667 -0.666992 23 0c17.333 4 29.666 15.333 36.999 34l23 61l45 126c4 12 11 29 21 51l36 84l33 93l24 96c9.33301 27.333 18 48.333 26 63c1.33301 2.66699 3.66602 6.33398 6.99902 11.001h46l20 -50l28 -72c6.66699 -18 12.334 -34 17.001 -48
c2 -5.33301 7.33301 -25.666 16 -60.999c1.33301 -6.66699 5 -19.334 11 -38.001l45 -151l27 -89l20 -76c2 -14 11.667 -24 29 -30c5.33301 -1.33301 14 -2.66602 26 -3.99902v-11zM355 294.999l-22.001 83l-33 112c-4.66699 -14 -8 -25 -10 -33l-20 -61
c-5.33301 -16 -13.666 -37.667 -24.999 -65c-3.33301 -8.66699 -8.33301 -20.667 -15 -36c13.333 0 26.833 -0.166992 40.5 -0.5s30.5 -0.5 50.5 -0.5zM444.999 709.999c0 -33.333 -12.002 -61.002 -36.002 -83.002s-53 -33 -87 -33c-33.333 0 -61.166 11.833 -83.499 35.5
s-33.5 52.834 -33.5 87.501c0 32.667 12 60.334 36 83.001s53 34 87 34c32.667 0 60.334 -12.333 83.001 -37s34 -53.667 34 -87zM405.997 716.997c0 25.333 -8.83301 46.833 -26.5 64.5s-39.167 26.5 -64.5 26.5s-46.833 -8.83301 -64.5 -26.5s-26.5 -39.167 -26.5 -64.5
c0 -26 8.66699 -47.667 26 -65s39 -26 65 -26s47.667 8.66699 65 26s26 39 26 65z" />
    <glyph glyph-name="AE" unicode="&#xc6;" horiz-adv-x="840" 
d="M819 158l-41.9893 -152.001c-4 1.33301 -7.33301 2.33301 -10 3c-20 5.33301 -43 8 -69 8c-13.333 0 -31.333 -1 -54 -3c-53.333 -4.66699 -87 -7 -101 -7c-9.33301 0 -24.833 0.833008 -46.5 2.5s-32.834 2.5 -33.501 2.5l-94 -6h-80v18
c5.33301 0 13.666 0.333008 24.999 1s22 5 32 13c5.33301 4 10.666 11.667 15.999 23c1.33301 3.33301 3.66602 8.33301 6.99902 15c-0.666992 6.66699 -1 12.667 -1 18c-3.33301 42 -5 81.333 -5 118l3 52h-108l-43 1l-9 -20c-7.33301 -16.667 -12 -28.334 -14 -35.001
c-5.33301 -20.667 -10.333 -37.667 -15 -51c-6.66699 -18.667 -13.5 -35.167 -20.5 -49.5s-13.5 -28.5 -19.5 -42.5l-7 -17c0 -14 5.66699 -24 17 -30c3.33301 -1.33301 9.33301 -2.66602 18 -3.99902v-11h-140v11c10 -0.666992 17.667 -0.666992 23 0
c17.333 4 29.666 15.333 36.999 34l23 61l45 126c4 12 11 29 21 51l36 84l33 93l24 96c1.33301 3.33301 2 8.33301 2 15c0 16 -8.66699 30.667 -26 44c-5.33301 4 -14.333 9.33301 -27 16v6l153 1c14.667 0.666992 26.667 1.33398 36 2.00098c66.667 4.66699 111 7 133 7
c39.333 0 86 -1.33301 140 -4c19.333 -0.666992 45 -2.33398 77 -5.00098l6 -112h-6c-3.33301 12 -6.33301 21 -9 27c-8 18.667 -17.333 31.667 -28 39c-6.66699 4 -16 7.66699 -28 11c-4 0.666992 -9.66699 1.66699 -17 3l-65 1l-137 -1
c-2.66699 -22.667 -4.66699 -40.667 -6 -54c-4.66699 -46 -7 -79.333 -7 -100c0 -15.333 2 -34 6 -56c1.33301 -7.33301 3.66602 -17.666 6.99902 -30.999c7.33301 1.33301 13.333 2 18 2c29.333 3.33301 52.333 5 69 5c12.667 0 24.667 -0.666992 36 -2s22 -3 32 -5
c7.33301 -1.33301 13.166 -1.16602 17.499 0.500977s9.16602 6.83398 14.499 15.501c2 2.66699 5.66699 16.667 11 42c0.666992 4 2 9.66699 4 17h12v-75v-48v-79h-12l-3 29c-3.33301 20 -7.33301 32.667 -12 38s-10.167 8.5 -16.5 9.5l-15.5 2.5h-155
c1.33301 -19.333 2.83301 -42.333 4.5 -69s2.5 -47 2.5 -61c0 -20.667 -0.666992 -40.334 -2 -59.001s-3 -36.334 -5 -53.001c1.33301 -3.33301 3.16602 -6.5 5.49902 -9.5s5.16602 -6.16699 8.49902 -9.5c5.33301 -8 14.666 -12 27.999 -12l100 -2l72 2l29.5 2
c9.66699 0.666992 17.5 2 23.5 4s19.667 19.667 41 53l30 50h10zM369.011 576.999c-1.33301 4.66699 -2.66895 8 -4.00195 10c-3.33301 6 -7.66602 12 -12.999 18l-52 -115c-4.66699 -14 -8 -25 -10 -33l-20 -61c-5.33301 -16 -13.666 -37.667 -24.999 -65
c-3.33301 -8.66699 -8.33301 -20.667 -15 -36c18.667 0 38.5 -0.166992 59.5 -0.5s47.167 -0.5 78.5 -0.5v13c0 24.667 -0.833008 54 -2.5 88s-2.5 53 -2.5 57z" />
    <glyph glyph-name="Ccedilla" unicode="&#xc7;" horiz-adv-x="590" 
d="M563 148c-28 -42.667 -60.666 -74.9971 -97.999 -96.9971s-81.333 -33 -132 -33c-11.333 0 -22 0.833008 -32 2.5s-31.167 6.83398 -63.5 15.501s-63.5 23 -93.5 43s-54.667 45.333 -74 76c-28 45.333 -42 95.666 -42 150.999c0 42 2.83301 78.167 8.5 108.5
s16.834 57.166 33.501 80.499c6.66699 9.33301 17.167 18.666 31.5 27.999l33.5 22l44 27.5c15.333 9.66699 31 17.334 47 23.001s31 10 45 13s29.667 4.5 47 4.5c11.333 0 23.833 -0.166992 37.5 -0.5s27.167 -1.5 40.5 -3.5c3.33301 0 15.166 -4.33301 35.499 -13
s33.5 -13 39.5 -13h14c1.33301 0.666992 3 4 5 10c2.66699 4.66699 6 12.334 10 23.001c0 1.33301 0.666992 3.33301 2 6h15l10 -140h-13c-8 12 -15 21.333 -21 28c-38.667 42 -86 63 -142 63c-14.667 0 -27.834 -0.833008 -39.501 -2.5s-25.167 -5.83398 -40.5 -12.501
c-8.66699 -4 -23 -12.167 -43 -24.5s-37.5 -27 -52.5 -44s-26.833 -36.833 -35.5 -59.5c-5.33301 -14.667 -8.83301 -32 -10.5 -52s-2.5 -42.667 -2.5 -68c0 -28 2.5 -55 7.5 -81s13.5 -49 25.5 -69c18 -30 41.833 -54.5 71.5 -73.5s62.167 -28.5 97.5 -28.5
c5.33301 -0.666992 10 -1 14 -1h13c22.667 0 41 2.16699 55 6.5s29.333 11.166 46 20.499s33.667 21 51 35c12 9.33301 27.333 22.666 46 39.999zM396.001 -79.9971c0 -14.667 -5.8291 -28.5 -17.4961 -41.5s-22.334 -21.5 -32.001 -25.5s-17.834 -6.5 -24.501 -7.5
s-15.334 -1.5 -26.001 -1.5h-18h-32v16h14c16.667 0 27.167 0.333008 31.5 1s11.166 3 20.499 7c18.667 8 28 21.667 28 41c0 8 -1.83301 15.333 -5.5 22s-9.33398 11.167 -17.001 13.5s-16.5 3.5 -26.5 3.5c-6 0 -11.167 -0.166992 -15.5 -0.5
s-8.16602 -0.833008 -11.499 -1.5c6.66699 10 15.667 25 27 45l27 47c8.66699 -4.66699 18 -7.33398 28 -8.00098c-5.33301 -6 -10.333 -12.167 -15 -18.5s-9 -12.833 -13 -19.5c22 0 41 -8.66699 57 -26c14 -15.333 21 -30.666 21 -45.999z" />
    <glyph glyph-name="Egrave" unicode="&#xc8;" horiz-adv-x="565" 
d="M551 166l-41.9912 -152.001c-4 1.33301 -7.33301 2.33301 -10 3c-20 5.33301 -43 8 -69 8c-13.333 0 -31.333 -1 -54 -3c-53.333 -4.66699 -87 -7 -101 -7c-9.33301 0 -24.833 0.833008 -46.5 2.5s-32.834 2.5 -33.501 2.5l-94 -6h-80v18
c5.33301 0 13.666 0.333008 24.999 1s22 5 32 13c5.33301 4 10.666 11.667 15.999 23c1.33301 3.33301 3.66602 8.33301 6.99902 15c-0.666992 6.66699 -1 12.667 -1 18c-3.33301 42 -5 81.333 -5 118c0 10 0.833008 27.667 2.5 53s2.5 39.333 2.5 42
c0 24.667 -0.833008 54 -2.5 88s-2.5 53 -2.5 57l6 125c-2.66699 6 -4.66699 10.333 -6 13c-5.33301 9.33301 -11.333 16.5 -18 21.5s-18 8.5 -34 10.5c-5.33301 0 -12.666 0.333008 -21.999 1v20h80c14.667 0.666992 26.667 1.33398 36 2.00098c66.667 4.66699 111 7 133 7
c39.333 0 86 -1.33301 140 -4c19.333 -0.666992 45 -2.33398 77 -5.00098l6 -112h-6c-3.33301 12 -6.33301 21 -9 27c-8 18.667 -17.333 31.667 -28 39c-6.66699 4 -16 7.66699 -28 11c-4 0.666992 -9.66699 1.66699 -17 3l-65 1l-137 -1
c-2.66699 -22.667 -4.66699 -40.667 -6 -54c-4.66699 -46 -7 -79.333 -7 -100c0 -15.333 2 -34 6 -56c1.33301 -7.33301 3.66602 -17.666 6.99902 -30.999c7.33301 1.33301 13.333 2 18 2c29.333 3.33301 52.333 5 69 5c12.667 0 24.667 -0.666992 36 -2s22 -3 32 -5
c7.33301 -1.33301 13.166 -1.16602 17.499 0.500977s9.16602 6.83398 14.499 15.501c2 2.66699 5.66699 16.667 11 42c0.666992 4 2 9.66699 4 17h12v-75v-48v-79h-12l-3 29c-3.33301 20 -7.33301 32.667 -12 38s-10.167 8.5 -16.5 9.5l-15.5 2.5h-155
c1.33301 -19.333 2.83301 -42.333 4.5 -69s2.5 -47 2.5 -61c0 -20.667 -0.666992 -40.334 -2 -59.001s-3 -36.334 -5 -53.001c1.33301 -3.33301 3.16602 -6.5 5.49902 -9.5s5.16602 -6.16699 8.49902 -9.5c5.33301 -8 14.666 -12 27.999 -12l100 -2l72 2l29.5 2
c9.66699 0.666992 17.5 2 23.5 4s19.667 19.667 41 53l30 50h10zM138.009 219.999v800h700v-800h-700zM788.009 269.999v700h-600v-700h600z" />
    <glyph glyph-name="Eacute" unicode="&#xc9;" horiz-adv-x="565" 
d="M551 166l-41.9912 -152.001c-4 1.33301 -7.33301 2.33301 -10 3c-20 5.33301 -43 8 -69 8c-13.333 0 -31.333 -1 -54 -3c-53.333 -4.66699 -87 -7 -101 -7c-9.33301 0 -24.833 0.833008 -46.5 2.5s-32.834 2.5 -33.501 2.5l-94 -6h-80v18
c5.33301 0 13.666 0.333008 24.999 1s22 5 32 13c5.33301 4 10.666 11.667 15.999 23c1.33301 3.33301 3.66602 8.33301 6.99902 15c-0.666992 6.66699 -1 12.667 -1 18c-3.33301 42 -5 81.333 -5 118c0 10 0.833008 27.667 2.5 53s2.5 39.333 2.5 42
c0 24.667 -0.833008 54 -2.5 88s-2.5 53 -2.5 57l6 125c-2.66699 6 -4.66699 10.333 -6 13c-5.33301 9.33301 -11.333 16.5 -18 21.5s-18 8.5 -34 10.5c-5.33301 0 -12.666 0.333008 -21.999 1v20h80c14.667 0.666992 26.667 1.33398 36 2.00098c66.667 4.66699 111 7 133 7
c39.333 0 86 -1.33301 140 -4c19.333 -0.666992 45 -2.33398 77 -5.00098l6 -112h-6c-3.33301 12 -6.33301 21 -9 27c-8 18.667 -17.333 31.667 -28 39c-6.66699 4 -16 7.66699 -28 11c-4 0.666992 -9.66699 1.66699 -17 3l-65 1l-137 -1
c-2.66699 -22.667 -4.66699 -40.667 -6 -54c-4.66699 -46 -7 -79.333 -7 -100c0 -15.333 2 -34 6 -56c1.33301 -7.33301 3.66602 -17.666 6.99902 -30.999c7.33301 1.33301 13.333 2 18 2c29.333 3.33301 52.333 5 69 5c12.667 0 24.667 -0.666992 36 -2s22 -3 32 -5
c7.33301 -1.33301 13.166 -1.16602 17.499 0.500977s9.16602 6.83398 14.499 15.501c2 2.66699 5.66699 16.667 11 42c0.666992 4 2 9.66699 4 17h12v-75v-48v-79h-12l-3 29c-3.33301 20 -7.33301 32.667 -12 38s-10.167 8.5 -16.5 9.5l-15.5 2.5h-155
c1.33301 -19.333 2.83301 -42.333 4.5 -69s2.5 -47 2.5 -61c0 -20.667 -0.666992 -40.334 -2 -59.001s-3 -36.334 -5 -53.001c1.33301 -3.33301 3.16602 -6.5 5.49902 -9.5s5.16602 -6.16699 8.49902 -9.5c5.33301 -8 14.666 -12 27.999 -12l100 -2l72 2l29.5 2
c9.66699 0.666992 17.5 2 23.5 4s19.667 19.667 41 53l30 50h10zM360.009 823.999l-116 -156l-36 4l48 152h104z" />
    <glyph glyph-name="Ecircumflex" unicode="&#xca;" horiz-adv-x="565" 
d="M551 166l-41.9912 -152.001c-4 1.33301 -7.33301 2.33301 -10 3c-20 5.33301 -43 8 -69 8c-13.333 0 -31.333 -1 -54 -3c-53.333 -4.66699 -87 -7 -101 -7c-9.33301 0 -24.833 0.833008 -46.5 2.5s-32.834 2.5 -33.501 2.5l-94 -6h-80v18
c5.33301 0 13.666 0.333008 24.999 1s22 5 32 13c5.33301 4 10.666 11.667 15.999 23c1.33301 3.33301 3.66602 8.33301 6.99902 15c-0.666992 6.66699 -1 12.667 -1 18c-3.33301 42 -5 81.333 -5 118c0 10 0.833008 27.667 2.5 53s2.5 39.333 2.5 42
c0 24.667 -0.833008 54 -2.5 88s-2.5 53 -2.5 57l6 125c-2.66699 6 -4.66699 10.333 -6 13c-5.33301 9.33301 -11.333 16.5 -18 21.5s-18 8.5 -34 10.5c-5.33301 0 -12.666 0.333008 -21.999 1v20h80c14.667 0.666992 26.667 1.33398 36 2.00098c66.667 4.66699 111 7 133 7
c39.333 0 86 -1.33301 140 -4c19.333 -0.666992 45 -2.33398 77 -5.00098l6 -112h-6c-3.33301 12 -6.33301 21 -9 27c-8 18.667 -17.333 31.667 -28 39c-6.66699 4 -16 7.66699 -28 11c-4 0.666992 -9.66699 1.66699 -17 3l-65 1l-137 -1
c-2.66699 -22.667 -4.66699 -40.667 -6 -54c-4.66699 -46 -7 -79.333 -7 -100c0 -15.333 2 -34 6 -56c1.33301 -7.33301 3.66602 -17.666 6.99902 -30.999c7.33301 1.33301 13.333 2 18 2c29.333 3.33301 52.333 5 69 5c12.667 0 24.667 -0.666992 36 -2s22 -3 32 -5
c7.33301 -1.33301 13.166 -1.16602 17.499 0.500977s9.16602 6.83398 14.499 15.501c2 2.66699 5.66699 16.667 11 42c0.666992 4 2 9.66699 4 17h12v-75v-48v-79h-12l-3 29c-3.33301 20 -7.33301 32.667 -12 38s-10.167 8.5 -16.5 9.5l-15.5 2.5h-155
c1.33301 -19.333 2.83301 -42.333 4.5 -69s2.5 -47 2.5 -61c0 -20.667 -0.666992 -40.334 -2 -59.001s-3 -36.334 -5 -53.001c1.33301 -3.33301 3.16602 -6.5 5.49902 -9.5s5.16602 -6.16699 8.49902 -9.5c5.33301 -8 14.666 -12 27.999 -12l100 -2l72 2l29.5 2
c9.66699 0.666992 17.5 2 23.5 4s19.667 19.667 41 53l30 50h10zM424.009 695.999l-24 -8l-144 92l-104 -84l-24 4l94 142l78 -2z" />
    <glyph glyph-name="Edieresis" unicode="&#xcb;" horiz-adv-x="565" 
d="M551 166l-41.9912 -152.001c-4 1.33301 -7.33301 2.33301 -10 3c-20 5.33301 -43 8 -69 8c-13.333 0 -31.333 -1 -54 -3c-53.333 -4.66699 -87 -7 -101 -7c-9.33301 0 -24.833 0.833008 -46.5 2.5s-32.834 2.5 -33.501 2.5l-94 -6h-80v18
c5.33301 0 13.666 0.333008 24.999 1s22 5 32 13c5.33301 4 10.666 11.667 15.999 23c1.33301 3.33301 3.66602 8.33301 6.99902 15c-0.666992 6.66699 -1 12.667 -1 18c-3.33301 42 -5 81.333 -5 118c0 10 0.833008 27.667 2.5 53s2.5 39.333 2.5 42
c0 24.667 -0.833008 54 -2.5 88s-2.5 53 -2.5 57l6 125c-2.66699 6 -4.66699 10.333 -6 13c-5.33301 9.33301 -11.333 16.5 -18 21.5s-18 8.5 -34 10.5c-5.33301 0 -12.666 0.333008 -21.999 1v20h80c14.667 0.666992 26.667 1.33398 36 2.00098c66.667 4.66699 111 7 133 7
c39.333 0 86 -1.33301 140 -4c19.333 -0.666992 45 -2.33398 77 -5.00098l6 -112h-6c-3.33301 12 -6.33301 21 -9 27c-8 18.667 -17.333 31.667 -28 39c-6.66699 4 -16 7.66699 -28 11c-4 0.666992 -9.66699 1.66699 -17 3l-65 1l-137 -1
c-2.66699 -22.667 -4.66699 -40.667 -6 -54c-4.66699 -46 -7 -79.333 -7 -100c0 -15.333 2 -34 6 -56c1.33301 -7.33301 3.66602 -17.666 6.99902 -30.999c7.33301 1.33301 13.333 2 18 2c29.333 3.33301 52.333 5 69 5c12.667 0 24.667 -0.666992 36 -2s22 -3 32 -5
c7.33301 -1.33301 13.166 -1.16602 17.499 0.500977s9.16602 6.83398 14.499 15.501c2 2.66699 5.66699 16.667 11 42c0.666992 4 2 9.66699 4 17h12v-75v-48v-79h-12l-3 29c-3.33301 20 -7.33301 32.667 -12 38s-10.167 8.5 -16.5 9.5l-15.5 2.5h-155
c1.33301 -19.333 2.83301 -42.333 4.5 -69s2.5 -47 2.5 -61c0 -20.667 -0.666992 -40.334 -2 -59.001s-3 -36.334 -5 -53.001c1.33301 -3.33301 3.16602 -6.5 5.49902 -9.5s5.16602 -6.16699 8.49902 -9.5c5.33301 -8 14.666 -12 27.999 -12l100 -2l72 2l29.5 2
c9.66699 0.666992 17.5 2 23.5 4s19.667 19.667 41 53l30 50h10zM394.009 765.999c6.66699 -8.66699 10 -18.667 10 -30c0 -16.667 -6.66699 -30 -20 -40c-8.66699 -6.66699 -18.667 -10 -30 -10c-16.667 0 -30 6.66699 -40 20c-6.66699 8.66699 -10 18.667 -10 30
c0 16.667 6.66699 30 20 40c8.66699 6.66699 18.667 10 30 10c16.667 0 30 -6.66699 40 -20zM240.009 703.999c-9.33301 -14 -23 -21 -41 -21c-10 0 -19 3 -27 9c-14 9.33301 -21 23 -21 41c0 10 3 19 9 27c9.33301 14 23 21 41 21c10 0 19 -3 27 -9
c14 -9.33301 21 -23 21 -41c0 -10 -3 -19 -9 -27z" />
    <glyph glyph-name="Igrave" unicode="&#xcc;" horiz-adv-x="300" 
d="M282 34l-0.99707 -17.998c-2.66699 0 -9 0.333008 -19 1s-19.333 1 -28 1l-49 -3l-84 1l-21 -1l-65 1v17l41 7c14.667 2 23 3.66699 25 5c10 6.66699 15 20.334 15 41.001c0 7.33301 -0.166992 14.666 -0.5 21.999s-0.5 15.666 -0.5 24.999v13l2 105l-2 102l2 44
c0 10 -0.166992 19.833 -0.5 29.5s-0.5 19.167 -0.5 28.5l-1 85l-6 26c-4 14 -9.33301 23.333 -16 28s-16.834 8 -30.501 10s-23.167 4 -28.5 6l2 16l44 -1l65 3l77 -1l77 -1l2 -16l-67 -15l-19 -13c-4 -6 -7 -11 -9 -15c-6 -12 -9 -22 -9 -30v-47l2 -72l-4 -42
c0 -6 0.333008 -12.333 1 -19s1 -12.667 1 -18l-1 -69l1 -40l3 -139c4 -12.667 8.66699 -22.334 14 -29.001c2 -2.66699 6.66699 -6.5 14 -11.5s16.166 -9 26.499 -12s22.166 -4.5 35.499 -4.5h12zM14.0029 216.002v800h700v-800h-700zM664.003 266.002v700h-600v-700h600z
" />
    <glyph glyph-name="Iacute" unicode="&#xcd;" horiz-adv-x="300" 
d="M282 34l-0.99707 -17.998c-2.66699 0 -9 0.333008 -19 1s-19.333 1 -28 1l-49 -3l-84 1l-21 -1l-65 1v17l41 7c14.667 2 23 3.66699 25 5c10 6.66699 15 20.334 15 41.001c0 7.33301 -0.166992 14.666 -0.5 21.999s-0.5 15.666 -0.5 24.999v13l2 105l-2 102l2 44
c0 10 -0.166992 19.833 -0.5 29.5s-0.5 19.167 -0.5 28.5l-1 85l-6 26c-4 14 -9.33301 23.333 -16 28s-16.834 8 -30.501 10s-23.167 4 -28.5 6l2 16l44 -1l65 3l77 -1l77 -1l2 -16l-67 -15l-19 -13c-4 -6 -7 -11 -9 -15c-6 -12 -9 -22 -9 -30v-47l2 -72l-4 -42
c0 -6 0.333008 -12.333 1 -19s1 -12.667 1 -18l-1 -69l1 -40l3 -139c4 -12.667 8.66699 -22.334 14 -29.001c2 -2.66699 6.66699 -6.5 14 -11.5s16.166 -9 26.499 -12s22.166 -4.5 35.499 -4.5h12zM256.003 824.002l-116 -156l-36 4l48 152h104z" />
    <glyph glyph-name="Icircumflex" unicode="&#xce;" horiz-adv-x="300" 
d="M282 34l-0.99707 -17.998c-2.66699 0 -9 0.333008 -19 1s-19.333 1 -28 1l-49 -3l-84 1l-21 -1l-65 1v17l41 7c14.667 2 23 3.66699 25 5c10 6.66699 15 20.334 15 41.001c0 7.33301 -0.166992 14.666 -0.5 21.999s-0.5 15.666 -0.5 24.999v13l2 105l-2 102l2 44
c0 10 -0.166992 19.833 -0.5 29.5s-0.5 19.167 -0.5 28.5l-1 85l-6 26c-4 14 -9.33301 23.333 -16 28s-16.834 8 -30.501 10s-23.167 4 -28.5 6l2 16l44 -1l65 3l77 -1l77 -1l2 -16l-67 -15l-19 -13c-4 -6 -7 -11 -9 -15c-6 -12 -9 -22 -9 -30v-47l2 -72l-4 -42
c0 -6 0.333008 -12.333 1 -19s1 -12.667 1 -18l-1 -69l1 -40l3 -139c4 -12.667 8.66699 -22.334 14 -29.001c2 -2.66699 6.66699 -6.5 14 -11.5s16.166 -9 26.499 -12s22.166 -4.5 35.499 -4.5h12zM304.003 660.002l-24 -8l-144 92l-104 -84l-24 4l94 142l78 -2z" />
    <glyph glyph-name="Idieresis" unicode="&#xcf;" horiz-adv-x="300" 
d="M282 34l-0.99707 -17.998c-2.66699 0 -9 0.333008 -19 1s-19.333 1 -28 1l-49 -3l-84 1l-21 -1l-65 1v17l41 7c14.667 2 23 3.66699 25 5c10 6.66699 15 20.334 15 41.001c0 7.33301 -0.166992 14.666 -0.5 21.999s-0.5 15.666 -0.5 24.999v13l2 105l-2 102l2 44
c0 10 -0.166992 19.833 -0.5 29.5s-0.5 19.167 -0.5 28.5l-1 85l-6 26c-4 14 -9.33301 23.333 -16 28s-16.834 8 -30.501 10s-23.167 4 -28.5 6l2 16l44 -1l65 3l77 -1l77 -1l2 -16l-67 -15l-19 -13c-4 -6 -7 -11 -9 -15c-6 -12 -9 -22 -9 -30v-47l2 -72l-4 -42
c0 -6 0.333008 -12.333 1 -19s1 -12.667 1 -18l-1 -69l1 -40l3 -139c4 -12.667 8.66699 -22.334 14 -29.001c2 -2.66699 6.66699 -6.5 14 -11.5s16.166 -9 26.499 -12s22.166 -4.5 35.499 -4.5h12zM266.003 738.002c6.66699 -8.66699 10 -18.667 10 -30
c0 -16.667 -6.66699 -30 -20 -40c-8.66699 -6.66699 -18.667 -10 -30 -10c-16.667 0 -30 6.66699 -40 20c-6.66699 8.66699 -10 18.667 -10 30c0 16.667 6.66699 30 20 40c8.66699 6.66699 18.667 10 30 10c16.667 0 30 -6.66699 40 -20zM112.003 676.002
c-9.33301 -14 -23 -21 -41 -21c-10 0 -19 3 -27 9c-14 9.33301 -21 23 -21 41c0 10 3 19 9 27c9.33301 14 23 21 41 21c10 0 19 -3 27 -9c14 -9.33301 21 -23 21 -41c0 -10 -3 -19 -9 -27z" />
    <glyph glyph-name="Eth" unicode="&#xd0;" horiz-adv-x="648" 
d="M621 299c0 -19.333 -2.3291 -36.333 -6.99609 -51s-12.667 -32.334 -24 -53.001c-16.667 -30 -34.334 -54.333 -53.001 -73c-22.667 -22.667 -50 -41.667 -82 -57c-54.667 -25.333 -83.667 -38.666 -87 -39.999c-21.333 -7.33301 -41.666 -11 -60.999 -11h-192h-111l2 18
c11.333 0 23.666 0.333008 36.999 1s24.166 3.66699 32.499 9l23.5 15c5.33301 4.66699 10.666 12.667 15.999 24c0.666992 15.333 1.33398 39.666 2.00098 72.999s1 62 1 86v24c0 8 0.333008 16 1 24c0 16 -1 32 -3 48h-88v36h84c-1.33301 16 -2 36.667 -2 62v16l5 121
c-18.667 14 -37.334 24.333 -56.001 31c-6.66699 2 -20.334 4.66699 -41.001 8c-3.33301 0 -8 0.666992 -14 2v17h111c13.333 -1.33301 28 -2.33301 44 -3s31.333 -1 46 -1c16.667 0 34 0.333008 52 1s34.667 1.66699 50 3c37.333 0 70.5 -5.16699 99.5 -15.5
s58.5 -26.5 88.5 -48.5c21.333 -16 40.5 -35.667 57.5 -59s31.167 -48.666 42.5 -75.999c17.333 -42 26 -85.667 26 -131zM534.004 299c0 18 -3.16797 37.334 -9.50098 58.001s-14.666 42 -24.999 64l-31.5 67c-13.333 24 -29.333 43 -48 57
c-14 10.667 -27.333 19.5 -40 26.5s-26.834 13 -42.501 18s-31.5 7.5 -47.5 7.5c-9.33301 0 -23.833 -1.16699 -43.5 -3.5s-33.167 -3.5 -40.5 -3.5l-6 -70c0 -20.667 -0.666992 -42.5 -2 -65.5s-2.66602 -50.5 -3.99902 -82.5h162v-36h-163c0 -25.333 0.166992 -53 0.5 -83
s0.833008 -62.667 1.5 -98c0 -26 1.66699 -49.667 5 -71c0.666992 -7.33301 2.66699 -16.333 6 -27c18 0 35.167 1.16699 51.5 3.5s35.5 7.16602 57.5 14.499c38 12.667 68.333 25.334 91 38.001c28 15.333 51.167 34.666 69.5 57.999s31.833 43.333 40.5 60
c12 23.333 18 46 18 68z" />
    <glyph glyph-name="Ntilde" unicode="&#xd1;" horiz-adv-x="600" 
d="M580 672c-14.667 -2 -24.8369 -4.16797 -30.5039 -6.50098s-12.167 -8.16602 -19.5 -17.499c-4.66699 -6.66699 -7.83398 -17.5 -9.50098 -32.5s-2.5 -35.167 -2.5 -60.5v-37l-2 -93l2 -65l1 -63l1 -64v-62c0 -8 -0.166992 -14.333 -0.5 -19s-0.833008 -9 -1.5 -13
l-1 -53v-60h-27h-39l-59 88c-12.667 20 -21.667 34.667 -27 44c-8 13.333 -12.333 20.666 -13 21.999l-32 58c-1.33301 4 -4.66602 9.66699 -9.99902 17s-10 15 -14 23l-18 35c-5.33301 10.667 -12.833 24.667 -22.5 42s-19.667 37 -30 59s-20.166 44.667 -29.499 68
c-6 14.667 -18 36.667 -36 66c-5.33301 9.33301 -13.333 22 -24 38l-1 -103l-2 -137l-2 -103l1 -70l3 -98c0 -9.33301 1.33301 -17 4 -23s8 -12 16 -18c4 -2.66699 8.66699 -4.66699 14 -6s10.666 -2 15.999 -2h11v-18l-183 1l2 19h15c7.33301 0 13.333 1.66699 18 5
s9.16699 7.5 13.5 12.5s7.83301 11 10.5 18s4.66699 23.167 6 48.5s2 43.333 2 54v76l2 116l2 167v18v15v13c0 12 -0.166992 23.5 -0.5 34.5s-1.5 17.833 -3.5 20.5c-5.33301 12.667 -12.166 21.667 -20.499 27s-20.166 9.33301 -35.499 12l-1 13l76 -1
c10.667 0 24.334 -0.333008 41.001 -1s28.667 -1 36 -1l47 -4c4.66699 -10 9.5 -19.667 14.5 -29s9.16699 -18.666 12.5 -27.999s9.66602 -22.666 18.999 -39.999l20 -36l52 -98l38 -78c6 -13.333 13 -27.333 21 -42l11 -19l25 -43l11 -1c0.666992 2.66699 1 13 1 31v40v48
v66v29c0 9.33301 0.333008 18.333 1 27c0 5.33301 -0.166992 12.833 -0.5 22.5s-0.5 21.167 -0.5 34.5v17c0 7.33301 0.166992 15.166 0.5 23.499s0.833008 17.166 1.5 26.499c0 12.667 -2.66699 21.834 -8 27.501s-13.666 9.5 -24.999 11.5s-22.666 3 -33.999 3
c-10 0 -16 -0.333008 -18 -1v21l215 5v-17zM476.997 825.999c0 -33.333 -13.167 -60 -39.5 -80s-58.833 -30 -97.5 -30c-27.333 0 -55.333 8.33301 -84 25c-64 37.333 -107.333 56 -130 56c-7.33301 0 -16.333 -5.66699 -27 -17l-41 -47c0 42 9 76.5 27 103.5
s44 40.5 78 40.5c24 0 49 -8 75 -24c58.667 -36 96.334 -54 113.001 -54c38 0 69 15 93 45c8 10 16.333 25.333 25 46l5 -3c1.33301 -9.33301 2.16602 -20 2.49902 -32s0.5 -21.667 0.5 -29z" />
    <glyph glyph-name="Ograve" unicode="&#xd2;" horiz-adv-x="695" 
d="M657 327c0 -42 -10.332 -82.9961 -30.999 -122.996c-17.333 -33.333 -42.666 -66.333 -75.999 -99c-29.333 -28.667 -62.5 -50.834 -99.5 -66.501s-77.167 -23.5 -120.5 -23.5c-30.667 0 -59.167 2.16699 -85.5 6.5s-49.5 12.166 -69.5 23.499
c-24.667 14 -47.667 34.333 -69 61c-17.333 21.333 -34.333 47.666 -51 78.999c-25.333 47.333 -38 100 -38 158c0 27.333 4.33301 54.333 13 81s20.334 53.667 35.001 81c18 34 36.667 62.667 56 86c23.333 27.333 49.666 48.666 78.999 63.999
c20.667 10.667 42.5 19.167 65.5 25.5s46.167 9.5 69.5 9.5c35.333 0 68.666 -4.5 99.999 -13.5s59.833 -23 85.5 -42s48.5 -43.167 68.5 -72.5c17.333 -25.333 32.666 -56 45.999 -92c8 -22 13.667 -44.667 17 -68s5 -48.333 5 -75zM500.001 515.004
c-24 38.667 -41.998 64.334 -53.998 77.001c-30.667 32 -66 48 -106 48c-52.667 0 -102.334 -39 -149.001 -117c-40.667 -67.333 -61 -125 -61 -173c0 -56 3 -94.5 9 -115.5s18.5 -44.5 37.5 -70.5s39.167 -46.333 60.5 -61c27.333 -18.667 56.666 -28 87.999 -28
c43.333 0 79.333 8.66699 108 26c17.333 10.667 34.666 27 51.999 49c20 25.333 34 53.166 42 83.499s12 63.5 12 99.5c0 38.667 -4.16699 75 -12.5 109s-17.166 58.333 -26.499 73zM210.003 256.004v800h700v-800h-700zM860.003 306.004v700h-600v-700h600z" />
    <glyph glyph-name="Oacute" unicode="&#xd3;" horiz-adv-x="695" 
d="M657 327c0 -42 -10.332 -82.9961 -30.999 -122.996c-17.333 -33.333 -42.666 -66.333 -75.999 -99c-29.333 -28.667 -62.5 -50.834 -99.5 -66.501s-77.167 -23.5 -120.5 -23.5c-30.667 0 -59.167 2.16699 -85.5 6.5s-49.5 12.166 -69.5 23.499
c-24.667 14 -47.667 34.333 -69 61c-17.333 21.333 -34.333 47.666 -51 78.999c-25.333 47.333 -38 100 -38 158c0 27.333 4.33301 54.333 13 81s20.334 53.667 35.001 81c18 34 36.667 62.667 56 86c23.333 27.333 49.666 48.666 78.999 63.999
c20.667 10.667 42.5 19.167 65.5 25.5s46.167 9.5 69.5 9.5c35.333 0 68.666 -4.5 99.999 -13.5s59.833 -23 85.5 -42s48.5 -43.167 68.5 -72.5c17.333 -25.333 32.666 -56 45.999 -92c8 -22 13.667 -44.667 17 -68s5 -48.333 5 -75zM500.001 515.004
c-24 38.667 -41.998 64.334 -53.998 77.001c-30.667 32 -66 48 -106 48c-52.667 0 -102.334 -39 -149.001 -117c-40.667 -67.333 -61 -125 -61 -173c0 -56 3 -94.5 9 -115.5s18.5 -44.5 37.5 -70.5s39.167 -46.333 60.5 -61c27.333 -18.667 56.666 -28 87.999 -28
c43.333 0 79.333 8.66699 108 26c17.333 10.667 34.666 27 51.999 49c20 25.333 34 53.166 42 83.499s12 63.5 12 99.5c0 38.667 -4.16699 75 -12.5 109s-17.166 58.333 -26.499 73zM464.003 876.004l-116 -156l-36 4l48 152h104z" />
    <glyph glyph-name="Ocircumflex" unicode="&#xd4;" horiz-adv-x="695" 
d="M657 327c0 -42 -10.332 -82.9961 -30.999 -122.996c-17.333 -33.333 -42.666 -66.333 -75.999 -99c-29.333 -28.667 -62.5 -50.834 -99.5 -66.501s-77.167 -23.5 -120.5 -23.5c-30.667 0 -59.167 2.16699 -85.5 6.5s-49.5 12.166 -69.5 23.499
c-24.667 14 -47.667 34.333 -69 61c-17.333 21.333 -34.333 47.666 -51 78.999c-25.333 47.333 -38 100 -38 158c0 27.333 4.33301 54.333 13 81s20.334 53.667 35.001 81c18 34 36.667 62.667 56 86c23.333 27.333 49.666 48.666 78.999 63.999
c20.667 10.667 42.5 19.167 65.5 25.5s46.167 9.5 69.5 9.5c35.333 0 68.666 -4.5 99.999 -13.5s59.833 -23 85.5 -42s48.5 -43.167 68.5 -72.5c17.333 -25.333 32.666 -56 45.999 -92c8 -22 13.667 -44.667 17 -68s5 -48.333 5 -75zM500.001 515.004
c-24 38.667 -41.998 64.334 -53.998 77.001c-30.667 32 -66 48 -106 48c-52.667 0 -102.334 -39 -149.001 -117c-40.667 -67.333 -61 -125 -61 -173c0 -56 3 -94.5 9 -115.5s18.5 -44.5 37.5 -70.5s39.167 -46.333 60.5 -61c27.333 -18.667 56.666 -28 87.999 -28
c43.333 0 79.333 8.66699 108 26c17.333 10.667 34.666 27 51.999 49c20 25.333 34 53.166 42 83.499s12 63.5 12 99.5c0 38.667 -4.16699 75 -12.5 109s-17.166 58.333 -26.499 73zM492.003 720.004l-24 -8l-144 92l-104 -84l-24 4l94 142l78 -2z" />
    <glyph glyph-name="Otilde" unicode="&#xd5;" horiz-adv-x="695" 
d="M657 327c0 -42 -10.332 -82.9961 -30.999 -122.996c-17.333 -33.333 -42.666 -66.333 -75.999 -99c-29.333 -28.667 -62.5 -50.834 -99.5 -66.501s-77.167 -23.5 -120.5 -23.5c-30.667 0 -59.167 2.16699 -85.5 6.5s-49.5 12.166 -69.5 23.499
c-24.667 14 -47.667 34.333 -69 61c-17.333 21.333 -34.333 47.666 -51 78.999c-25.333 47.333 -38 100 -38 158c0 27.333 4.33301 54.333 13 81s20.334 53.667 35.001 81c18 34 36.667 62.667 56 86c23.333 27.333 49.666 48.666 78.999 63.999
c20.667 10.667 42.5 19.167 65.5 25.5s46.167 9.5 69.5 9.5c35.333 0 68.666 -4.5 99.999 -13.5s59.833 -23 85.5 -42s48.5 -43.167 68.5 -72.5c17.333 -25.333 32.666 -56 45.999 -92c8 -22 13.667 -44.667 17 -68s5 -48.333 5 -75zM500.001 515.004
c-24 38.667 -41.998 64.334 -53.998 77.001c-30.667 32 -66 48 -106 48c-52.667 0 -102.334 -39 -149.001 -117c-40.667 -67.333 -61 -125 -61 -173c0 -56 3 -94.5 9 -115.5s18.5 -44.5 37.5 -70.5s39.167 -46.333 60.5 -61c27.333 -18.667 56.666 -28 87.999 -28
c43.333 0 79.333 8.66699 108 26c17.333 10.667 34.666 27 51.999 49c20 25.333 34 53.166 42 83.499s12 63.5 12 99.5c0 38.667 -4.16699 75 -12.5 109s-17.166 58.333 -26.499 73zM529.003 834.004c0 -33.333 -13.167 -60 -39.5 -80s-58.833 -30 -97.5 -30
c-27.333 0 -55.333 8.33301 -84 25c-64 37.333 -107.333 56 -130 56c-7.33301 0 -16.333 -5.66699 -27 -17l-41 -47c0 42 9 76.5 27 103.5s44 40.5 78 40.5c24 0 49 -8 75 -24c58.667 -36 96.334 -54 113.001 -54c38 0 69 15 93 45c8 10 16.333 25.333 25 46l5 -3
c1.33301 -9.33301 2.16602 -20 2.49902 -32s0.5 -21.667 0.5 -29z" />
    <glyph glyph-name="Odieresis" unicode="&#xd6;" horiz-adv-x="695" 
d="M657 327c0 -42 -10.332 -82.9961 -30.999 -122.996c-17.333 -33.333 -42.666 -66.333 -75.999 -99c-29.333 -28.667 -62.5 -50.834 -99.5 -66.501s-77.167 -23.5 -120.5 -23.5c-30.667 0 -59.167 2.16699 -85.5 6.5s-49.5 12.166 -69.5 23.499
c-24.667 14 -47.667 34.333 -69 61c-17.333 21.333 -34.333 47.666 -51 78.999c-25.333 47.333 -38 100 -38 158c0 27.333 4.33301 54.333 13 81s20.334 53.667 35.001 81c18 34 36.667 62.667 56 86c23.333 27.333 49.666 48.666 78.999 63.999
c20.667 10.667 42.5 19.167 65.5 25.5s46.167 9.5 69.5 9.5c35.333 0 68.666 -4.5 99.999 -13.5s59.833 -23 85.5 -42s48.5 -43.167 68.5 -72.5c17.333 -25.333 32.666 -56 45.999 -92c8 -22 13.667 -44.667 17 -68s5 -48.333 5 -75zM500.001 515.004
c-24 38.667 -41.998 64.334 -53.998 77.001c-30.667 32 -66 48 -106 48c-52.667 0 -102.334 -39 -149.001 -117c-40.667 -67.333 -61 -125 -61 -173c0 -56 3 -94.5 9 -115.5s18.5 -44.5 37.5 -70.5s39.167 -46.333 60.5 -61c27.333 -18.667 56.666 -28 87.999 -28
c43.333 0 79.333 8.66699 108 26c17.333 10.667 34.666 27 51.999 49c20 25.333 34 53.166 42 83.499s12 63.5 12 99.5c0 38.667 -4.16699 75 -12.5 109s-17.166 58.333 -26.499 73zM458.003 782.004c6.66699 -8.66699 10 -18.667 10 -30c0 -16.667 -6.66699 -30 -20 -40
c-8.66699 -6.66699 -18.667 -10 -30 -10c-16.667 0 -30 6.66699 -40 20c-6.66699 8.66699 -10 18.667 -10 30c0 16.667 6.66699 30 20 40c8.66699 6.66699 18.667 10 30 10c16.667 0 30 -6.66699 40 -20zM304.003 720.004c-9.33301 -14 -23 -21 -41 -21c-10 0 -19 3 -27 9
c-14 9.33301 -21 23 -21 41c0 10 3 19 9 27c9.33301 14 23 21 41 21c10 0 19 -3 27 -9c14 -9.33301 21 -23 21 -41c0 -10 -3 -19 -9 -27z" />
    <glyph glyph-name="multiply" unicode="&#xd7;" horiz-adv-x="488" 
d="M447 553l-165 -166l155 -155l-36 -28l-151 151l-167 -168l-34 33l168 168l-160 160l36 28l156 -156l164 164z" />
    <glyph glyph-name="Oslash" unicode="&#xd8;" horiz-adv-x="695" 
d="M672 624l-79.998 -66.999c7.33301 -12 14.833 -25.833 22.5 -41.5s15 -32.667 22 -51s12.167 -39.166 15.5 -62.499s5 -48.333 5 -75c0 -42 -10.333 -83 -31 -123c-17.333 -33.333 -42.666 -66.333 -75.999 -99c-29.333 -28.667 -62.5 -50.834 -99.5 -66.501
s-77.167 -23.5 -120.5 -23.5c-30.667 0 -59.167 2.16699 -85.5 6.5s-49 11.833 -68 22.5s-36.167 24 -51.5 40c-12.667 13.333 -26 30.333 -40 51l-57 -47l-16 24l57 47l-14 26c-25.333 47.333 -38 100 -38 158c0 27.333 4.33301 54.333 13 81s20.334 53.667 35.001 81
c18 34 36.667 62.667 56 86c23.333 27.333 49.666 48.666 78.999 63.999c20.667 10.667 42.5 19.167 65.5 25.5s46.167 9.5 69.5 9.5c35.333 0 68.666 -4.5 99.999 -13.5s59.666 -22.833 84.999 -41.5c19.333 -14 37.666 -32.333 54.999 -55l77 64zM498.002 516.001
l-1.99902 4c-22.667 37.333 -40 62 -52 74c-30 30.667 -64.667 46 -104 46c-52.667 0 -102.334 -39 -149.001 -117c-40.667 -67.333 -61 -125 -61 -173c0 -60 4.33301 -103 13 -129zM510.003 489.001l-355 -294.999l20 -29c20 -26.667 40.667 -47.334 62 -62.001
c27.333 -18.667 56.666 -28 87.999 -28c43.333 0 79.333 8.66699 108 26c17.333 10.667 34.833 27.5 52.5 50.5s30.834 50 39.501 81s13 62.833 13 95.5c0 32 -2.33301 60.833 -7 86.5s-11.667 50.5 -21 74.5z" />
    <glyph glyph-name="Ugrave" unicode="&#xd9;" horiz-adv-x="618" 
d="M600 648l-1.00293 -12.9912c-12.667 -2 -22 -3.66699 -28 -5c-19.333 -5.33301 -31.166 -13.333 -35.499 -24s-7.16602 -21.167 -8.49902 -31.5s-2.33301 -18.833 -3 -25.5c-2.66699 -14.667 -4.66699 -31.834 -6 -51.501s-2 -36.167 -2 -49.5v-72
c0 -72.667 -3 -129.834 -9 -171.501s-17.333 -77.5 -34 -107.5c-10.667 -20.667 -23.667 -37.334 -39 -50.001s-36 -23.334 -62 -32.001c-7.33301 -2.66699 -25.5 -5.33398 -54.5 -8.00098s-50.5 -4 -64.5 -4c-43.333 0 -75 5 -95 15c-14 6.66699 -32.667 23.667 -56 51
c-19.333 21.333 -32 43.333 -38 66s-9 50.667 -9 84l-5 157l-2 123l2 93c0 22.667 -7.33301 37.334 -22 44.001c-4.66699 2 -12 3 -22 3l-1 13l60 2c6.66699 0 18 -1 34 -3s28.333 -3 37 -3c15.333 0 29.166 0.166992 41.499 0.5s23.5 0.833008 33.5 1.5l-1 -17
c-8.66699 0 -15.334 -0.333008 -20.001 -1c-30 -4.66699 -45 -16 -45 -34c0 -16 0.666992 -48.333 2 -97s2 -74.667 2 -78c0 -12.667 -0.166992 -25.834 -0.5 -39.501s-0.5 -27.5 -0.5 -41.5c0 -30.667 0.833008 -58.334 2.5 -83.001s4.83398 -49 9.50098 -73
c8.66699 -40 21.334 -70 38.001 -90c20.667 -24 49 -36 85 -36c27.333 0 50.333 3 69 9s35.334 14.667 50.001 26c18.667 14.667 32.667 35.334 42 62.001c3.33301 9.33301 9.33301 34.666 18 75.999c4.66699 20.667 8 40.167 10 58.5s3 34.5 3 48.5
c0 12 -0.333008 27.167 -1 45.5s-1 30.166 -1 35.499c0 11.333 0.333008 28.666 1 51.999s1 40 1 50c0 17.333 -0.666992 32.333 -2 45s-4.5 24.667 -9.5 36s-12.167 18.666 -21.5 21.999s-14.333 5.33301 -15 6v15l50 1l65 2zM145.997 232.009v800h700v-800h-700z
M795.997 282.009v700h-600v-700h600z" />
    <glyph glyph-name="Uacute" unicode="&#xda;" horiz-adv-x="618" 
d="M600 648l-1.00293 -12.9912c-12.667 -2 -22 -3.66699 -28 -5c-19.333 -5.33301 -31.166 -13.333 -35.499 -24s-7.16602 -21.167 -8.49902 -31.5s-2.33301 -18.833 -3 -25.5c-2.66699 -14.667 -4.66699 -31.834 -6 -51.501s-2 -36.167 -2 -49.5v-72
c0 -72.667 -3 -129.834 -9 -171.501s-17.333 -77.5 -34 -107.5c-10.667 -20.667 -23.667 -37.334 -39 -50.001s-36 -23.334 -62 -32.001c-7.33301 -2.66699 -25.5 -5.33398 -54.5 -8.00098s-50.5 -4 -64.5 -4c-43.333 0 -75 5 -95 15c-14 6.66699 -32.667 23.667 -56 51
c-19.333 21.333 -32 43.333 -38 66s-9 50.667 -9 84l-5 157l-2 123l2 93c0 22.667 -7.33301 37.334 -22 44.001c-4.66699 2 -12 3 -22 3l-1 13l60 2c6.66699 0 18 -1 34 -3s28.333 -3 37 -3c15.333 0 29.166 0.166992 41.499 0.5s23.5 0.833008 33.5 1.5l-1 -17
c-8.66699 0 -15.334 -0.333008 -20.001 -1c-30 -4.66699 -45 -16 -45 -34c0 -16 0.666992 -48.333 2 -97s2 -74.667 2 -78c0 -12.667 -0.166992 -25.834 -0.5 -39.501s-0.5 -27.5 -0.5 -41.5c0 -30.667 0.833008 -58.334 2.5 -83.001s4.83398 -49 9.50098 -73
c8.66699 -40 21.334 -70 38.001 -90c20.667 -24 49 -36 85 -36c27.333 0 50.333 3 69 9s35.334 14.667 50.001 26c18.667 14.667 32.667 35.334 42 62.001c3.33301 9.33301 9.33301 34.666 18 75.999c4.66699 20.667 8 40.167 10 58.5s3 34.5 3 48.5
c0 12 -0.333008 27.167 -1 45.5s-1 30.166 -1 35.499c0 11.333 0.333008 28.666 1 51.999s1 40 1 50c0 17.333 -0.666992 32.333 -2 45s-4.5 24.667 -9.5 36s-12.167 18.666 -21.5 21.999s-14.333 5.33301 -15 6v15l50 1l65 2zM419.997 864.009l-116 -156l-36 4l48 152h104z
" />
    <glyph glyph-name="Ucircumflex" unicode="&#xdb;" horiz-adv-x="618" 
d="M600 648l-1.00293 -12.9912c-12.667 -2 -22 -3.66699 -28 -5c-19.333 -5.33301 -31.166 -13.333 -35.499 -24s-7.16602 -21.167 -8.49902 -31.5s-2.33301 -18.833 -3 -25.5c-2.66699 -14.667 -4.66699 -31.834 -6 -51.501s-2 -36.167 -2 -49.5v-72
c0 -72.667 -3 -129.834 -9 -171.501s-17.333 -77.5 -34 -107.5c-10.667 -20.667 -23.667 -37.334 -39 -50.001s-36 -23.334 -62 -32.001c-7.33301 -2.66699 -25.5 -5.33398 -54.5 -8.00098s-50.5 -4 -64.5 -4c-43.333 0 -75 5 -95 15c-14 6.66699 -32.667 23.667 -56 51
c-19.333 21.333 -32 43.333 -38 66s-9 50.667 -9 84l-5 157l-2 123l2 93c0 22.667 -7.33301 37.334 -22 44.001c-4.66699 2 -12 3 -22 3l-1 13l60 2c6.66699 0 18 -1 34 -3s28.333 -3 37 -3c15.333 0 29.166 0.166992 41.499 0.5s23.5 0.833008 33.5 1.5l-1 -17
c-8.66699 0 -15.334 -0.333008 -20.001 -1c-30 -4.66699 -45 -16 -45 -34c0 -16 0.666992 -48.333 2 -97s2 -74.667 2 -78c0 -12.667 -0.166992 -25.834 -0.5 -39.501s-0.5 -27.5 -0.5 -41.5c0 -30.667 0.833008 -58.334 2.5 -83.001s4.83398 -49 9.50098 -73
c8.66699 -40 21.334 -70 38.001 -90c20.667 -24 49 -36 85 -36c27.333 0 50.333 3 69 9s35.334 14.667 50.001 26c18.667 14.667 32.667 35.334 42 62.001c3.33301 9.33301 9.33301 34.666 18 75.999c4.66699 20.667 8 40.167 10 58.5s3 34.5 3 48.5
c0 12 -0.333008 27.167 -1 45.5s-1 30.166 -1 35.499c0 11.333 0.333008 28.666 1 51.999s1 40 1 50c0 17.333 -0.666992 32.333 -2 45s-4.5 24.667 -9.5 36s-12.167 18.666 -21.5 21.999s-14.333 5.33301 -15 6v15l50 1l65 2zM455.997 696.009l-24 -8l-144 92l-104 -84
l-24 4l94 142l78 -2z" />
    <glyph glyph-name="Udieresis" unicode="&#xdc;" horiz-adv-x="618" 
d="M600 648l-1.00293 -12.9912c-12.667 -2 -22 -3.66699 -28 -5c-19.333 -5.33301 -31.166 -13.333 -35.499 -24s-7.16602 -21.167 -8.49902 -31.5s-2.33301 -18.833 -3 -25.5c-2.66699 -14.667 -4.66699 -31.834 -6 -51.501s-2 -36.167 -2 -49.5v-72
c0 -72.667 -3 -129.834 -9 -171.501s-17.333 -77.5 -34 -107.5c-10.667 -20.667 -23.667 -37.334 -39 -50.001s-36 -23.334 -62 -32.001c-7.33301 -2.66699 -25.5 -5.33398 -54.5 -8.00098s-50.5 -4 -64.5 -4c-43.333 0 -75 5 -95 15c-14 6.66699 -32.667 23.667 -56 51
c-19.333 21.333 -32 43.333 -38 66s-9 50.667 -9 84l-5 157l-2 123l2 93c0 22.667 -7.33301 37.334 -22 44.001c-4.66699 2 -12 3 -22 3l-1 13l60 2c6.66699 0 18 -1 34 -3s28.333 -3 37 -3c15.333 0 29.166 0.166992 41.499 0.5s23.5 0.833008 33.5 1.5l-1 -17
c-8.66699 0 -15.334 -0.333008 -20.001 -1c-30 -4.66699 -45 -16 -45 -34c0 -16 0.666992 -48.333 2 -97s2 -74.667 2 -78c0 -12.667 -0.166992 -25.834 -0.5 -39.501s-0.5 -27.5 -0.5 -41.5c0 -30.667 0.833008 -58.334 2.5 -83.001s4.83398 -49 9.50098 -73
c8.66699 -40 21.334 -70 38.001 -90c20.667 -24 49 -36 85 -36c27.333 0 50.333 3 69 9s35.334 14.667 50.001 26c18.667 14.667 32.667 35.334 42 62.001c3.33301 9.33301 9.33301 34.666 18 75.999c4.66699 20.667 8 40.167 10 58.5s3 34.5 3 48.5
c0 12 -0.333008 27.167 -1 45.5s-1 30.166 -1 35.499c0 11.333 0.333008 28.666 1 51.999s1 40 1 50c0 17.333 -0.666992 32.333 -2 45s-4.5 24.667 -9.5 36s-12.167 18.666 -21.5 21.999s-14.333 5.33301 -15 6v15l50 1l65 2zM433.997 786.009
c6.66699 -8.66699 10 -18.667 10 -30c0 -16.667 -6.66699 -30 -20 -40c-8.66699 -6.66699 -18.667 -10 -30 -10c-16.667 0 -30 6.66699 -40 20c-6.66699 8.66699 -10 18.667 -10 30c0 16.667 6.66699 30 20 40c8.66699 6.66699 18.667 10 30 10c16.667 0 30 -6.66699 40 -20
zM279.997 724.009c-9.33301 -14 -23 -21 -41 -21c-10 0 -19 3 -27 9c-14 9.33301 -21 23 -21 41c0 10 3 19 9 27c9.33301 14 23 21 41 21c10 0 19 -3 27 -9c14 -9.33301 21 -23 21 -41c0 -10 -3 -19 -9 -27z" />
    <glyph glyph-name="Yacute" unicode="&#xdd;" horiz-adv-x="635" 
d="M607 634c-6.66699 -2 -14.6689 -5.00391 -24.002 -9.00391c-14.667 -6.66699 -25.667 -14 -33 -22c-14 -14.667 -30 -35.667 -48 -63l-28 -42l-79 -116l-54 -74v-52l-1 -167c0 -17.333 7.33301 -31.666 22 -42.999c10 -7.33301 23.333 -13.666 40 -18.999
c5.33301 -1.33301 12.333 -3.33301 21 -6l2 -18l-90 1l-137 -1h-49v18c18.667 4.66699 32.334 9.33398 41.001 14.001c27.333 14 41 31.667 41 53v92v88l2 52c-5.33301 16.667 -13.666 36 -24.999 58c-14 28 -23 47.333 -27 58c-6.66699 20 -21.667 46.333 -45 79l-59 81
c-9.33301 14 -22 24.333 -38 31c-5.33301 2 -13 4 -23 6l1 12l117 1l103 -1l1 -13l-26 -6c-18 -5.33301 -28.667 -11.333 -32 -18c-4.66699 -9.33301 4 -27.333 26 -54c14.667 -17.333 23 -29 25 -35s19.333 -40 52 -102c13.333 -26 21.333 -45.667 24 -59
c2 0 13.5 12.5 34.5 37.5l61.5 73.5c28.667 37.333 50.334 66.5 65.001 87.5s21 35.5 19 43.5c-2.66699 10.667 -11.334 18 -26.001 22c-2.66699 0.666992 -6.66699 1.33398 -12 2.00098c0 9.33301 0.333008 15.333 1 18l71 2l30 -2l55 1zM447.998 823.996l-116 -156l-36 4
l48 152h104z" />
    <glyph glyph-name="Thorn" unicode="&#xde;" horiz-adv-x="492" 
d="M468 298c0 -38 -5.16602 -67.498 -15.499 -88.498s-27.166 -37.5 -50.499 -49.5c-13.333 -7.33301 -32 -13.166 -56 -17.499s-45.333 -6.5 -64 -6.5h-23c-16 0 -29.333 0.5 -40 1.5s-22.334 3.16699 -35.001 6.5v-57c4 -12.667 8.66699 -22.334 14 -29.001
c2 -2.66699 6.66699 -6.5 14 -11.5s16.166 -9 26.499 -12s22.166 -4.5 35.499 -4.5h12l-1 -18c-2.66699 0 -9 0.333008 -19 1s-19.333 1 -28 1l-49 -3l-84 1l-21 -1l-65 1v17l41 7c14.667 2 23 3.66699 25 5c10 6.66699 15 20.334 15 41.001
c0 7.33301 -0.166992 14.666 -0.5 21.999s-0.5 15.666 -0.5 24.999v13l2 105c0.666992 3.33301 1 9.16602 1 17.499v21.5c0 24 -0.166992 49.833 -0.5 77.5s-0.833008 56.834 -1.5 87.501l-1 85l-6 26c-4 14 -9.33301 23.333 -16 28s-16.834 8 -30.501 10s-23.167 4 -28.5 6
l2 16l44 -1l65 3l77 -1l77 -1l2 -16l-67 -15l-19 -13c-4 -6 -7 -11 -9 -15c-6 -12 -9 -22 -9 -30v-47v-14c11.333 0 26 0.5 44 1.5s27.333 1.5 28 1.5c12.667 0 24.834 -0.666992 36.501 -2s23.834 -4.33301 36.501 -9c23.333 -7.33301 44.166 -16.333 62.499 -27
s31.333 -21.5 39 -32.5s16.334 -28.833 26.001 -53.5s14.5 -42.334 14.5 -53.001zM370.001 330.002c-6 18.667 -15.168 36.166 -27.501 52.499s-24.666 27.5 -36.999 33.5s-25 10.5 -38 13.5s-23.5 4.5 -31.5 4.5c-10 0.666992 -18.667 -0.166016 -26 -2.49902
s-16.333 -3.5 -27 -3.5v-14l-4 -42c2 -15.333 3.33301 -50.833 4 -106.5s1 -86.834 1 -93.501c8.66699 0 17 -1 25 -3s14 -3 18 -3c4.66699 0 9.5 0.333008 14.5 1s13.167 2.5 24.5 5.5s24 6.16699 38 9.5c14.667 4.66699 28.667 15.334 42 32.001
c10.667 14 18.167 28 22.5 42s6.5 28 6.5 42c0 13.333 -1.66699 24 -5 32z" />
    <glyph glyph-name="germandbls" unicode="&#xdf;" horiz-adv-x="543" 
d="M492 288l-0.000976562 -33.001c0 -10.667 0.333008 -21 1 -31c0 -16.667 -0.5 -29.667 -1.5 -39s-3.16699 -20.333 -6.5 -33s-19.166 -34.167 -47.499 -64.5s-49.166 -49.166 -62.499 -56.499c-31.333 -16.667 -65 -25 -101 -25c-18.667 0 -31.334 3.33301 -38.001 10
c-14.667 14 -24.5 26 -29.5 36s-7.5 23.667 -7.5 41c0 26 10.667 39 32 39c12 0 23.833 -9 35.5 -27s17.5 -34.333 17.5 -49c0 -3.33301 -0.666992 -6.33301 -2 -9c-1.33301 -4.66699 2 -7 10 -7c4.66699 0 9.33398 1.33301 14.001 4c24.667 10.667 48 27.334 70 50.001
c26.667 28 40 55.333 40 82c0 32 -3.66699 59.333 -11 82c-9.33301 30 -24.333 50.667 -45 62c-9.33301 5.33301 -22 10.333 -38 15c-44 12.667 -67.333 19.667 -70 21s-7.33398 2.5 -14.001 3.5s-11.667 2.16699 -15 3.5l-1 22c50.667 0 90.334 8 119.001 24
c36.667 20.667 55 53.667 55 99c0 36 -11.667 66.333 -35 91s-53 37 -89 37c-57.333 0 -92.333 -10.333 -105 -31s-19 -71.667 -19 -153l-2 -328v-116h-66l-61 -2v12c36.667 0 55 11.333 55 34v308c0 49.333 4.5 96.833 13.5 142.5s22.5 87.5 40.5 125.5
c5.33301 10.667 19.5 21.667 42.5 33s43.5 17.666 61.5 18.999c22 0 39.5 -0.5 52.5 -1.5s26.833 -2.16699 41.5 -3.5c42.667 -4 77.667 -19.333 105 -46c24.667 -24 37 -55 37 -93c0 -52 -9 -91.333 -27 -118c-10.667 -16.667 -30.334 -28.667 -59.001 -36
c24.667 -12 43 -21.667 55 -29c36.667 -23.333 55 -45 55 -65z" />
    <glyph glyph-name="agrave" unicode="&#xe0;" horiz-adv-x="436" 
d="M407 65c-6 -12.667 -17.9951 -24.8369 -35.9951 -36.5039s-36 -17.5 -54 -17.5c-19.333 0 -33.333 5 -42 15s-16.334 27.667 -23.001 53c-22 -13.333 -39.333 -23.333 -52 -30c-40.667 -20.667 -72.667 -31 -96 -31c-28.667 0 -50.834 11 -66.501 33
s-23.5 48.333 -23.5 79c0 41.333 20.667 80 62 116c30 26 66 47.333 108 64c9.33301 4.66699 23.666 10 42.999 16c3.33301 0.666992 8 2 14 4c1.33301 6 2.5 12.667 3.5 20s1.5 11.333 1.5 12c0 23.333 -5.33301 44 -16 62c-12.667 21.333 -30.334 32 -53.001 32
c-30 0 -52 -8.66699 -66 -26c-10.667 -13.333 -16 -30.666 -16 -51.999v-19c0 -28.667 -11.333 -43 -34 -43c-4.66699 0 -9.66699 0.5 -15 1.5s-10.166 4.83301 -14.499 11.5s-6.5 21.334 -6.5 44.001c0 32.667 13.667 58.334 41 77.001c10.667 7.33301 34 17.666 70 30.999
c13.333 4 24.666 6 33.999 6c12.667 0 28.667 -3.16699 48 -9.5s35.666 -16.166 48.999 -29.499c10.667 -10.667 21.667 -26.667 33 -48c6.66699 -12 11.167 -25.833 13.5 -41.5s3.5 -31.5 3.5 -47.5v-30v-87v-86c1.33301 -7.33301 5.66602 -15.833 12.999 -25.5
s15 -14.5 23 -14.5c4.66699 0 13.334 3 26.001 9c16.667 8 26 12.333 28 13c-1.33301 -2.66699 -1.5 -7.16699 -0.5 -13.5s1.16699 -10.166 0.5 -11.499zM252.005 113.997l-2.00098 97c0 8 -0.166992 20.833 -0.5 38.5s-0.833008 34.5 -1.5 50.5l-19 -6
c-36.667 -15.333 -65.667 -31.333 -87 -48c-40 -31.333 -60 -67.333 -60 -108c0 -22 5 -37.333 15 -46s23.667 -13 41 -13c6.66699 0 14.334 0.666992 23.001 2s17.5 3 26.5 5s25.167 8.66699 48.5 20zM-1.99609 67.9971v800h700v-800h-700zM648.004 117.997v700h-600v-700
h600z" />
    <glyph glyph-name="aacute" unicode="&#xe1;" horiz-adv-x="436" 
d="M407 65c-6 -12.667 -17.9951 -24.8369 -35.9951 -36.5039s-36 -17.5 -54 -17.5c-19.333 0 -33.333 5 -42 15s-16.334 27.667 -23.001 53c-22 -13.333 -39.333 -23.333 -52 -30c-40.667 -20.667 -72.667 -31 -96 -31c-28.667 0 -50.834 11 -66.501 33
s-23.5 48.333 -23.5 79c0 41.333 20.667 80 62 116c30 26 66 47.333 108 64c9.33301 4.66699 23.666 10 42.999 16c3.33301 0.666992 8 2 14 4c1.33301 6 2.5 12.667 3.5 20s1.5 11.333 1.5 12c0 23.333 -5.33301 44 -16 62c-12.667 21.333 -30.334 32 -53.001 32
c-30 0 -52 -8.66699 -66 -26c-10.667 -13.333 -16 -30.666 -16 -51.999v-19c0 -28.667 -11.333 -43 -34 -43c-4.66699 0 -9.66699 0.5 -15 1.5s-10.166 4.83301 -14.499 11.5s-6.5 21.334 -6.5 44.001c0 32.667 13.667 58.334 41 77.001c10.667 7.33301 34 17.666 70 30.999
c13.333 4 24.666 6 33.999 6c12.667 0 28.667 -3.16699 48 -9.5s35.666 -16.166 48.999 -29.499c10.667 -10.667 21.667 -26.667 33 -48c6.66699 -12 11.167 -25.833 13.5 -41.5s3.5 -31.5 3.5 -47.5v-30v-87v-86c1.33301 -7.33301 5.66602 -15.833 12.999 -25.5
s15 -14.5 23 -14.5c4.66699 0 13.334 3 26.001 9c16.667 8 26 12.333 28 13c-1.33301 -2.66699 -1.5 -7.16699 -0.5 -13.5s1.16699 -10.166 0.5 -11.499zM252.005 113.997l-2.00098 97c0 8 -0.166992 20.833 -0.5 38.5s-0.833008 34.5 -1.5 50.5l-19 -6
c-36.667 -15.333 -65.667 -31.333 -87 -48c-40 -31.333 -60 -67.333 -60 -108c0 -22 5 -37.333 15 -46s23.667 -13 41 -13c6.66699 0 14.334 0.666992 23.001 2s17.5 3 26.5 5s25.167 8.66699 48.5 20zM308.004 695.997l-116 -156l-36 4l48 152h104z" />
    <glyph glyph-name="acircumflex" unicode="&#xe2;" horiz-adv-x="436" 
d="M407 65c-6 -12.667 -17.9951 -24.8369 -35.9951 -36.5039s-36 -17.5 -54 -17.5c-19.333 0 -33.333 5 -42 15s-16.334 27.667 -23.001 53c-22 -13.333 -39.333 -23.333 -52 -30c-40.667 -20.667 -72.667 -31 -96 -31c-28.667 0 -50.834 11 -66.501 33
s-23.5 48.333 -23.5 79c0 41.333 20.667 80 62 116c30 26 66 47.333 108 64c9.33301 4.66699 23.666 10 42.999 16c3.33301 0.666992 8 2 14 4c1.33301 6 2.5 12.667 3.5 20s1.5 11.333 1.5 12c0 23.333 -5.33301 44 -16 62c-12.667 21.333 -30.334 32 -53.001 32
c-30 0 -52 -8.66699 -66 -26c-10.667 -13.333 -16 -30.666 -16 -51.999v-19c0 -28.667 -11.333 -43 -34 -43c-4.66699 0 -9.66699 0.5 -15 1.5s-10.166 4.83301 -14.499 11.5s-6.5 21.334 -6.5 44.001c0 32.667 13.667 58.334 41 77.001c10.667 7.33301 34 17.666 70 30.999
c13.333 4 24.666 6 33.999 6c12.667 0 28.667 -3.16699 48 -9.5s35.666 -16.166 48.999 -29.499c10.667 -10.667 21.667 -26.667 33 -48c6.66699 -12 11.167 -25.833 13.5 -41.5s3.5 -31.5 3.5 -47.5v-30v-87v-86c1.33301 -7.33301 5.66602 -15.833 12.999 -25.5
s15 -14.5 23 -14.5c4.66699 0 13.334 3 26.001 9c16.667 8 26 12.333 28 13c-1.33301 -2.66699 -1.5 -7.16699 -0.5 -13.5s1.16699 -10.166 0.5 -11.499zM252.005 113.997l-2.00098 97c0 8 -0.166992 20.833 -0.5 38.5s-0.833008 34.5 -1.5 50.5l-19 -6
c-36.667 -15.333 -65.667 -31.333 -87 -48c-40 -31.333 -60 -67.333 -60 -108c0 -22 5 -37.333 15 -46s23.667 -13 41 -13c6.66699 0 14.334 0.666992 23.001 2s17.5 3 26.5 5s25.167 8.66699 48.5 20zM328.004 535.997l-24 -8l-144 92l-104 -84l-24 4l94 142l78 -2z" />
    <glyph glyph-name="atilde" unicode="&#xe3;" horiz-adv-x="436" 
d="M407 65c-6 -12.667 -17.9951 -24.8369 -35.9951 -36.5039s-36 -17.5 -54 -17.5c-19.333 0 -33.333 5 -42 15s-16.334 27.667 -23.001 53c-22 -13.333 -39.333 -23.333 -52 -30c-40.667 -20.667 -72.667 -31 -96 -31c-28.667 0 -50.834 11 -66.501 33
s-23.5 48.333 -23.5 79c0 41.333 20.667 80 62 116c30 26 66 47.333 108 64c9.33301 4.66699 23.666 10 42.999 16c3.33301 0.666992 8 2 14 4c1.33301 6 2.5 12.667 3.5 20s1.5 11.333 1.5 12c0 23.333 -5.33301 44 -16 62c-12.667 21.333 -30.334 32 -53.001 32
c-30 0 -52 -8.66699 -66 -26c-10.667 -13.333 -16 -30.666 -16 -51.999v-19c0 -28.667 -11.333 -43 -34 -43c-4.66699 0 -9.66699 0.5 -15 1.5s-10.166 4.83301 -14.499 11.5s-6.5 21.334 -6.5 44.001c0 32.667 13.667 58.334 41 77.001c10.667 7.33301 34 17.666 70 30.999
c13.333 4 24.666 6 33.999 6c12.667 0 28.667 -3.16699 48 -9.5s35.666 -16.166 48.999 -29.499c10.667 -10.667 21.667 -26.667 33 -48c6.66699 -12 11.167 -25.833 13.5 -41.5s3.5 -31.5 3.5 -47.5v-30v-87v-86c1.33301 -7.33301 5.66602 -15.833 12.999 -25.5
s15 -14.5 23 -14.5c4.66699 0 13.334 3 26.001 9c16.667 8 26 12.333 28 13c-1.33301 -2.66699 -1.5 -7.16699 -0.5 -13.5s1.16699 -10.166 0.5 -11.499zM252.005 113.997l-2.00098 97c0 8 -0.166992 20.833 -0.5 38.5s-0.833008 34.5 -1.5 50.5l-19 -6
c-36.667 -15.333 -65.667 -31.333 -87 -48c-40 -31.333 -60 -67.333 -60 -108c0 -22 5 -37.333 15 -46s23.667 -13 41 -13c6.66699 0 14.334 0.666992 23.001 2s17.5 3 26.5 5s25.167 8.66699 48.5 20zM425.004 613.997c0 -33.333 -13.167 -60 -39.5 -80
s-58.833 -30 -97.5 -30c-27.333 0 -55.333 8.33301 -84 25c-64 37.333 -107.333 56 -130 56c-7.33301 0 -16.333 -5.66699 -27 -17l-41 -47c0 42 9 76.5 27 103.5s44 40.5 78 40.5c24 0 49 -8 75 -24c58.667 -36 96.334 -54 113.001 -54c38 0 69 15 93 45
c8 10 16.333 25.333 25 46l5 -3c1.33301 -9.33301 2.16602 -20 2.49902 -32s0.5 -21.667 0.5 -29z" />
    <glyph glyph-name="adieresis" unicode="&#xe4;" horiz-adv-x="436" 
d="M407 65c-6 -12.667 -17.9951 -24.8369 -35.9951 -36.5039s-36 -17.5 -54 -17.5c-19.333 0 -33.333 5 -42 15s-16.334 27.667 -23.001 53c-22 -13.333 -39.333 -23.333 -52 -30c-40.667 -20.667 -72.667 -31 -96 -31c-28.667 0 -50.834 11 -66.501 33
s-23.5 48.333 -23.5 79c0 41.333 20.667 80 62 116c30 26 66 47.333 108 64c9.33301 4.66699 23.666 10 42.999 16c3.33301 0.666992 8 2 14 4c1.33301 6 2.5 12.667 3.5 20s1.5 11.333 1.5 12c0 23.333 -5.33301 44 -16 62c-12.667 21.333 -30.334 32 -53.001 32
c-30 0 -52 -8.66699 -66 -26c-10.667 -13.333 -16 -30.666 -16 -51.999v-19c0 -28.667 -11.333 -43 -34 -43c-4.66699 0 -9.66699 0.5 -15 1.5s-10.166 4.83301 -14.499 11.5s-6.5 21.334 -6.5 44.001c0 32.667 13.667 58.334 41 77.001c10.667 7.33301 34 17.666 70 30.999
c13.333 4 24.666 6 33.999 6c12.667 0 28.667 -3.16699 48 -9.5s35.666 -16.166 48.999 -29.499c10.667 -10.667 21.667 -26.667 33 -48c6.66699 -12 11.167 -25.833 13.5 -41.5s3.5 -31.5 3.5 -47.5v-30v-87v-86c1.33301 -7.33301 5.66602 -15.833 12.999 -25.5
s15 -14.5 23 -14.5c4.66699 0 13.334 3 26.001 9c16.667 8 26 12.333 28 13c-1.33301 -2.66699 -1.5 -7.16699 -0.5 -13.5s1.16699 -10.166 0.5 -11.499zM252.005 113.997l-2.00098 97c0 8 -0.166992 20.833 -0.5 38.5s-0.833008 34.5 -1.5 50.5l-19 -6
c-36.667 -15.333 -65.667 -31.333 -87 -48c-40 -31.333 -60 -67.333 -60 -108c0 -22 5 -37.333 15 -46s23.667 -13 41 -13c6.66699 0 14.334 0.666992 23.001 2s17.5 3 26.5 5s25.167 8.66699 48.5 20zM294.004 609.997c6.66699 -8.66699 10 -18.667 10 -30
c0 -16.667 -6.66699 -30 -20 -40c-8.66699 -6.66699 -18.667 -10 -30 -10c-16.667 0 -30 6.66699 -40 20c-6.66699 8.66699 -10 18.667 -10 30c0 16.667 6.66699 30 20 40c8.66699 6.66699 18.667 10 30 10c16.667 0 30 -6.66699 40 -20zM140.004 547.997
c-9.33301 -14 -23 -21 -41 -21c-10 0 -19 3 -27 9c-14 9.33301 -21 23 -21 41c0 10 3 19 9 27c9.33301 14 23 21 41 21c10 0 19 -3 27 -9c14 -9.33301 21 -23 21 -41c0 -10 -3 -19 -9 -27z" />
    <glyph glyph-name="aring" unicode="&#xe5;" horiz-adv-x="436" 
d="M407 65c-6 -12.667 -17.9951 -24.8369 -35.9951 -36.5039s-36 -17.5 -54 -17.5c-19.333 0 -33.333 5 -42 15s-16.334 27.667 -23.001 53c-22 -13.333 -39.333 -23.333 -52 -30c-40.667 -20.667 -72.667 -31 -96 -31c-28.667 0 -50.834 11 -66.501 33
s-23.5 48.333 -23.5 79c0 41.333 20.667 80 62 116c30 26 66 47.333 108 64c9.33301 4.66699 23.666 10 42.999 16c3.33301 0.666992 8 2 14 4c1.33301 6 2.5 12.667 3.5 20s1.5 11.333 1.5 12c0 23.333 -5.33301 44 -16 62c-12.667 21.333 -30.334 32 -53.001 32
c-30 0 -52 -8.66699 -66 -26c-10.667 -13.333 -16 -30.666 -16 -51.999v-19c0 -28.667 -11.333 -43 -34 -43c-4.66699 0 -9.66699 0.5 -15 1.5s-10.166 4.83301 -14.499 11.5s-6.5 21.334 -6.5 44.001c0 32.667 13.667 58.334 41 77.001c10.667 7.33301 34 17.666 70 30.999
c13.333 4 24.666 6 33.999 6c12.667 0 28.667 -3.16699 48 -9.5s35.666 -16.166 48.999 -29.499c10.667 -10.667 21.667 -26.667 33 -48c6.66699 -12 11.167 -25.833 13.5 -41.5s3.5 -31.5 3.5 -47.5v-30v-87v-86c1.33301 -7.33301 5.66602 -15.833 12.999 -25.5
s15 -14.5 23 -14.5c4.66699 0 13.334 3 26.001 9c16.667 8 26 12.333 28 13c-1.33301 -2.66699 -1.5 -7.16699 -0.5 -13.5s1.16699 -10.166 0.5 -11.499zM252.005 113.997l-2.00098 97c0 8 -0.166992 20.833 -0.5 38.5s-0.833008 34.5 -1.5 50.5l-19 -6
c-36.667 -15.333 -65.667 -31.333 -87 -48c-40 -31.333 -60 -67.333 -60 -108c0 -22 5 -37.333 15 -46s23.667 -13 41 -13c6.66699 0 14.334 0.666992 23.001 2s17.5 3 26.5 5s25.167 8.66699 48.5 20zM305.004 637.997c0 -33.333 -12.002 -61.002 -36.002 -83.002
s-53 -33 -87 -33c-33.333 0 -61.166 11.833 -83.499 35.5s-33.5 52.834 -33.5 87.501c0 32.667 12 60.334 36 83.001s53 34 87 34c32.667 0 60.334 -12.333 83.001 -37s34 -53.667 34 -87zM266.002 644.995c0 25.333 -8.83301 46.833 -26.5 64.5s-39.167 26.5 -64.5 26.5
s-46.833 -8.83301 -64.5 -26.5s-26.5 -39.167 -26.5 -64.5c0 -26 8.66699 -47.667 26 -65s39 -26 65 -26s47.667 8.66699 65 26s26 39 26 65z" />
    <glyph glyph-name="ae" unicode="&#xe6;" horiz-adv-x="600" 
d="M569 315l-255.995 -1.00098c-0.666992 -4.66699 -1 -10.667 -1 -18v-29c0 -67.333 9.5 -117 28.5 -149s47.5 -48 85.5 -48c12.667 0 27 2 43 6c28 7.33301 50.667 24.666 68 51.999c5.33301 8.66699 11.333 21.667 18 39l13 -14c-2 -6.66699 -4 -12.334 -6 -17.001
c-11.333 -28 -26.333 -54.667 -45 -80c-12 -16 -30.667 -27.667 -56 -35c-16 -4.66699 -31.333 -7 -46 -7c-20 0 -43.333 6.83301 -70 20.5s-43.334 25 -50.001 34s-17 13.5 -31 13.5c-2.66699 0 -6 -0.666992 -10 -2l-57 -33c-38 -19.333 -69 -29 -93 -29
c-28.667 0 -50.834 11 -66.501 33s-23.5 48.333 -23.5 79c0 41.333 20.667 80 62 116c30 26 66 47.333 108 64c9.33301 4.66699 23.666 10 42.999 16c3.33301 0.666992 8 2 14 4c1.33301 6 2.5 12.667 3.5 20s1.5 11.333 1.5 12c0 23.333 -5.33301 44 -16 62
c-12.667 21.333 -30.334 32 -53.001 32c-30 0 -52 -8.66699 -66 -26c-10.667 -13.333 -16 -30.666 -16 -51.999v-19c0 -28.667 -11.333 -43 -34 -43c-4.66699 0 -9.66699 0.5 -15 1.5s-10.166 4.83301 -14.499 11.5s-6.5 21.334 -6.5 44.001
c0 32.667 13.667 58.334 41 77.001c10.667 7.33301 34 17.666 70 30.999c13.333 4 24.666 6 33.999 6c12.667 0 29 -3.33301 49 -10c15.333 -4.66699 30.333 -18 45 -40l20 -25c10 14 24 26.667 42 38c7.33301 4.66699 19.666 11.334 36.999 20.001
c6 3.33301 16.5 6.5 31.5 9.5s29.167 4.5 42.5 4.5c18.667 0 44 -14.667 76 -44c36.667 -34 55 -68 55 -102zM489.005 341.999c0 8 -0.333984 16 -1.00098 24s-3.33398 16.667 -8.00098 26c-8 15.333 -19.667 28 -35 38s-31.333 15 -48 15
c-13.333 0 -24.666 -5.33301 -33.999 -16c-1.33301 -2 -7.66602 -10.667 -18.999 -26c-16.667 -22.667 -27 -43.667 -31 -63zM252.004 113.999l-2.00098 97c0 8 -0.166992 20.833 -0.5 38.5s-0.833008 34.5 -1.5 50.5l-19 -6c-36.667 -15.333 -65.667 -31.333 -87 -48
c-40 -31.333 -60 -67.333 -60 -108c0 -22 5 -37.333 15 -46s23.667 -13 41 -13c6.66699 0 14.334 0.666992 23.001 2s17.5 3 26.5 5s25.167 8.66699 48.5 20z" />
    <glyph glyph-name="ccedilla" unicode="&#xe7;" horiz-adv-x="381" 
d="M353 136c-2.66699 -10.667 -5.33203 -19.667 -7.99902 -27c-8.66699 -22.667 -20.667 -44.334 -36 -65.001c-12 -16 -30.667 -27.667 -56 -35c-16 -4.66699 -31.333 -7 -46 -7c-20.667 0 -43.167 5.5 -67.5 16.5s-42.5 23.5 -54.5 37.5
c-8.66699 10 -20.834 30.833 -36.501 62.5s-23.5 52.834 -23.5 63.501c0 8.66699 -0.166992 17.334 -0.5 26.001s-0.5 17.334 -0.5 26.001c0 29.333 2.83301 54.666 8.5 75.999s17.167 42 34.5 62c8.66699 10 18.334 18.5 29.001 25.5s27.667 16.5 51 28.5
c6 3.33301 16.5 6.5 31.5 9.5s29.167 4.5 42.5 4.5c14.667 0 27.167 -1.33301 37.5 -4s21.166 -8 32.499 -16c18 -12.667 30.667 -22.667 38 -30c13.333 -13.333 20 -25.333 20 -36c0 -7.33301 -4 -14.5 -12 -21.5s-17.333 -10.5 -28 -10.5s-18 4 -22 12l-20 47
c-10.667 18.667 -25.667 28 -45 28c-6.66699 0 -14.167 -0.833008 -22.5 -2.5s-18.166 -7.16699 -29.499 -16.5c-8.66699 -7.33301 -18.667 -19 -30 -35s-18.333 -28.833 -21 -38.5s-4 -25.834 -4 -48.501v-30c0 -38 8 -74.333 24 -109
c21.333 -46.667 51.666 -70 90.999 -70c8.66699 0 19 1.66699 31 5c28 8 51.667 27 71 57c6 10 13 24.333 21 43v-28zM280.002 -84c0 -14.667 -5.8291 -28.5 -17.4961 -41.5s-22.334 -21.5 -32.001 -25.5s-17.834 -6.5 -24.501 -7.5s-15.334 -1.5 -26.001 -1.5h-18h-32v16
h14c16.667 0 27.167 0.333008 31.5 1s11.166 3 20.499 7c18.667 8 28 21.667 28 41c0 8 -1.83301 15.333 -5.5 22s-9.33398 11.167 -17.001 13.5s-16.5 3.5 -26.5 3.5c-6 0 -11.167 -0.166992 -15.5 -0.5s-8.16602 -0.833008 -11.499 -1.5c6.66699 10 15.667 25 27 45l27 47
c8.66699 -4.66699 18 -7.33398 28 -8.00098c-5.33301 -6 -10.333 -12.167 -15 -18.5s-9 -12.833 -13 -19.5c22 0 41 -8.66699 57 -26c14 -15.333 21 -30.666 21 -45.999z" />
    <glyph glyph-name="egrave" unicode="&#xe8;" horiz-adv-x="381" 
d="M360 141c-2 -6.66699 -3.99902 -12.335 -5.99902 -17.002c-11.333 -28 -26.333 -54.667 -45 -80c-12 -16 -30.667 -27.667 -56 -35c-16 -4.66699 -31.333 -7 -46 -7c-20.667 0 -43.167 5.5 -67.5 16.5s-42.5 23.5 -54.5 37.5c-8.66699 10 -20.834 30.833 -36.501 62.5
s-23.5 52.834 -23.5 63.501c0 8.66699 -0.166992 17.334 -0.5 26.001s-0.5 17.334 -0.5 26.001c0 29.333 2.83301 54.666 8.5 75.999s17.167 42 34.5 62c8.66699 10 18.334 18.5 29.001 25.5s27.667 16.5 51 28.5c6 3.33301 16.5 6.5 31.5 9.5s29.167 4.5 42.5 4.5
c18.667 0 44 -14.667 76 -44c36.667 -34 55 -68 55 -102l1 -23l-256 -1c-0.666992 -4.66699 -1 -10.667 -1 -18v-29c0 -35.333 10.333 -69.333 31 -102c26 -41.333 59.333 -62 100 -62c9.33301 0 20.666 1.66699 33.999 5c28 8 50.667 25.333 68 52
c5.33301 8.66699 11.333 21.667 18 39zM273.001 297.999c0 8 -0.333984 16 -1.00098 24s-3.33398 16.667 -8.00098 26c-8 15.333 -19.667 28 -35 38s-31.333 15 -48 15c-13.333 0 -24.666 -5.33301 -33.999 -16c-1.33301 -2 -7.66602 -10.667 -18.999 -26
c-16.667 -22.667 -27 -43.667 -31 -63zM50 11.999v800h700v-800h-700zM700 61.999v700h-600v-700h600z" />
    <glyph glyph-name="eacute" unicode="&#xe9;" horiz-adv-x="381" 
d="M360 141c-2 -6.66699 -3.99902 -12.335 -5.99902 -17.002c-11.333 -28 -26.333 -54.667 -45 -80c-12 -16 -30.667 -27.667 -56 -35c-16 -4.66699 -31.333 -7 -46 -7c-20.667 0 -43.167 5.5 -67.5 16.5s-42.5 23.5 -54.5 37.5c-8.66699 10 -20.834 30.833 -36.501 62.5
s-23.5 52.834 -23.5 63.501c0 8.66699 -0.166992 17.334 -0.5 26.001s-0.5 17.334 -0.5 26.001c0 29.333 2.83301 54.666 8.5 75.999s17.167 42 34.5 62c8.66699 10 18.334 18.5 29.001 25.5s27.667 16.5 51 28.5c6 3.33301 16.5 6.5 31.5 9.5s29.167 4.5 42.5 4.5
c18.667 0 44 -14.667 76 -44c36.667 -34 55 -68 55 -102l1 -23l-256 -1c-0.666992 -4.66699 -1 -10.667 -1 -18v-29c0 -35.333 10.333 -69.333 31 -102c26 -41.333 59.333 -62 100 -62c9.33301 0 20.666 1.66699 33.999 5c28 8 50.667 25.333 68 52
c5.33301 8.66699 11.333 21.667 18 39zM273.001 297.999c0 8 -0.333984 16 -1.00098 24s-3.33398 16.667 -8.00098 26c-8 15.333 -19.667 28 -35 38s-31.333 15 -48 15c-13.333 0 -24.666 -5.33301 -33.999 -16c-1.33301 -2 -7.66602 -10.667 -18.999 -26
c-16.667 -22.667 -27 -43.667 -31 -63zM284 647.999l-116 -156l-36 4l48 152h104z" />
    <glyph glyph-name="ecircumflex" unicode="&#xea;" horiz-adv-x="381" 
d="M360 141c-2 -6.66699 -3.99902 -12.335 -5.99902 -17.002c-11.333 -28 -26.333 -54.667 -45 -80c-12 -16 -30.667 -27.667 -56 -35c-16 -4.66699 -31.333 -7 -46 -7c-20.667 0 -43.167 5.5 -67.5 16.5s-42.5 23.5 -54.5 37.5c-8.66699 10 -20.834 30.833 -36.501 62.5
s-23.5 52.834 -23.5 63.501c0 8.66699 -0.166992 17.334 -0.5 26.001s-0.5 17.334 -0.5 26.001c0 29.333 2.83301 54.666 8.5 75.999s17.167 42 34.5 62c8.66699 10 18.334 18.5 29.001 25.5s27.667 16.5 51 28.5c6 3.33301 16.5 6.5 31.5 9.5s29.167 4.5 42.5 4.5
c18.667 0 44 -14.667 76 -44c36.667 -34 55 -68 55 -102l1 -23l-256 -1c-0.666992 -4.66699 -1 -10.667 -1 -18v-29c0 -35.333 10.333 -69.333 31 -102c26 -41.333 59.333 -62 100 -62c9.33301 0 20.666 1.66699 33.999 5c28 8 50.667 25.333 68 52
c5.33301 8.66699 11.333 21.667 18 39zM273.001 297.999c0 8 -0.333984 16 -1.00098 24s-3.33398 16.667 -8.00098 26c-8 15.333 -19.667 28 -35 38s-31.333 15 -48 15c-13.333 0 -24.666 -5.33301 -33.999 -16c-1.33301 -2 -7.66602 -10.667 -18.999 -26
c-16.667 -22.667 -27 -43.667 -31 -63zM356 515.999l-24 -8l-144 92l-104 -84l-24 4l94 142l78 -2z" />
    <glyph glyph-name="edieresis" unicode="&#xeb;" horiz-adv-x="381" 
d="M360 141c-2 -6.66699 -3.99902 -12.335 -5.99902 -17.002c-11.333 -28 -26.333 -54.667 -45 -80c-12 -16 -30.667 -27.667 -56 -35c-16 -4.66699 -31.333 -7 -46 -7c-20.667 0 -43.167 5.5 -67.5 16.5s-42.5 23.5 -54.5 37.5c-8.66699 10 -20.834 30.833 -36.501 62.5
s-23.5 52.834 -23.5 63.501c0 8.66699 -0.166992 17.334 -0.5 26.001s-0.5 17.334 -0.5 26.001c0 29.333 2.83301 54.666 8.5 75.999s17.167 42 34.5 62c8.66699 10 18.334 18.5 29.001 25.5s27.667 16.5 51 28.5c6 3.33301 16.5 6.5 31.5 9.5s29.167 4.5 42.5 4.5
c18.667 0 44 -14.667 76 -44c36.667 -34 55 -68 55 -102l1 -23l-256 -1c-0.666992 -4.66699 -1 -10.667 -1 -18v-29c0 -35.333 10.333 -69.333 31 -102c26 -41.333 59.333 -62 100 -62c9.33301 0 20.666 1.66699 33.999 5c28 8 50.667 25.333 68 52
c5.33301 8.66699 11.333 21.667 18 39zM273.001 297.999c0 8 -0.333984 16 -1.00098 24s-3.33398 16.667 -8.00098 26c-8 15.333 -19.667 28 -35 38s-31.333 15 -48 15c-13.333 0 -24.666 -5.33301 -33.999 -16c-1.33301 -2 -7.66602 -10.667 -18.999 -26
c-16.667 -22.667 -27 -43.667 -31 -63zM310 569.999c6.66699 -8.66699 10 -18.667 10 -30c0 -16.667 -6.66699 -30 -20 -40c-8.66699 -6.66699 -18.667 -10 -30 -10c-16.667 0 -30 6.66699 -40 20c-6.66699 8.66699 -10 18.667 -10 30c0 16.667 6.66699 30 20 40
c8.66699 6.66699 18.667 10 30 10c16.667 0 30 -6.66699 40 -20zM156 507.999c-9.33301 -14 -23 -21 -41 -21c-10 0 -19 3 -27 9c-14 9.33301 -21 23 -21 41c0 10 3 19 9 27c9.33301 14 23 21 41 21c10 0 19 -3 27 -9c14 -9.33301 21 -23 21 -41c0 -10 -3 -19 -9 -27z" />
    <glyph glyph-name="igrave" unicode="&#xec;" horiz-adv-x="245" 
d="M229 15l-195.999 2.99805v14l22 9c15.333 8 25 16.667 29 26c1.33301 3.33301 2.33301 10.166 3 20.499s1 16.5 1 18.5c0 6 -0.333008 17.167 -1 33.5s-1 28.833 -1 37.5c0 10.667 0.333008 20.667 1 30l2 28c0 9.33301 -0.666992 18.333 -2 27s-2 17 -2 25v19
c0 12.667 -0.166992 25.167 -0.5 37.5s-2.16602 22 -5.49902 29s-8 10.5 -14 10.5c-4.66699 0 -8.33398 -0.333008 -11.001 -1s-5.33398 -2 -8.00098 -4l-6 19l68 30l57 27c0.666992 -6 1.16699 -12.667 1.5 -20s0.5 -14.666 0.5 -21.999c0 -10 -0.166992 -19.5 -0.5 -28.5
s-0.5 -17.833 -0.5 -26.5v-117v-50.5c0 -18.333 0.333008 -38.166 1 -59.499c0 -20 0.5 -35.5 1.5 -46.5s3.66699 -19.833 8 -26.5s11.333 -11.667 21 -15s20.167 -6.66602 31.5 -9.99902c2.66699 -1.33301 3 -4 1 -8s-2.33301 -7 -1 -9zM-37.999 55.998v800h700v-800h-700z
M612.001 105.998v700h-600v-700h600z" />
    <glyph glyph-name="iacute" unicode="&#xed;" horiz-adv-x="245" 
d="M221 15l-195.999 2.99805v14l22 9c15.333 8 25 16.667 29 26c1.33301 3.33301 2.33301 10.166 3 20.499s1 16.5 1 18.5c0 6 -0.333008 17.167 -1 33.5s-1 28.833 -1 37.5c0 10.667 0.333008 20.667 1 30l2 28c0 9.33301 -0.666992 18.333 -2 27s-2 17 -2 25v19
c0 12.667 -0.166992 25.167 -0.5 37.5s-2.16602 22 -5.49902 29s-8 10.5 -14 10.5c-4.66699 0 -8.33398 -0.333008 -11.001 -1s-5.33398 -2 -8.00098 -4l-6 19l68 30l57 27c0.666992 -6 1.16699 -12.667 1.5 -20s0.5 -14.666 0.5 -21.999c0 -10 -0.166992 -19.5 -0.5 -28.5
s-0.5 -17.833 -0.5 -26.5v-117v-50.5c0 -18.333 0.333008 -38.166 1 -59.499c0 -20 0.5 -35.5 1.5 -46.5s3.66699 -19.833 8 -26.5s11.333 -11.667 21 -15s20.167 -6.66602 31.5 -9.99902c2.66699 -1.33301 3 -4 1 -8s-2.33301 -7 -1 -9zM204.001 687.998l-116 -156l-36 4
l48 152h104z" />
    <glyph glyph-name="icircumflex" unicode="&#xee;" horiz-adv-x="264" 
d="M221 15l-195.999 2.99805v14l22 9c15.333 8 25 16.667 29 26c1.33301 3.33301 2.33301 10.166 3 20.499s1 16.5 1 18.5c0 6 -0.333008 17.167 -1 33.5s-1 28.833 -1 37.5c0 10.667 0.333008 20.667 1 30l2 28c0 9.33301 -0.666992 18.333 -2 27s-2 17 -2 25v19
c0 12.667 -0.166992 25.167 -0.5 37.5s-2.16602 22 -5.49902 29s-8 10.5 -14 10.5c-4.66699 0 -8.33398 -0.333008 -11.001 -1s-5.33398 -2 -8.00098 -4l-6 19l68 30l57 27c0.666992 -6 1.16699 -12.667 1.5 -20s0.5 -14.666 0.5 -21.999c0 -10 -0.166992 -19.5 -0.5 -28.5
s-0.5 -17.833 -0.5 -26.5v-117v-50.5c0 -18.333 0.333008 -38.166 1 -59.499c0 -20 0.5 -35.5 1.5 -46.5s3.66699 -19.833 8 -26.5s11.333 -11.667 21 -15s20.167 -6.66602 31.5 -9.99902c2.66699 -1.33301 3 -4 1 -8s-2.33301 -7 -1 -9zM296.001 527.998l-24 -8l-144 92
l-104 -84l-24 4l94 142l78 -2z" />
    <glyph glyph-name="idieresis" unicode="&#xef;" horiz-adv-x="276" 
d="M241 15l-195.999 2.99805v14l22 9c15.333 8 25 16.667 29 26c1.33301 3.33301 2.33301 10.166 3 20.499s1 16.5 1 18.5c0 6 -0.333008 17.167 -1 33.5s-1 28.833 -1 37.5c0 10.667 0.333008 20.667 1 30l2 28c0 9.33301 -0.666992 18.333 -2 27s-2 17 -2 25v19
c0 12.667 -0.166992 25.167 -0.5 37.5s-2.16602 22 -5.49902 29s-8 10.5 -14 10.5c-4.66699 0 -8.33398 -0.333008 -11.001 -1s-5.33398 -2 -8.00098 -4l-6 19l68 30l57 27c0.666992 -6 1.16699 -12.667 1.5 -20s0.5 -14.666 0.5 -21.999c0 -10 -0.166992 -19.5 -0.5 -28.5
s-0.5 -17.833 -0.5 -26.5v-117v-50.5c0 -18.333 0.333008 -38.166 1 -59.499c0 -20 0.5 -35.5 1.5 -46.5s3.66699 -19.833 8 -26.5s11.333 -11.667 21 -15s20.167 -6.66602 31.5 -9.99902c2.66699 -1.33301 3 -4 1 -8s-2.33301 -7 -1 -9zM254.001 621.998
c6.66699 -8.66699 10 -18.667 10 -30c0 -16.667 -6.66699 -30 -20 -40c-8.66699 -6.66699 -18.667 -10 -30 -10c-16.667 0 -30 6.66699 -40 20c-6.66699 8.66699 -10 18.667 -10 30c0 16.667 6.66699 30 20 40c8.66699 6.66699 18.667 10 30 10c16.667 0 30 -6.66699 40 -20
zM100.001 559.998c-9.33301 -14 -23 -21 -41 -21c-10 0 -19 3 -27 9c-14 9.33301 -21 23 -21 41c0 10 3 19 9 27c9.33301 14 23 21 41 21c10 0 19 -3 27 -9c14 -9.33301 21 -23 21 -41c0 -10 -3 -19 -9 -27z" />
    <glyph glyph-name="eth" unicode="&#xf0;" horiz-adv-x="405" 
d="M370 220c0 -60 -3.16895 -100 -9.50195 -120s-25 -41.667 -56 -65s-65.167 -35 -102.5 -35c-46.667 -0 -89.334 17.333 -128.001 52c-16.667 15.333 -28.834 35 -36.501 59s-11.5 49.667 -11.5 77c0 26.667 2.83301 52 8.5 76s12.167 41 19.5 51
c15.333 22 31.833 37.5 49.5 46.5s36.834 13.5 57.501 13.5c29.333 0 60.333 -9.66699 93 -29c10.667 -6 24 -15.667 40 -29c2 6 -4.33301 30.333 -19 73c-18.667 53.333 -41.667 95.333 -69 126c-6 7.33301 -11.667 13.333 -17 18
c-1.33301 1.33301 -7.66602 6.66602 -18.999 15.999l-74 -62l-28 20l76 61c-23.333 16.667 -47.666 30.334 -72.999 41.001c-8.66699 3.33301 -19.667 7.33301 -33 12v22c21.333 -1.33301 38.333 -3 51 -5c37.333 -6 68.333 -15 93 -27l8 -5l86 69l20 -20l-79 -67
c22.667 -17.333 44.5 -37 65.5 -59s34.167 -40 39.5 -54c14.667 -39.333 26.334 -81.333 35.001 -126s13 -88 13 -130zM297.998 203c-4.66699 35.333 -15.999 63.667 -33.999 85c-20 24 -46.333 38 -79 42c-32.667 2.66699 -58 -12.666 -76 -45.999
c-15.333 -28.667 -23 -64.667 -23 -108c0 -9.33301 0.5 -18.333 1.5 -27s3.16699 -21 6.5 -37s15.166 -30.667 35.499 -44s42.833 -20 67.5 -20c4.66699 0 11.667 0.666992 21 2c26.667 5.33301 47 20.166 61 44.499s21 51.833 21 82.5v13c-1.33301 6 -2 10.333 -2 13z" />
    <glyph glyph-name="ntilde" unicode="&#xf1;" horiz-adv-x="469" 
d="M433 12l-174 3v13c8.66699 2.66699 15 5 19 7c14 7.33301 22.5 15.166 25.5 23.499s4.5 22.5 4.5 42.5c0 9.33301 -0.166992 18.833 -0.5 28.5s-0.5 19.5 -0.5 29.5l1 82c0.666992 7.33301 1 14 1 20c0 8 -1 15.667 -3 23c-4 14.667 -7.66699 29.334 -11 44.001
c-6 12.667 -18.333 19 -37 19c-20.667 0 -43 -6.33301 -67 -19l-49 -28v-117c0 -38 0.333008 -60 1 -66c0 -16.667 0.5 -30.167 1.5 -40.5s2.83301 -18.166 5.5 -23.499c4.66699 -6.66699 11.5 -11.667 20.5 -15s18.5 -6.33301 28.5 -9c2 -0.666992 2 -3 0 -7s-2 -7 0 -9
l-177 3v13c8.66699 3.33301 15.334 6 20.001 8c14 6.66699 22.5 13.667 25.5 21s4.5 19.666 4.5 36.999c0 6 -0.333008 16.333 -1 31s-1 25.667 -1 33v24v23v22v19v17v14v12c0 10.667 -0.166992 20.334 -0.5 29.001s-0.5 16.334 -0.5 23.001c0 21.333 -5.66699 32 -17 32
c-2.66699 0 -7.66699 -1 -15 -3s-12.666 -3 -15.999 -3v8c16 13.333 38.667 27.833 68 43.5s45 21.5 47 17.5c0.666992 -1.33301 1.33398 -6 2.00098 -14s1 -12.667 1 -14v-27l2 -64c27.333 25.333 48.333 42.666 63 51.999c29.333 19.333 56.333 29 81 29
c17.333 0 30.666 -1.16699 39.999 -3.5s18.666 -8.5 27.999 -18.5c16 -15.333 24 -35 24 -59v-80c0 -35.333 0.5 -73 1.5 -113s2.83301 -61.667 5.5 -65c6 -8.66699 14.833 -15.834 26.5 -21.501s19.167 -9.16699 22.5 -10.5
c1.33301 -1.33301 1.16602 -3.83301 -0.500977 -7.5s-1.5 -6.5 0.5 -8.5zM449 582c0 -33.333 -13.167 -60 -39.5 -80s-58.833 -30 -97.5 -30c-27.333 0 -55.333 8.33301 -84 25c-64 37.333 -107.333 56 -130 56c-7.33301 0 -16.333 -5.66699 -27 -17l-41 -47
c0 42 9 76.5 27 103.5s44 40.5 78 40.5c24 0 49 -8 75 -24c58.667 -36 96.334 -54 113.001 -54c38 0 69 15 93 45c8 10 16.333 25.333 25 46l5 -3c1.33301 -9.33301 2.16602 -20 2.49902 -32s0.5 -21.667 0.5 -29z" />
    <glyph glyph-name="ograve" unicode="&#xf2;" 
d="M350 215c0 -55.333 -14.333 -102.332 -43 -140.999c-32 -43.333 -74.333 -65 -127 -65c-50 0 -91.667 18.667 -125 56s-50 80.666 -50 129.999c-0.666992 4 -1 8.16699 -1 12.5v10.5c0 47.333 12.833 89.333 38.5 126s61.5 58 107.5 64
c4.66699 0.666992 11.334 1 20.001 1c49.333 0 91.666 -19.667 126.999 -59s53 -84.333 53 -135zM271 215.001c0 44 -7.99902 81.668 -23.999 113.001c-19.333 37.333 -46 56 -80 56c-5.33301 -0.666992 -9.33301 -1 -12 -1c-26 -3.33301 -44.167 -15.833 -54.5 -37.5
s-15.5 -49.167 -15.5 -82.5c0 -10 0.166992 -18.167 0.5 -24.5s1.5 -18.833 3.5 -37.5c6 -60.667 17.667 -102.334 35 -125.001c15.333 -20 36.666 -30 63.999 -30s48 11.667 62 35s21 68 21 134zM22.001 -11.998v800h700v-800h-700zM672.001 38.002v700h-600v-700h600z" />
    <glyph glyph-name="oacute" unicode="&#xf3;" 
d="M350 215c0 -55.333 -14.333 -102.332 -43 -140.999c-32 -43.333 -74.333 -65 -127 -65c-50 0 -91.667 18.667 -125 56s-50 80.666 -50 129.999c-0.666992 4 -1 8.16699 -1 12.5v10.5c0 47.333 12.833 89.333 38.5 126s61.5 58 107.5 64
c4.66699 0.666992 11.334 1 20.001 1c49.333 0 91.666 -19.667 126.999 -59s53 -84.333 53 -135zM271 215.001c0 44 -7.99902 81.668 -23.999 113.001c-19.333 37.333 -46 56 -80 56c-5.33301 -0.666992 -9.33301 -1 -12 -1c-26 -3.33301 -44.167 -15.833 -54.5 -37.5
s-15.5 -49.167 -15.5 -82.5c0 -10 0.166992 -18.167 0.5 -24.5s1.5 -18.833 3.5 -37.5c6 -60.667 17.667 -102.334 35 -125.001c15.333 -20 36.666 -30 63.999 -30s48 11.667 62 35s21 68 21 134zM280.001 624.002l-116 -156l-36 4l48 152h104z" />
    <glyph glyph-name="ocircumflex" unicode="&#xf4;" 
d="M350 215c0 -55.333 -14.333 -102.332 -43 -140.999c-32 -43.333 -74.333 -65 -127 -65c-50 0 -91.667 18.667 -125 56s-50 80.666 -50 129.999c-0.666992 4 -1 8.16699 -1 12.5v10.5c0 47.333 12.833 89.333 38.5 126s61.5 58 107.5 64
c4.66699 0.666992 11.334 1 20.001 1c49.333 0 91.666 -19.667 126.999 -59s53 -84.333 53 -135zM271 215.001c0 44 -7.99902 81.668 -23.999 113.001c-19.333 37.333 -46 56 -80 56c-5.33301 -0.666992 -9.33301 -1 -12 -1c-26 -3.33301 -44.167 -15.833 -54.5 -37.5
s-15.5 -49.167 -15.5 -82.5c0 -10 0.166992 -18.167 0.5 -24.5s1.5 -18.833 3.5 -37.5c6 -60.667 17.667 -102.334 35 -125.001c15.333 -20 36.666 -30 63.999 -30s48 11.667 62 35s21 68 21 134zM320.001 472.002l-24 -8l-144 92l-104 -84l-24 4l94 142l78 -2z" />
    </font>
</defs>
</svg>
